<?xml version="1.0" encoding="utf-8"?>
<!-- Generator: Adobe Illustrator 16.0.0, SVG Export Plug-In . SVG Version: 6.00 Build 0)  -->
<!DOCTYPE svg PUBLIC "-//W3C//DTD SVG 1.1//EN" "http://www.w3.org/Graphics/SVG/1.1/DTD/svg11.dtd">
<svg version="1.1" id="Layer_1" xmlns="http://www.w3.org/2000/svg" xmlns:xlink="http://www.w3.org/1999/xlink" x="0px" y="0px"
	 viewBox="0 0 360 136.09" enable-background="new 0 0 360 136.09" xml:space="preserve">
<g>
	<path fill="#00FFFF" d="M303.897,37.744c-0.85,3.476-2.474,5.364-4.92,6.774c0,0-0.001,0.001-0.001,0.002
		C301.424,43.11,303.049,41.223,303.897,37.744c1.509-6.166-0.619-10.811-3.506-14.002
		C303.277,26.933,305.405,31.579,303.897,37.744z"/>
	<path fill="#00FFFF" d="M287.641,37.605c-1.898,1.091-3.725,3.738-5.995,2.733l0,0C283.919,41.346,285.744,38.697,287.641,37.605
		c3.102-1.767,9.948-3.801,11.835-1.058C297.591,33.803,290.742,35.838,287.641,37.605z"/>
	<path fill="#00FFFF" d="M298.801,25.696c-0.651-1.534-1.778-3.163-2.565-4.74C297.022,22.535,298.151,24.163,298.801,25.696z"/>
	<path fill="#FFFFFF" d="M273.979,15.61l0.213-0.235c-0.874-0.983-0.939-1.992-0.917-2.431c0.592,0.228,1.911,0.298,2.571,0.32
		c-1.15,4.077,3.43,6.369,3.475,6.392l0.188-0.252c-2.671-2.814-1.061-5.284-0.5-5.976c0.097-0.127,0.277-0.192,0.528-0.192
		c0.176,0,0.333,0.033,0.396,0.048l1.567,1.211c-0.188,0.235-0.535,0.746-0.486,1.311c0.034,0.392,0.249,0.732,0.64,1.01
		c0.482,0.344,0.964,0.518,1.432,0.518c0.949,0,1.564-0.703,1.78-0.996l1.963,1.047c-1.738,1.878-5.42,2.807-5.458,2.818
		l0.023,0.313c0.415,0.039,0.832,0.059,1.243,0.059c5.17,0,8.364-3.095,8.396-3.125l0.227-0.225l-0.315-0.047
		c-2.277-0.337-5.653-2.161-8.812-4.76c-1.491-1.222-2.951-1.792-4.596-1.792c-0.804,0-1.572,0.13-2.315,0.256
		c-0.274,0.047-0.548,0.093-0.819,0.133c-0.509,0.073-0.978,0.109-1.399,0.109c-1.096,0-1.508-0.252-1.51-0.253l-0.255-0.17
		l0.009,0.307C271.308,13.651,273.871,15.531,273.979,15.61z"/>
	<path fill="#293576" d="M26.128,56.565c1.563-0.491,2.958-1.213,4.178-2.163c1.217-0.939,2.202-2.127,2.95-3.551
		c0.748-1.422,1.124-3.082,1.124-4.976c0-1.372-0.187-2.582-0.551-3.635c-0.368-1.054-0.843-1.958-1.439-2.716
		c-0.591-0.753-1.275-1.379-2.059-1.867c-0.779-0.493-1.596-0.877-2.424-1.16c1.392-0.772,2.507-1.723,3.334-2.845
		c0.838-1.122,1.257-2.637,1.257-4.533c0-0.948-0.161-1.977-0.474-3.08c-0.311-1.106-0.91-2.132-1.802-3.083
		c-0.879-0.947-2.101-1.728-3.652-2.343c-1.545-0.614-3.539-0.923-5.978-0.923H0.176v37.609h21.149
		C22.958,57.301,24.564,57.058,26.128,56.565z M11.662,28.651h6.06c1.182,0,2.13,0.188,2.847,0.575c0.709,0.389,1.07,1.055,1.07,2
		c0,1.233-0.349,2.06-1.046,2.477c-0.695,0.424-1.656,0.631-2.869,0.631h-6.062V28.651z M18.401,48.348h-6.739v-7.004h7.21
		c2.673,0,4.016,1.136,4.016,3.417c0,0.739-0.12,1.34-0.361,1.797c-0.243,0.456-0.575,0.811-0.994,1.076
		c-0.419,0.268-0.893,0.451-1.433,0.554C19.555,48.296,18.985,48.348,18.401,48.348z"/>
	<polygon fill="#293576" points="66.857,47.662 50.356,47.662 50.356,19.692 38.866,19.692 38.866,57.301 66.857,57.301 	"/>
	<path fill="#293576" d="M81.585,51.93h11.847l1.571,5.372h11.9L93.324,19.692H82.1L68.368,57.301h11.54L81.585,51.93z
		 M87.696,32.281H87.8l3.332,11.588h-7.044L87.696,32.281z"/>
	<rect x="109.469" y="19.692" fill="#293576" width="11.484" height="37.609"/>
	<polygon fill="#293576" points="137.769,36.757 137.873,36.757 149.308,57.301 160.484,57.301 160.484,19.692 149.62,19.692 
		149.62,39.815 149.515,39.815 138.654,19.692 126.907,19.692 126.907,57.301 137.769,57.301 	"/>
	<polygon fill="#293576" points="197.921,47.663 177.973,47.663 177.973,42.975 195.57,42.975 195.57,34.022 177.973,34.022 
		177.973,29.332 197.35,29.332 197.35,19.692 166.486,19.692 166.486,57.303 197.921,57.303 	"/>
	<path fill="#293576" d="M4.231,91.764c1.388,1.509,3.082,2.696,5.08,3.573c1.997,0.869,4.299,1.308,6.893,1.308
		c2.328,0,4.4-0.396,6.223-1.178c1.821-0.78,3.349-1.813,4.591-3.09c1.236-1.281,2.176-2.721,2.815-4.319
		c0.644-1.591,0.963-3.199,0.963-4.83H21.13c-0.152,0.756-0.349,1.464-0.606,2.127c-0.257,0.661-0.584,1.234-0.983,1.716
		c-0.403,0.479-0.894,0.857-1.479,1.13c-0.583,0.27-1.291,0.406-2.126,0.406c-1.165,0-2.135-0.259-2.909-0.771
		c-0.775-0.509-1.397-1.193-1.858-2.032c-0.465-0.843-0.8-1.793-1.007-2.845c-0.208-1.055-0.314-2.124-0.314-3.208
		c0-1.087,0.106-2.152,0.314-3.204c0.207-1.056,0.542-2.006,1.007-2.846c0.46-0.843,1.083-1.521,1.858-2.035
		c0.774-0.514,1.745-0.769,2.909-0.769c1.015,0,1.839,0.196,2.481,0.588c0.642,0.391,1.158,0.843,1.548,1.353
		c0.385,0.519,0.653,1.035,0.807,1.562c0.143,0.526,0.249,0.94,0.312,1.244h9.58c-0.421-4.064-1.827-7.204-4.231-9.415
		c-2.403-2.217-5.814-3.335-10.229-3.367c-2.477,0-4.708,0.409-6.691,1.221c-1.985,0.809-3.686,1.96-5.105,3.432
		c-1.419,1.477-2.506,3.255-3.267,5.327C0.38,74.924,0,77.223,0,79.756c0,2.374,0.358,4.598,1.075,6.662
		C1.793,88.48,2.842,90.258,4.231,91.764z"/>
	<path fill="#293576" d="M35.14,86.552c0.773,2.063,1.872,3.835,3.289,5.326c1.416,1.492,3.122,2.656,5.125,3.502
		c1.995,0.838,4.207,1.262,6.622,1.262c2.421,0,4.627-0.424,6.627-1.262c2.001-0.846,3.709-2.01,5.125-3.502
		c1.417-1.491,2.516-3.264,3.292-5.326c0.772-2.063,1.164-4.329,1.164-6.796c0-2.466-0.392-4.735-1.164-6.797
		c-0.775-2.06-1.874-3.839-3.292-5.33c-1.416-1.49-3.124-2.657-5.125-3.497c-2-0.844-4.206-1.267-6.627-1.267
		c-2.415,0-4.627,0.423-6.622,1.267c-2.003,0.84-3.709,2.007-5.125,3.497c-1.417,1.491-2.516,3.271-3.289,5.33
		c-0.781,2.062-1.168,4.331-1.168,6.797C33.972,82.223,34.36,84.49,35.14,86.552z M44.472,75.33c0.43-1.146,0.961-2.04,1.587-2.686
		c0.628-0.646,1.312-1.1,2.063-1.359c0.742-0.249,1.428-0.381,2.051-0.381c0.627,0,1.314,0.132,2.063,0.381
		c0.743,0.26,1.431,0.712,2.06,1.359c0.623,0.646,1.152,1.541,1.589,2.686c0.429,1.144,0.65,2.619,0.65,4.427
		c0,1.803-0.221,3.279-0.65,4.422c-0.438,1.146-0.966,2.041-1.589,2.69c-0.629,0.648-1.317,1.098-2.06,1.352
		c-0.748,0.26-1.435,0.388-2.063,0.388c-0.624,0-1.309-0.128-2.051-0.388c-0.752-0.255-1.435-0.703-2.063-1.352
		c-0.626-0.65-1.157-1.544-1.587-2.69c-0.435-1.143-0.649-2.619-0.649-4.422C43.823,77.949,44.037,76.473,44.472,75.33z"/>
	<path fill="#293576" d="M70.411,63.634v19.783c0,4.479,1.2,7.806,3.603,9.974c2.403,2.169,6.065,3.255,10.989,3.255
		c4.924,0,8.582-1.086,10.967-3.255c2.386-2.167,3.582-5.495,3.582-9.974h0.001V63.634H89.7v17.563c0,0.816-0.022,1.66-0.063,2.534
		c-0.045,0.867-0.221,1.666-0.515,2.389c-0.297,0.721-0.761,1.314-1.389,1.783c-0.624,0.464-1.52,0.701-2.686,0.701
		c-1.192,0-2.118-0.237-2.773-0.701c-0.661-0.469-1.135-1.063-1.43-1.783c-0.3-0.723-0.474-1.521-0.52-2.389
		c-0.041-0.876-0.063-1.719-0.063-2.534V63.634H70.411z"/>
	<polygon fill="#293576" points="104.566,63.634 104.566,95.874 113.878,95.874 113.878,78.265 113.962,78.265 123.77,95.874 
		133.35,95.874 133.35,63.634 124.041,63.634 124.041,80.882 123.949,80.882 114.637,63.634 	"/>
	<polygon fill="#293576" points="137.018,71.897 145.973,71.897 145.974,71.897 145.973,71.897 145.973,95.874 155.82,95.874 
		155.82,71.897 164.77,71.897 164.77,64.12 164.502,63.634 137.018,63.634 	"/>
	<polygon fill="#293576" points="175.74,83.996 175.74,95.874 185.588,95.874 185.588,83.996 197.048,63.634 186.256,63.634 
		180.71,75.507 175.379,63.634 164.77,63.634 164.77,64.12 	"/>
	<polygon fill="#293576" points="164.77,63.634 164.502,63.634 164.77,64.12 	"/>
	<rect x="0.193" y="102.416" fill="#D51F26" width="197.674" height="4.34"/>
	<path fill="#293475" d="M19.437,114.135c-0.375,0.348-0.862,0.522-1.456,0.522H3.53c-0.388,0-0.678-0.029-0.876-0.089
		c-0.108-0.031-0.302-0.176-0.579-0.434H1.098L0.55,119.86h1.245c0.208-1.155,0.415-1.968,0.624-2.437
		c0.217-0.518,0.582-0.858,1.093-1.018c0.317-0.1,0.837-0.149,1.56-0.149h3.587v13.968c0,1.523-0.781,2.286-2.342,2.286H5.293v1.198
		h10.924v-1.198h-0.726c-0.946,0-1.611-0.142-1.986-0.434c-0.435-0.329-0.652-0.945-0.652-1.853v-13.968l0,0h3.575
		c0.82,0,1.422,0.079,1.808,0.239c0.466,0.199,0.827,0.693,1.083,1.479c0.099,0.312,0.233,0.938,0.4,1.886h1.246l-0.549-5.725
		H19.437z"/>
	<path fill="#293475" d="M40.959,129.76l-6.063-15.565h-4.491l0.325,0.897L25.541,129.7c-0.325,0.93-0.661,1.592-1.007,1.992
		c-0.495,0.548-1.149,0.821-1.971,0.821h-0.458v1.198h8.05v-1.198H29.77c-1.364,0-2.18-0.168-2.446-0.506
		c-0.277-0.34-0.262-0.933,0.044-1.781l1.274-3.59h6.639l1.44,3.545c0.315,0.786,0.365,1.369,0.148,1.748
		c-0.228,0.39-0.788,0.584-1.676,0.584h-1.067v1.197h9.871v-1.197c-0.84-0.06-1.498-0.334-1.971-0.823
		C41.673,131.323,41.315,130.679,40.959,129.76z M29.248,124.945l2.549-7.163l2.788,7.163H29.248z"/>
	<path fill="#293475" d="M60.115,130.734c-0.742,0.857-1.675,1.287-2.799,1.287h-3.869c-0.565,0-0.957-0.094-1.18-0.286
		c-0.224-0.189-0.335-0.563-0.335-1.122v-12.621c0-1.424,0.751-2.14,2.256-2.14h0.875v-1.197H44.774v1.197h0.578
		c1.591,0,2.386,0.735,2.386,2.199v12.264c0,0.528-0.076,0.946-0.224,1.256c-0.305,0.628-1.073,0.939-2.298,0.939h-0.504v1.197
		h16.26l2.225-5.321h-1.214C61.072,129.564,60.45,130.343,60.115,130.734z"/>
	<polygon fill="#293475" points="63.197,128.386 63.197,128.383 63.196,128.386 	"/>
	<path fill="#293475" d="M80.778,129.674l-2.653-3.412l-0.133-0.178c-1.324-1.688-2.352-2.719-3.083-3.098
		c0.909-0.708,1.794-1.671,2.653-2.888l1.248-1.748c0.425-0.608,0.793-1.072,1.11-1.392c0.445-0.449,0.954-0.748,1.526-0.898
		c0.316-0.087,0.914-0.159,1.794-0.209v-1.197h-8.111v1.197h0.328c1.213,0,1.824,0.342,1.824,1.02c0,0.539-0.385,1.354-1.157,2.452
		c-0.592,0.835-1.19,1.559-1.793,2.167c-1.372,1.387-2.707,2.157-4.002,2.316v-5.505c0-0.927,0.16-1.567,0.481-1.92
		c0.32-0.354,0.933-0.531,1.833-0.531h0.516v-1.198h-9.903v1.198h0.52c0.849,0,1.458,0.176,1.823,0.523s0.551,0.952,0.551,1.808
		v12.042c0,1.522-0.781,2.285-2.343,2.285h-0.551v1.198h9.903v-1.198h-0.429c-1.601,0-2.401-0.742-2.401-2.226v-5.459
		c0.691,0,1.405,0.369,2.135,1.107c0.632,0.639,1.333,1.392,2.105,2.259c1.728,1.943,2.593,3.11,2.593,3.499
		c0,0.549-0.708,0.823-2.12,0.823v1.198h10.347v-1.198c-0.978,0-1.858-0.274-2.636-0.823
		C82.177,131.293,81.52,130.618,80.778,129.674z"/>
	<path fill="#293475" d="M116.21,132.797c-0.845-0.109-1.517-0.265-2.003-0.468c-0.615-0.259-1.221-0.699-1.824-1.316
		c-1.265-1.515-2.191-2.676-2.772-3.485c-0.93-1.284-1.745-2.216-2.445-2.794c2.994-0.816,4.491-2.463,4.491-4.935
		c0-1.348-0.485-2.507-1.453-3.484c-0.771-0.778-1.799-1.327-3.083-1.646c-1.286-0.319-3.06-0.479-5.322-0.479
		c-1.255,0-2.917,0.076-4.981,0.225l-3.914,0.24v1.196h0.637c0.892,0,1.518,0.168,1.878,0.502c0.362,0.337,0.541,0.948,0.541,1.833
		v12.101c0,0.879-0.227,1.479-0.682,1.811c-0.385,0.279-1.036,0.416-1.956,0.416h-0.489v1.198h10.628v-1.198h-0.905
		c-1.601,0-2.401-0.74-2.401-2.227v-4.666v-0.005h2.4c0.611,0.547,1.14,1.109,1.586,1.688l1.75,2.437
		c0.702,0.978,1.329,1.746,1.883,2.305c0.503,0.509,1.037,0.902,1.601,1.182c1.067,0.55,2.78,0.824,5.145,0.824
		c0.809,0,1.438-0.015,1.882-0.043v-0.295h-0.188v-0.915H116.21z M105.402,123.497c-0.91,0.558-2.262,0.834-4.063,0.834h-1.186
		v-8.82h1.586c3.596,0,5.396,1.469,5.396,4.409C107.136,121.608,106.558,122.797,105.402,123.497z"/>
	<path fill="#293475" d="M135.066,129.76l-6.063-15.565h-4.492l0.326,0.897l-5.188,14.607c-0.326,0.93-0.661,1.592-1.007,1.992
		c-0.495,0.548-1.15,0.821-1.972,0.821h-0.458v0.284c0.065,0.01,0.122,0.021,0.188,0.027v0.888h7.86v-1.196h-0.385
		c-1.364,0-2.18-0.17-2.446-0.508c-0.279-0.341-0.262-0.932,0.043-1.779l1.273-3.591h6.641l1.44,3.543
		c0.315,0.788,0.365,1.371,0.148,1.751c-0.228,0.389-0.788,0.581-1.676,0.581h-1.067v1.198h9.871v-1.198
		c-0.84-0.059-1.498-0.333-1.971-0.821C135.778,131.323,135.422,130.679,135.066,129.76z M123.355,124.945l2.549-7.163l2.788,7.163
		H123.355z"/>
	<path fill="#293475" d="M116.21,132.797v0.914h0.188v-0.888C116.334,132.816,116.275,132.806,116.21,132.797z"/>
	<path fill="#293475" d="M156.71,115.493c-1.789-0.817-4.659-1.227-8.612-1.227c-1.146,0-2.531,0.05-4.15,0.149
		c-0.742,0.05-1.167,0.075-1.276,0.075l-1.467,0.06c-0.712,0.03-1.426,0.066-2.149,0.104v1.198c0.791,0,1.384,0.071,1.778,0.207
		c0.692,0.26,1.039,1.086,1.039,2.48v11.829c0,0.887-0.262,1.486-0.786,1.794c-0.385,0.231-1.063,0.346-2.031,0.346v1.198h9.651
		c4.805,0,8.237-1.04,10.304-3.125c1.877-1.893,2.816-4.182,2.816-6.862c0-1.268-0.219-2.454-0.652-3.562
		C160.322,118.025,158.835,116.47,156.71,115.493z M155.524,129.745c-1.455,1.826-3.729,2.736-6.822,2.736
		c-1.136,0-1.86-0.133-2.169-0.395c-0.311-0.264-0.467-0.912-0.467-1.938v-14.297c0.732-0.098,1.521-0.149,2.369-0.149
		c2.957,0,5.159,0.732,6.615,2.199c1.501,1.515,2.253,3.59,2.253,6.22C157.303,126.366,156.71,128.24,155.524,129.745z"/>
	<path fill="#293475" d="M164.108,115.852h0.397c0.822,0,1.399,0.177,1.734,0.531c0.336,0.354,0.504,0.945,0.504,1.773v12.247
		c0,1.405-0.734,2.106-2.207,2.106h-0.43v1.197h9.65v-1.197h-0.445c-0.83,0-1.433-0.164-1.809-0.493
		c-0.376-0.327-0.563-0.908-0.563-1.733v-12.127c0-1.537,0.771-2.305,2.314-2.305h0.505v-1.197h-9.651L164.108,115.852
		L164.108,115.852z"/>
	<path fill="#293475" d="M195.521,116.788c-2.017-1.809-4.618-2.714-7.811-2.714c-3.4,0-6.192,0.984-8.37,2.946
		c-2.18,1.966-3.27,4.457-3.27,7.476c0,1.746,0.439,3.352,1.319,4.815c0.969,1.616,2.371,2.846,4.21,3.693
		c1.66,0.76,3.504,1.139,5.529,1.139c1.751,0,3.336-0.275,4.76-0.824c2.036-0.766,3.646-1.987,4.833-3.663
		c1.216-1.714,1.822-3.664,1.822-5.846C198.545,120.937,197.538,118.598,195.521,116.788z M193.341,128.895
		c-1.008,2.621-2.846,3.93-5.513,3.93c-2.156,0-3.889-0.905-5.203-2.721c-1.345-1.835-2.017-4.197-2.017-7.087
		c0-1.507,0.267-2.844,0.8-4.008c1.087-2.415,2.943-3.619,5.574-3.619c2.193,0,3.933,0.956,5.219,2.871
		c1.215,1.803,1.823,4.021,1.823,6.653C194.022,126.361,193.795,127.688,193.341,128.895z"/>
	<path fill="#D51F26" d="M358.701,40.268l-0.026,0.029c-4.354,5.351-9.323,10.125-14.675,13.88
		c-5.346,3.749-11.129,6.417-16.846,7.37c-2.857,0.492-5.685,0.563-8.449,0.261c-1.413-0.147-2.688-0.39-4.172-0.729l-5.011-1.051
		c-6.698-1.433-13.509-2.963-20.616-4.198c-7.107-1.204-14.548-2.234-22.484-2.009c-3.96,0.116-8.042,0.581-12.125,1.568
		c-4.073,0.978-8.142,2.524-11.923,4.626c-3.784,2.092-7.248,4.756-10.217,7.756c-1.412,1.449-3.044,3.167-4.517,5.277
		c-1.361,2.007-2.438,4.13-3.185,6.31c-1.497,4.358-1.855,8.905-1.037,13.236c0.438,2.162,1.146,4.28,2.262,6.197
		c0.553,0.955,1.217,1.86,1.986,2.656c0.744,0.803,1.616,1.496,2.576,1.987c0.107,0.053,0.229,0.088,0.359,0.09
		c0.457,0.01,0.84-0.356,0.853-0.814l0.001-0.064c0.045-1.934,0.459-3.537,0.972-5.045c0.521-1.496,1.13-2.875,1.835-4.169
		c1.378-2.57,2.968-4.824,4.652-6.623c0.823-0.911,1.683-1.69,2.508-2.367c0.729-0.573,1.681-1.189,2.932-1.955
		c2.367-1.429,4.759-2.565,7.221-3.481c4.904-1.825,10.189-2.898,16.125-3.496c5.918-0.568,12.361-0.573,19.024-0.239
		c6.668,0.314,13.568,0.883,20.615,1.27c1.74,0.097,3.565,0.197,5.305,0.254c1.958,0.09,4.15,0.075,6.202-0.112
		c4.171-0.361,8.263-1.369,12.037-2.899c7.586-3.088,13.738-8.182,18.473-13.898c2.356-2.89,4.469-5.893,6.219-9.076
		c1.766-3.171,3.288-6.415,4.389-9.855c0.091-0.28,0.008-0.597-0.233-0.792C359.417,39.907,358.955,39.956,358.701,40.268z"/>
	<path fill="#D51F26" d="M353.409,62.941l-0.027,0.038c-7.547,9.251-17.21,16.361-27.133,18.917
		c-2.471,0.671-4.963,1.016-7.425,1.157c-1.28,0.072-2.33,0.028-3.907,0.048c-1.302-0.011-2.752-0.026-4.12-0.083
		c-2.776-0.114-5.553-0.326-8.349-0.605c-2.796-0.291-5.613-0.66-8.487-1.05c-5.755-0.793-11.717-1.823-18.418-2.16
		c-3.353-0.14-6.896-0.064-10.596,0.521c-3.682,0.571-7.5,1.69-11.062,3.416c-1.774,0.871-3.486,1.866-5.084,2.985
		c-0.804,0.554-1.574,1.144-2.316,1.756l-1.09,0.93l-0.527,0.479l-0.262,0.239l-0.134,0.12c0.027-0.021-0.338,0.262-0.194,0.156
		l-0.027,0.024l-0.052,0.05l-0.907,0.907c-0.431,0.422-0.901,0.879-1.225,1.261c-0.718,0.783-1.373,1.626-1.982,2.494
		c-1.213,1.743-2.191,3.637-2.887,5.613c-1.425,3.928-1.729,8.228-0.727,12.188c0.498,1.978,1.358,3.863,2.547,5.477
		c1.196,1.601,2.772,2.915,4.539,3.578c0.1,0.035,0.212,0.058,0.325,0.053c0.468-0.018,0.834-0.406,0.819-0.875l-0.003-0.07
		c-0.029-0.857,0.033-1.65,0.116-2.371c0.102-0.731,0.288-1.427,0.476-2.061c0.38-1.276,0.941-2.404,1.516-3.421
		c1.212-2.03,2.634-3.646,4.112-4.953c0.746-0.648,1.49-1.229,2.257-1.735c0.373-0.263,0.76-0.499,1.146-0.726
		c0.212-0.146,0.325-0.16,0.458-0.228c0.044-0.022,0.043-0.018,0.12-0.063l0.243-0.145l0.486-0.289l0.061-0.035l0.03-0.02
		c0.162-0.125-0.187,0.145-0.142,0.112l0.097-0.043l0.192-0.09l0.384-0.182l0.767-0.332l1.522-0.583
		c1.011-0.352,2.003-0.656,3.009-0.898c2.016-0.479,4.062-0.795,6.317-1.01c2.245-0.22,4.707-0.329,7.343-0.384
		c5.289-0.127,11.262,0.082,17.468,0.047c6.21-0.012,12.68-0.289,19.092-1.217c1.623-0.231,3.163-0.474,4.842-0.788
		c1.404-0.281,3.33-0.678,4.994-1.164c3.431-0.96,6.703-2.364,9.752-4.043c6.085-3.414,11.121-8.082,14.986-13.292
		c1.915-2.631,3.631-5.339,5.019-8.189c1.396-2.847,2.567-5.745,3.332-8.819c0.066-0.268-0.021-0.562-0.246-0.75
		C354.13,62.579,353.666,62.627,353.409,62.941z"/>
	<path fill="#D51F26" d="M348.162,91.944l-0.037,0.03c-7.861,5.613-16.33,9.845-24.537,11.631c-2.041,0.461-4.075,0.723-6.05,0.862
		l-6.557,0.319c-4.535,0.155-9.046,0.152-13.603,0.008c-4.562-0.122-9.149-0.464-13.989-0.599
		c-4.848-0.132-9.956-0.135-15.936,1.252c-2.967,0.711-6.229,1.846-9.393,3.805c-0.791,0.479-1.564,1.025-2.305,1.614
		c-0.371,0.296-0.736,0.596-1.092,0.913l-0.527,0.479l-0.6,0.56c-0.117,0.134-0.156,0.2-0.336,0.386
		c-0.188,0.198-0.415,0.429-0.56,0.599c-0.318,0.361-0.629,0.738-0.931,1.127c-0.601,0.778-1.154,1.626-1.637,2.526
		c-1.974,3.573-2.603,8.267-1.121,12.088c0.69,1.905,1.878,3.573,3.364,4.775c1.487,1.18,3.342,1.94,5.154,1.739
		c0.517-0.058,0.894-0.519,0.846-1.036l-0.017-0.147c-0.141-1.585,0.204-2.78,0.657-3.75c0.45-0.961,1.067-1.661,1.643-2.143
		c1.231-0.98,2.283-1.07,3.188-1.305c0.235-0.055,0.457-0.119,0.699-0.19l0.365-0.116c0.076-0.028,0.08,0.009,0.118,0.009
		c0.048-0.009,0.242-0.128,0.355-0.186c0.03-0.022-0.159,0.134-0.074,0.064l0.015-0.002l0.026-0.008l0.05-0.015l0.097-0.027
		l0.193-0.053l0.396-0.09l0.823-0.145c1.128-0.172,2.536-0.31,4.271-0.411c3.474-0.207,7.976-0.307,12.684-0.664
		c4.729-0.302,9.711-0.805,14.705-1.491c4.996-0.693,10.021-1.618,14.951-2.867c1.242-0.314,2.445-0.631,3.719-0.985l1.819-0.541
		c0.686-0.217,1.364-0.445,2.035-0.688c2.681-0.958,5.205-2.201,7.583-3.571c4.738-2.801,8.827-6.265,12.273-10.131
		c3.412-3.906,6.347-8.062,8.383-12.729c0.102-0.232,0.081-0.513-0.077-0.728C348.959,91.784,348.495,91.705,348.162,91.944z"/>
	<path fill="#FFFFFF" d="M290.434,25.485c-1.307,7.181-10.835,6.947-8.788,14.853c2.271,1.005,4.097-1.642,5.995-2.733
		c3.101-1.768,9.949-3.803,11.835-1.058c0.337,0.488,0.533,1.108,0.506,1.928c0.293,1.87-0.302,4.638-1.004,6.042
		c2.446-1.41,4.07-3.298,4.921-6.774c1.509-6.166-0.62-10.811-3.507-14.002c-1.457-1.608-3.102-2.855-4.576-3.726
		c0.124,0.311,0.266,0.625,0.422,0.94c0.787,1.578,1.914,3.207,2.564,4.74c0.261,0.613,0.444,1.21,0.499,1.784
		C296.94,26.235,293.559,25.99,290.434,25.485z"/>
	<path fill="#293576" d="M243.458,47.48c0.569-0.459,1.556-1.72,1.579-2.071c-0.132,0.194-10.627,1.869-10.973,1.976
		c-0.208-0.037,4.898-8.563,5.059-8.478c-0.072,0.187-10.468,1.701-10.437,1.731c3.453-7.024,9.808-11.825,15.317-14.211
		c0.387,0.021-4.54,4.664-5.852,8.698c-0.081-0.12,9.382-1.504,9.635-1.529c0.131,0.081-4.445,7.691-4.487,7.699
		c0.277,0.157,7.202-1.583,10.938-1.438l-4.639,12.1c8.719-3.469,21.541-4.618,31.178-2.687c4.337-3.665,10.4-11.433,16.947-11.131
		c0.709,1.728,0.347,4.485-0.037,7.253c6.657-0.034,10.158-12.34,7.618-18.996c-1.791-4.716-6.447-6.522-8.273-9.497
		c-1.529-2.5-1.188-5.853-2.642-7.996c-2.749-4.042-8.78-6.121-13.177-7.265c-25.025-6.534-42.435,7.626-57.416,22.08
		c-4.683,4.521-9.516,9.125-11.625,15.097c1.656,0.028,3.438-1.422,5.203-2.523c1.732-1.08,3.523-2.805,5.544-3.126
		c-6.89,10.241-14.818,20.792-18.033,36.257c4.787-3.674,9.021-10.503,13.83-12.783c-1.852,6.105-3.288,14.871-3.823,20.895
		c-0.442,5.023-2.012,11.158,0.252,13.907C218.586,63.519,228.636,59.475,243.458,47.48z M299.298,27.479
		c-0.054-0.572-0.236-1.171-0.497-1.782c-0.651-1.534-1.779-3.162-2.565-4.74c-0.157-0.317-0.299-0.631-0.424-0.941
		c1.476,0.872,3.121,2.119,4.579,3.727c2.887,3.191,5.015,7.836,3.507,14.003c-0.85,3.477-2.474,5.364-4.921,6.775
		c0,0,0.001-0.001,0.001-0.002c-0.001,0-0.001,0-0.002,0.001c0.701-1.402,1.298-4.173,1.005-6.045
		c0.027-0.818-0.169-1.439-0.505-1.927c-1.887-2.743-8.733-0.709-11.834,1.059c-1.898,1.09-3.725,3.74-5.996,2.733l0,0h-0.001
		c-2.049-7.909,7.481-7.673,8.788-14.854C293.558,25.988,296.937,26.233,299.298,27.479z M271.491,10.869
		c0.002,0.001,0.412,0.253,1.51,0.253c0.421,0,0.889-0.037,1.398-0.109c0.272-0.04,0.545-0.085,0.819-0.133
		c0.743-0.125,1.514-0.256,2.315-0.256c1.645,0,3.105,0.57,4.597,1.792c3.159,2.599,6.533,4.423,8.812,4.76l0.315,0.047
		l-0.227,0.225c-0.031,0.031-3.226,3.125-8.396,3.125c-0.41,0-0.827-0.02-1.243-0.059l-0.023-0.313
		c0.038-0.011,3.719-0.94,5.457-2.818l-1.962-1.047c-0.216,0.293-0.83,0.996-1.781,0.996c-0.468,0-0.948-0.174-1.432-0.518
		c-0.39-0.278-0.604-0.618-0.64-1.01c-0.048-0.565,0.297-1.076,0.486-1.311l-1.567-1.211c-0.062-0.015-0.219-0.048-0.395-0.048
		c-0.251,0-0.432,0.065-0.529,0.192c-0.56,0.692-2.171,3.162,0.5,5.976l-0.187,0.252c-0.045-0.023-4.625-2.315-3.476-6.392
		c-0.659-0.022-1.979-0.092-2.571-0.32c-0.023,0.438,0.044,1.447,0.918,2.431l-0.213,0.235c-0.108-0.079-2.671-1.959-2.736-4.605
		l-0.01-0.307L271.491,10.869z"/>
	<path fill="#293576" d="M299.981,38.476c0.027-0.819-0.17-1.44-0.506-1.928C299.811,37.036,300.009,37.656,299.981,38.476
		c0.292,1.871-0.305,4.642-1.006,6.044c0.001,0,0.001-0.001,0.002-0.001C299.679,43.114,300.275,40.345,299.981,38.476z"/>
	<path fill="#293576" d="M281.645,40.338C281.645,40.338,281.646,40.338,281.645,40.338c-2.047-7.906,7.481-7.672,8.789-14.853
		c3.125,0.504,6.507,0.75,8.865,1.995c-0.056-0.573-0.238-1.171-0.499-1.784c0.259,0.611,0.443,1.21,0.497,1.782
		c-2.36-1.245-5.739-1.49-8.864-1.995C289.127,32.665,279.595,32.43,281.645,40.338z"/>
	<path fill="#293576" d="M300.388,23.742c-1.456-1.61-3.102-2.856-4.577-3.727c0.125,0.311,0.267,0.625,0.424,0.941
		c-0.157-0.315-0.298-0.629-0.423-0.94C297.289,20.887,298.933,22.134,300.388,23.742z"/>
</g>
</svg>
