<?xml version="1.0" encoding="utf-8"?>
<!-- Generator: Adobe Illustrator 23.0.2, SVG Export Plug-In . SVG Version: 6.00 Build 0)  -->
<svg version="1.1" id="图层_1" xmlns="http://www.w3.org/2000/svg" xmlns:xlink="http://www.w3.org/1999/xlink" x="0px" y="0px"
	 viewBox="0 0 681 265.27" style="enable-background:new 0 0 681 265.27;" xml:space="preserve">
<style type="text/css">
	.st0{fill:#FFFFFF;}
</style>
<g>
	<path class="st0" d="M224.22,11.17l-37.96,7.05c0,0-41.47,24.51-55.94,46.32c-12.5-12.01-29.44-19.62-48.15-20.2
		c7.52-6.66,22.62-19.71,30.43-24.17c11.64-6.65,25.14-15.06,49.4-17.8c24.26-2.74,59.28-2.35,59.28-2.35L224.22,11.17z"/>
	<polygon class="st0" points="357.03,69.08 410.49,69.08 410.49,54.28 357.03,54.28 357.03,19.07 414.44,19.07 414.44,4.26 
		341.24,4.26 341.24,120.73 357.03,120.73 	"/>
	<path class="st0" d="M437.5,52.45h-0.33v-9.7h-14.8v77.97h14.8V81.58c0-17.11,7.9-25,22.37-25c2.3,0,4.77,0.49,7.24,1.15
		l0.66-16.32c-1.97-0.66-4.28-0.99-6.58-0.99C451.15,40.41,441.28,44.23,437.5,52.45z"/>
	<path class="st0" d="M502.39,122.7c12.01,0,21.88-3.67,25.66-11.89h0.33v9.92h15.34c0,0-0.53-5.15-0.53-7.49
		c0-17.62,0-70.48,0-70.48h-16.2v40.14c0,18.09-7.98,25.99-20.32,25.99c-9.38,0-17.77-5.43-17.77-20.07V42.75h-14.8v50.17
		C474.1,113.65,487.26,122.7,502.39,122.7z"/>
	<path class="st0" d="M621.34,122.7c3.01,0,10.04-1.24,13.56-3.21V106c-3.01,1.81-7.2,2.88-10.71,2.88
		c-11.38,0-11.38-9.21-11.38-17.93V55.59h21.59V42.75H612.8V20.88h-15.06v21.88h-17.41v12.83h17.41v40.63
		C597.74,108.72,598.07,122.7,621.34,122.7z"/>
	<path class="st0" d="M383.71,178.67c0-14.64-7.57-32.57-37.34-32.57h-39.33v116.46h15.79v-51.32h15.97l29.61,51.32h19.74
		l-33.06-53.13C372.69,207.46,383.71,193.48,383.71,178.67z M322.83,197.43v-37.5h19.1c12.5,0,25,2.96,25,18.75
		c0,15.79-12.5,18.75-25,18.75H322.83z"/>
	<path class="st0" d="M460.85,208.61c0-13.49-9.54-25.99-32.57-25.99c-12.52,0-23.47,5.32-31.69,13.05l8.88,9.21
		c5.43-4.11,11.62-8.44,22.97-8.44c12.67,0,17.79,6.42,17.79,14.48v2.85h-10.06c-23.69,0-42.93,7.34-42.93,27.41
		c0,15.13,12.5,24.09,26.98,24.09c11.84,0,20.73-3.37,27.31-13.4h0.33c0,3.95,0.16,6.75,0.49,10.69h13.49
		c-0.49-4.11-0.66-8.72-0.66-14.15L460.85,208.61z M445.89,230.78c0,9.88-5.42,21.3-20.91,21.3c-9.6,0-15.8-3.55-15.8-11.89
		c0-11.73,16.11-14.05,29.27-14.05h7.43V230.78z"/>
	<path class="st0" d="M539.32,195.78h-0.33c-5.26-8.06-15.96-13.16-27.14-13.16c-24.02,0-39.64,17.6-39.64,40.96
		c0,23.03,15.46,40.96,39.64,40.96c10.53,0,21.38-4.77,27.14-13.16h0.33v11.19h14.8V138.21h-14.8V195.78z M513.66,250.72
		c-15.79,0-25.66-11.35-25.66-27.14c0-15.79,9.87-27.14,25.66-27.14c15.79,0,25.66,11.35,25.66,27.14
		C539.32,239.37,529.45,250.72,513.66,250.72z"/>
	<path class="st0" d="M577.66,145.76c-5.77,0-10.57,4.81-10.57,10.57c0,5.77,4.81,10.57,10.57,10.57c5.77,0,10.57-4.81,10.57-10.57
		C588.23,150.57,583.43,145.76,577.66,145.76z"/>
	<rect x="570.26" y="184.6" class="st0" width="14.8" height="77.97"/>
	<path class="st0" d="M567.09,3.36c-5.77,0-10.57,4.81-10.57,10.57c0,5.77,4.81,10.57,10.57,10.57c5.77,0,10.57-4.81,10.57-10.57
		C577.66,8.17,572.86,3.36,567.09,3.36z"/>
	<rect x="559.69" y="42.92" class="st0" width="14.8" height="77.97"/>
	<path class="st0" d="M314.44,3.36c-5.77,0-10.57,4.81-10.57,10.57c0,5.77,4.81,10.57,10.57,10.57c5.77,0,10.57-4.81,10.57-10.57
		C325.01,8.17,320.21,3.36,314.44,3.36z"/>
	<rect x="307.04" y="42.92" class="st0" width="14.8" height="77.97"/>
	<path class="st0" d="M639.27,182.62c-23.38-0.03-41.81,18.2-41.84,40.9s18.35,40.98,41.73,41.01
		c23.38,0.03,41.81-18.21,41.84-40.91S662.65,182.65,639.27,182.62z M639.18,250.72c-15.92-0.02-25.85-11.38-25.83-27.18
		c0.02-15.79,9.98-27.13,25.9-27.11c15.92,0.02,25.85,11.38,25.83,27.17C665.06,239.41,655.1,250.74,639.18,250.72z"/>
	<path class="st0" d="M261.39,127.78c0,73.04-58.51,132.26-130.69,132.26S0,200.82,0,127.78H261.39z"/>
	<g>
		<path class="st0" d="M236.48,114.87c0-30.69-25.58-55.57-57.13-55.57c-15.55,0-29.64,6.04-39.94,15.84
			c7.92,11.32,12.55,25,12.55,39.73c0,0.31-0.01,0.61-0.02,0.91h84.51C236.46,115.48,236.48,115.18,236.48,114.87z"/>
		<path class="st0" d="M136.96,114.87c0-30.69-25.58-55.57-57.13-55.57c-31.55,0-57.13,24.88-57.13,55.57
			c0,0.31,0.02,0.61,0.02,0.92h114.21C136.94,115.48,136.96,115.17,136.96,114.87z"/>
	</g>
</g>
</svg>
