<?xml version="1.0" encoding="utf-8"?>
<!-- Generator: Adobe Illustrator 16.0.0, SVG Export Plug-In . SVG Version: 6.00 Build 0)  -->
<!DOCTYPE svg PUBLIC "-//W3C//DTD SVG 1.1//EN" "http://www.w3.org/Graphics/SVG/1.1/DTD/svg11.dtd">
<svg version="1.1" id="Layer_1" xmlns="http://www.w3.org/2000/svg" xmlns:xlink="http://www.w3.org/1999/xlink" x="0px" y="0px"
	 viewBox="0 0 193.061 123.323" enable-background="new 0 0 193.061 123.323"
	 xml:space="preserve">
<g>
	<g>
		<path fill="#FFFFFF" d="M114.596,98.729c0.459,0.069,0.938,0.202,1.317,0.312l0.036,0.007c0.382,0.105,0.778,0.214,1.141,0.269
			c0.168,0.023,0.311,0.035,0.452,0.035h0.046c0.314-0.008,0.696-0.129,1.066-0.246c0.593-0.187,1.272-0.4,2.117-0.373
			c0.093-0.054,0.188-0.116,0.284-0.183c0.355-0.233,0.755-0.498,1.332-0.639l0.097-0.023c0.028-0.008,0.055-0.008,0.082-0.003
			l0.105,0.011c0.218,0.023,0.401,0.047,0.564,0.07c0.557,0.086,0.969,0.191,1.289,0.338c0.688-0.158,1.462-0.182,2.203-0.073
			c0.648,0.096,1.245,0.301,1.757,0.578l0.788-17.982c0.016-0.334-0.136-0.829-0.331-1.098l-3.301-4.543
			c-0.195-0.269-0.631-0.502-0.961-0.518l-28.095-1.227c0.198,0.69,0.723,1.529,1.741,2.177c0.016,0.008,0.026,0.02,0.039,0.026
			l0.112-0.015c0.056-0.004,0.108-0.009,0.159-0.009c0.401,0,0.85,0.156,1.328,0.46c0.472,0.304,0.91,0.713,1.175,1.094
			c0.247,0.113,0.468,0.234,0.679,0.37c0.707,0.451,1.132,0.965,1.505,1.421c0.347,0.424,0.679,0.829,1.247,1.19
			c0.096,0.063,0.198,0.121,0.303,0.176l0.109,0.063c0.056,0.026,0.105,0.074,0.141,0.128l0.062,0.098
			c0.028,0.039,0.071,0.09,0.117,0.144c0.008,0.011,0.017,0.023,0.025,0.034c0.067-0.023,0.14-0.037,0.216-0.034l6.742,0.296
			c0.331,0.013,0.77,0.242,0.978,0.503l0.494,0.627c0.205,0.261,0.357,0.75,0.347,1.082l-0.679,15.479
			C113.782,98.689,114.159,98.668,114.596,98.729z"/>
		<path fill="#FFFFFF" d="M142.937,71.57c0.207,0.261,0.65,0.45,0.982,0.428l13.195-1.024c0.33-0.026,0.735-0.288,0.895-0.579
			l1.623-2.963c0.161-0.292,0.105-0.731-0.116-0.981l-1.996-2.191c-0.227-0.249-0.429-0.724-0.455-1.055l-0.845-10.881
			c-5.882,0.048-10.223,9.519-10.266,9.616c-0.032,0.074-0.118,0.104-0.191,0.077c-0.074-0.027-0.117-0.109-0.089-0.188
			c0.097-0.314,2.421-7.73,4.496-8.278c0.439-0.112,0.739-0.348,0.898-0.689c0.358-0.783-0.109-1.927-0.226-2.184
			c-0.059-0.017-0.171-0.04-0.225-0.051c-0.352-0.074-1.045-0.218-1.127-0.806c-0.026-0.008-0.05-0.02-0.076-0.027
			c-0.904-0.323-2.021-0.72-2.609-2.122l-0.584-1.396l-0.125,0.144c-0.026,0.031-0.057,0.05-0.096,0.055l-0.343,0.042
			c-0.198,0.024-0.394,0.043-0.592,0.067l-0.147,0.015c-1.163,0.121-2.267,0.242-3.57,0.833l1.312,16.891
			c0.022,0.335-0.101,0.833-0.284,1.113l-1.619,2.472c-0.179,0.281-0.159,0.721,0.048,0.98L142.937,71.57z"/>
		<path fill="#FFFFFF" d="M135.171,69.515l3.395-4.509c0.198-0.264,0.35-0.755,0.339-1.089l-0.514-11.697
			c-0.017-0.335-0.3-0.593-0.634-0.581l-13.02,0.573c-0.339,0.302-0.705,0.582-1.119,0.844c-0.013,0.008-0.023,0.013-0.034,0.02
			l0.36,8.28c0.017,0.335-0.128,0.828-0.315,1.105l-0.439,0.635c-0.191,0.272-0.619,0.51-0.95,0.524l-5.925,0.261
			c-0.333,0.017-0.781-0.179-1.003-0.432l-0.527-0.607c-0.218-0.253-0.408-0.732-0.423-1.063l-0.066-1.498
			c-0.382,0.411-0.802,0.803-1.302,1.112c-0.432,0.269-0.882,0.456-1.342,0.553c-0.308,0.472-0.868,0.845-1.172,1.051l-0.093,0.063
			c-0.475,0.33-1.125,0.583-1.651,0.781l-0.136,0.056c-0.179,0.159-0.327,0.326-0.499,0.521l-0.026,0.026
			c-0.289,0.331-0.649,0.744-1.237,1.145c0,0-0.039,0.023-0.039,0.027c-0.316,0.191-0.627,0.292-0.931,0.292
			c-0.227,0-0.401-0.054-0.518-0.09c-0.013-0.004-0.027-0.011-0.043-0.015c-0.422,0.284-0.828,0.604-1.316,0.984l-0.033,0.024
			c-0.554,0.436-1.131,0.887-1.754,1.276c-0.189,0.118-0.369,0.211-0.554,0.31l2.248,2.493c0.222,0.244,0.677,0.437,1.008,0.42
			l29.293-1.288C134.534,70.009,134.969,69.779,135.171,69.515z"/>
		<path fill="#FFFFFF" d="M168.925,46.399c-0.183-0.276-0.219-0.755-0.083-1.063l0.812-1.825c-0.045,0.048-0.113,0.066-0.176,0.038
			l-0.16-0.082c-0.226,0.164-0.463,0.312-0.688,0.46l-0.111,0.069c-0.479,0.304-0.917,0.584-1.276,0.911
			c-0.202,0.188-0.455,0.596-0.696,0.989c-0.14,0.229-0.287,0.463-0.448,0.696c-0.08,0.125-0.162,0.245-0.244,0.361l-0.097,0.142
			c-0.702,1.012-1.207,1.74-1.134,2.619l0.026,0.261c0.006,0.047-0.014,0.094-0.05,0.129l-0.268,0.237
			c-0.722,0.642-1.153,1.343-1.398,2.277l-0.069,0.265c-0.02,0.07-0.09,0.116-0.159,0.112c-0.151-0.017-3.211-0.286-4.843-0.5
			l6.407,11.085c0.168,0.288,0.125,0.728-0.093,0.98l-1.468,1.693c-0.215,0.253-0.224,0.67-0.013,0.931l2.196,2.682
			c0.209,0.261,0.653,0.448,0.983,0.424l13.578-1.055c0.336-0.027,0.739-0.284,0.9-0.575l1.669-2.972
			c0.159-0.291,0.093-0.711-0.151-0.938l-2.267-2.082c-0.24-0.227-0.591-0.639-0.771-0.919L168.925,46.399z"/>
		<path fill="#FFFFFF" d="M169.685,43.44l0.187-0.417c-0.09,0.078-0.166,0.155-0.271,0.234l0.049,0.043
			C169.687,43.34,169.695,43.391,169.685,43.44z"/>
		<path fill="#FFFFFF" d="M134.977,34.928c0,0.961-0.04,1.141-0.245,1.141c-0.052,0-0.091-0.02-0.121-0.043l-0.047,0.093
			c-0.022,0.16-0.059,0.34-0.108,0.558c0,0.101,0.011,0.206,0.02,0.319c0.023,0.284,0.043,0.553,0.016,0.825
			c-0.024,0.28-0.098,0.541-0.16,0.774c-0.05,0.179-0.112,0.413-0.112,0.525c0.012,0.226,0.043,0.443,0.078,0.661
			c0.007,0.062,0.017,0.124,0.025,0.187l2.917-0.127c0.331-0.017,0.592-0.3,0.581-0.635l-0.495-11.183
			c0.066,0.076,0.194,0.221,0.351,0.391l1.999,2.217c0.224,0.248,0.426,0.724,0.452,1.054l1.066,13.738
			c0.026,0.01,0.055,0.017,0.082,0.027c1.203-0.62,2.153-0.686,2.99-0.744l0.086-0.004c0.17-0.016,0.33-0.027,0.493-0.043
			c0.409-0.287,0.802-0.553,1.177-0.786c1.016-0.638,1.739-0.899,2.44-1.148c1.269-0.451,2.362-0.841,4.87-3.418
			c0.897-0.922,0.778-2.616,0.653-4.406c-0.116-1.736-0.241-3.527,0.481-4.947c0.07-0.138,0.163-0.243,0.265-0.332
			c0.026-0.059,0.052-0.119,0.082-0.167l1.636-2.498c0.184-0.276,0.33-0.507,0.323-0.507c0.007,0-0.155-0.218-0.362-0.479
			l-2.052-2.655c-0.205-0.264-0.645-0.455-0.977-0.432l-13.196,1.027c-0.33,0.024-0.739,0.28-0.906,0.568l-1.709,2.959
			c-0.111,0.189-0.202,0.35-0.25,0.442l-0.015-0.318c-0.016-0.33-0.207-0.81-0.429-1.059l-3.787-4.239
			c-0.222-0.249-0.673-0.44-1.009-0.428l-6.809,0.3C128.994,23.717,134.977,27.425,134.977,34.928z"/>
		<path fill="#FFFFFF" d="M161.35,28.123c0.252,0.218,0.357,0.65,0.241,0.962l-5.757,14.882c-0.121,0.308-0.237,0.291-0.266-0.039
			l-0.282-3.63c-0.086,0.078-0.172,0.155-0.263,0.239c-1.518,1.386-2.732,2.449-3.395,2.471c-0.073,0.103-0.175,0.23-0.327,0.358
			l-0.053,0.043c-0.066,0.051-0.122,0.086-0.176,0.121c-0.28,0.175-0.561,0.269-0.841,0.269c-0.16,0-0.293-0.031-0.395-0.063
			c-0.186,0.129-0.366,0.25-0.552,0.366c-0.319,0.198-0.616,0.37-0.966,0.568c-0.277,0.156-0.538,0.3-0.778,0.456
			c-0.241,0.151-0.443,0.292-0.627,0.443l1.444,1.428c0.653,0.659,1.327,1.336,2.148,1.336l0.412-0.004
			c0.036,0,0.079,0.016,0.11,0.047c0.027,0.026,0.043,0.065,0.043,0.108l-0.005,0.34c0.059,0.038,0.086,0.112,0.063,0.182
			c0.039,0.02,0.089,0.039,0.148,0.063c0.233,0.094,0.576,0.234,0.817,0.588l0.653,0.98l0.739-0.431
			c0.479-0.285,1.036-0.433,1.643-0.433c0.37,0,0.676,0.053,0.898,0.106l-0.002-0.036c-0.028-0.331,0.09-0.366,0.258-0.078
			l0.141,0.245c0.222,0.106,0.325,0.265,0.371,0.39c0.165-0.027,0.31-0.023,0.437,0.012c0.137,0.043,0.296,0.132,0.362,0.347
			c0.355,0.026,0.854-0.043,1.328-0.109l0.03-0.004c0.359-0.051,0.763-0.105,1.188-0.137l0.23-0.015
			c0.046-0.004,0.086,0.015,0.116,0.042l0.125,0.129c0.123,0.124,0.287,0.214,0.462,0.312c0.056,0.031,0.118,0.066,0.176,0.101
			c0.596-0.606,0.844-1.327,1.114-2.086c0.143-0.425,0.322-0.942,0.587-1.429c0.218-0.405,0.482-0.778,0.713-1.109
			c0.389-0.542,0.72-1.012,0.821-1.507l0.063-0.28c0.007-0.043,0.03-0.077,0.065-0.098l0.347-0.214
			c3.534-1.436,4.546-4.729,4.559-4.761c0.008-0.031,0.027-0.058,0.05-0.077c0.687-0.529,1.261-1.194,1.732-1.779l0.075-0.09
			c0.076-0.093,0.162-0.194,0.252-0.3c0.313-0.373,0.739-0.883,0.962-1.257c0.097-0.163,0.159-0.354,0.222-0.561
			c0.139-0.46,0.323-1.06,0.97-1.646l0.25-0.228l2.229-5.016c0.136-0.305,0.416-0.768,0.622-1.029l1.916-2.428
			c0.207-0.261,0.207-0.689,0-0.95l-2.099-2.655c-0.207-0.26-0.649-0.455-0.98-0.428l-13.577,1.051
			c-0.332,0.028-0.741,0.285-0.913,0.569l-1.751,2.97c-0.172,0.288-0.101,0.7,0.151,0.914L161.35,28.123z"/>
		<path fill="#FFFFFF" d="M112.532,50.86c-0.043-0.027-0.079-0.055-0.112-0.086c-0.425-0.015-0.854-0.02-1.237-0.022
			c-0.551-0.005-1.049-0.009-1.534-0.035c-0.554-0.031-1.355-0.105-2.056-0.374c-0.071,0.016-0.141,0.027-0.218,0.043
			c-0.395,0.077-0.869,0.171-1.569,0.128c-0.191-0.011-0.393-0.031-0.597-0.058l-0.162-0.036c-0.871-0.221-1.932-0.357-2.951-0.489
			c-1.06-0.136-2.129-0.286-3.123-0.519l0.714,16.229c0.016,0.335,0.211,0.81,0.432,1.06l0.584,0.647
			c1.527-1.186,3.048-2.278,4.17-2.979c0.05-0.039,0.093-0.07,0.139-0.097c0.426-0.266,0.812-0.3,1.138-0.113
			c1.09-1.079,2.125-1.693,3.422-2.468l0.151-0.091c0.343-0.206,0.702-0.42,1.095-0.665l0.112-0.07
			c1.521-1.133,2.19-1.774,3.223-2.892c0-0.005-0.003-0.008-0.007-0.013c-0.036-0.057-0.032-0.131,0.015-0.187l0.024-0.027
			l-0.289-6.584l-0.362-0.024C113.224,51.113,112.832,51.063,112.532,50.86z"/>
		<path fill="#FFFFFF" d="M99.947,47.758c1.016,0.288,1.977,0.561,3.336,0.639c0.227,0.012,0.464,0.02,0.701,0.02h0.237
			c0.047,0.004,0.09,0.012,0.133,0.026l0.198,0.074c0.096,0.036,0.229,0.07,0.369,0.109l0.036,0.013
			c0.303,0.081,0.614,0.17,0.895,0.299c0.182,0.008,0.307-0.019,0.53-0.066c0.271-0.063,0.641-0.151,1.175-0.151l0.207,0.004
			c0.03,0,0.064,0.003,0.097,0.011l0.164,0.048c0.948,0.257,2.096,0.338,3.194,0.4l1.188,0.066c0.5,0.028,0.961,0.063,1.407,0.103
			l-0.777-17.612c-0.011-0.33,0.142-0.821,0.34-1.09l0.459-0.607c0.198-0.268,0.636-0.498,0.97-0.514l5.924-0.262
			c0.333-0.01,0.782,0.185,1,0.434l0.476,0.556c0.214,0.253,0.405,0.729,0.421,1.063l0.377,8.537c0.013,0.335,0.3,0.596,0.63,0.581
			l8.845-0.387c-0.038-0.229-0.068-0.456-0.061-0.681c0.02-0.635,0.201-1.292,0.376-1.927l0.017-0.059
			c0.046-0.164,0.089-0.322,0.132-0.482c0.004-0.133,0.011-0.254,0.036-0.369c0.018-0.109,0.054-0.234,0.112-0.386
			c-0.004-0.004,0-0.036,0-0.063c0.02-0.308-0.066-0.607-0.157-0.923c-0.084-0.3-0.189-0.669-0.189-1.086
			c0-0.195,0.015-0.26,0.04-0.358c0.022-0.101,0.061-0.257,0.096-0.848c0.327-5.413-5.833-9.154-8.904-10.676l-21.187,0.933
			c-0.33,0.015-0.766,0.244-0.964,0.513l-3.398,4.559c-0.2,0.269-0.352,0.759-0.339,1.094l0.8,18.183
			C99.25,47.565,99.604,47.661,99.947,47.758z"/>
		<path fill="#FFFFFF" d="M178.127,87.027c0.073,0.065,0.172,0.18,0.226,0.343c0.043-0.012,0.089-0.02,0.136-0.031
			c0.409-0.093,0.856-0.19,1.352-0.211c0.782-0.424,1.534-0.782,2.2-1.101c0.93-0.44,1.809-0.857,2.764-1.43
			c0.14-0.187,0.291-0.366,0.436-0.54l0.027-0.032c0.05-0.062,0.096-0.123,0.147-0.182l-1.024-0.343
			c-1.568-0.53-1.782-1.963-1.922-2.908c-0.031-0.206-0.071-0.439-0.114-0.631l-0.218-0.729l-0.039-0.062
			c-0.05-0.082-0.069-0.176-0.054-0.269c-0.168-0.639-0.214-1.355,0.409-2.251l0.136-0.754c0.036-0.172,0.179-0.304,0.358-0.312
			c0.14-0.004,0.265,0.058,0.334,0.168l1.827-2.054l-25.961-1.411c-0.336-0.021-0.791,0.167-1.017,0.412l-3.826,4.204
			c-0.225,0.245-0.425,0.72-0.441,1.051l-1.294,23.769c0.198,0.163,0.391,0.33,0.575,0.507l0.16,0.155
			c0.265-0.311,0.58-0.603,1.011-0.848c0.332-0.191,0.698-0.358,1.009-0.491c0.61-0.992,2.597-2.608,3.668-3.227
			c0.186-0.109,0.366-0.199,0.521-0.269c0.623-0.27,1.225-0.304,1.755-0.332c0.42-0.021,0.802-0.046,1.105-0.171
			c0.396-0.163,0.798-0.424,1.138-0.657c0.201-0.145,0.427-0.297,0.673-0.44c0.3-0.171,0.591-0.3,0.884-0.386
			c0.007-0.019,0.016-0.038,0.023-0.059c0.116-0.299,0.314-0.802,0.95-1.233l0.317-0.219c0.095-0.062,0.207-0.081,0.316-0.053
			l0.311,0.085c0.082,0.02,0.082,0.054,0.305-0.077c0.166-0.097,0.37-0.256,0.572-0.421l0.639-11.725
			c0.018-0.332,0.218-0.807,0.443-1.048l0.514-0.564c0.226-0.245,0.681-0.432,1.017-0.417l5.921,0.323
			c0.33,0.021,0.763,0.258,0.953,0.53l0.416,0.599c0.195,0.273,0.336,0.767,0.316,1.099l-0.245,4.472
			C177.961,86.907,178.062,86.968,178.127,87.027z"/>
		<path fill="#FFFFFF" d="M91.033,99.57c0.043,0.088,0.047,0.097,0.093,0.128c0.093,0.063,0.39,0.132,0.604,0.183
			c0.34,0.082,0.683,0.16,0.997,0.315c0.229,0.112,0.373,0.27,0.479,0.382c0.031,0.031,0.059,0.062,0.082,0.082
			c0.293,0.104,0.739,0.198,1.168,0.291c0.548,0.117,1.102,0.241,1.55,0.404c0.291,0.11,0.494,0.228,0.66,0.328
			c0.047,0.027,0.142,0.081,0.172,0.089c0.098-0.003,0.19-0.097,0.358-0.304c0.07-0.085,0.148-0.175,0.237-0.261l0.155-0.144
			c0.047-0.046,0.116-0.07,0.183-0.059l0.257,0.031c0.954,0.12,1.541-0.136,2.15-0.576l0.166-0.12
			c0.046-0.036,0.108-0.047,0.171-0.039l0.241,0.039c0.375,0.069,0.518-0.004,0.877-0.254c0.105-0.073,0.198-0.14,0.3-0.198
			l0.191-0.117c0.054-0.034,0.119-0.042,0.182-0.027l0.254,0.078c0.462,0.133,0.802,0.362,1.102,0.564
			c0.146,0.101,0.276,0.187,0.403,0.256l0.802-18.297c-0.013-0.008-0.024-0.012-0.037-0.021c-0.095-0.059-0.188-0.128-0.276-0.207
			l-0.036-0.027c-0.007-0.007-0.018-0.019-0.026-0.026l-0.023-0.027c-0.308-0.35-0.72-0.678-1.155-1.021
			c-0.722-0.572-1.461-1.159-1.886-1.935c-0.162-0.073-0.314-0.159-0.466-0.256c-0.441-0.281-0.769-0.601-1.082-0.904
			c-0.277-0.271-0.53-0.518-0.831-0.708c-0.1-0.063-0.201-0.12-0.311-0.167l-0.194,0.022c-0.416,0.056-0.849-0.051-1.25-0.307
			c-0.409-0.257-0.703-0.619-0.993-0.965l0.273-0.271l-0.293,0.242c-0.175-0.206-0.356-0.424-0.492-0.525l-0.165-0.112
			c-0.089-0.07-0.151-0.176-0.155-0.285l-0.012-0.163c-0.008-0.104-0.094-0.272-0.163-0.425c-0.114-0.234-0.246-0.544-0.282-0.887
			l-3.653-0.159c-0.332-0.017-0.768,0.19-0.97,0.454l-2.052,2.734c-0.198,0.264-0.207,0.703-0.016,0.976l1.718,2.445
			c0.194,0.272,0.338,0.767,0.321,1.101l-0.207,4.738c0,0.004,0.005,0.005,0.005,0.008l0.726,4.831
			c0.194,0.198,0.284,0.444,0.248,0.693c-0.034,0.256-0.191,0.501-0.455,0.719c-0.918,2.063-0.338,4.139,0.082,5.66
			c0.248,0.892,0.425,1.515,0.233,1.907C91.009,99.511,91.02,99.542,91.033,99.57z"/>
		<path fill="#FFFFFF" d="M188.484,73.894c-2.68,0.988-4.07,3.793-4.335,4.593c0.261,0.499,0.433,1.031,0.518,1.62
			c0.079,0.536,0.679,0.93,1.375,1.382c1.03,0.673,2.309,1.503,2.23,3.242c0.159,0.047,0.362,0.09,0.561,0.137
			c0.677,0.144,1.597,0.339,2.233,1.005c0.37,0.385,0.538,0.782,0.687,1.136c0.085,0.206,0.076,0.405,0.063,0.615
			c-0.027,0.421-0.058,0.995,0.727,1.995l0.518-9.527c0.02-0.331-0.127-0.825-0.323-1.095l-3.352-4.593
			C189.197,74.151,188.806,73.933,188.484,73.894z"/>
		<path fill="#FFFFFF" d="M139.18,106.954c0.224-0.07,0.452-0.156,0.689-0.241l0.164-0.059c0.888-0.331,1.88-0.697,2.804-0.697
			c0.399,0,0.762,0.07,1.076,0.215c0.191-0.124,0.386-0.241,0.584-0.354c1.479-0.853,2.702-1.236,3.761-1.184l-0.155-4.219
			c-0.284-0.225-0.586-0.504-0.818-0.843c-0.046-0.016-0.089-0.027-0.136-0.038c-0.303-0.09-0.692-0.207-1.16-0.53
			c-0.132-0.086-0.261-0.187-0.386-0.295l-0.1-0.098c-0.472-0.533-1.114-1.063-1.736-1.577c-1.064-0.88-2.153-1.782-2.772-2.88
			c-0.252-0.133-0.489-0.276-0.728-0.44c-0.623-0.428-1.094-0.892-1.553-1.344c-0.422-0.411-0.806-0.789-1.267-1.108
			c-0.179-0.121-0.36-0.229-0.555-0.327l-0.405,0.009c-0.534,0-1.066-0.18-1.584-0.534c-0.561-0.385-0.989-0.896-1.405-1.39
			l0.229-0.257l-0.261,0.218c-0.086-0.102-0.17-0.201-0.252-0.296l0.664,18.067c0.616,0.278,1.491,0.521,2.694,0.521
			C137.375,107.273,138.25,107.168,139.18,106.954z"/>
		<path fill="#FFFFFF" d="M58.385,44.547c0.821-0.713,1.6-1.386,1.914-2.095c-0.265-0.198-0.568-0.358-0.888-0.526
			c-0.475-0.252-0.993-0.524-1.436-0.948l-0.086-0.083c-0.086-0.081-0.129-0.198-0.121-0.314l0.013-0.129
			c0.003-0.015,0-0.051-0.004-0.089c-0.004-0.086-0.013-0.215,0.007-0.366c-0.233-0.246-0.343-0.548-0.42-0.767
			c-0.028-0.081-0.065-0.182-0.102-0.26l-0.427,7.057C57.301,45.498,57.845,45.011,58.385,44.547z"/>
		<path fill="#FFFFFF" d="M57.323,62.188c0.151,0.09,0.294,0.176,0.438,0.266c0.23-0.07,0.564-0.059,0.818,0.09l0.237,0.136
			c0.179,0.105,0.241,0.339,0.14,0.521l-0.152,0.257c-0.026,0.058-0.023,0.257-0.02,0.374c0.009,0.229,0.013,0.518-0.082,0.82
			c0.129,0.048,0.289,0.113,0.434,0.223c0.011-0.004,0.019-0.007,0.027-0.016c0.186-0.094,0.427-0.214,0.709-0.183
			c0.05,0.005,0.096,0.007,0.143,0.007c1.425,0,3.11-2.312,3.641-3.203c0.097-0.163,0.295-0.229,0.466-0.163
			c0.176,0.069,0.277,0.253,0.238,0.436c-0.03,0.145-0.779,3.52-4.816,4.851c-0.043,0.133-0.069,0.261-0.097,0.405
			c-0.026,0.129-0.055,0.26-0.089,0.396c0.179,0.098,0.439,0.242,0.634,0.518l0.063,0.086c0.059,0.082,0.086,0.187,0.066,0.284
			l-0.02,0.113c-0.02,0.124-0.043,0.241-0.07,0.354c0,0.013-0.003,0.023-0.003,0.032c0.242,0.319,0.319,0.647,0.315,0.965
			c0.011,0.002,0.023,0.006,0.034,0.007l29.265,1.768c0.336,0.023,0.791-0.158,1.021-0.404l3.844-4.131
			c0.228-0.241,0.429-0.711,0.448-1.047l1.038-17.125c-0.913-0.06-1.709-0.214-2.477-0.364c-0.732-0.148-1.411-0.28-2.127-0.323
			c-0.295-0.016-0.584-0.016-0.871,0l-0.386,0.19c-0.571,0.284-1.265,0.408-2.068,0.357c-0.848-0.05-1.646-0.272-2.421-0.485
			l0.056-0.386l-0.105,0.369c-0.541-0.151-1.056-0.295-1.439-0.331l-0.379-0.034c-0.093-0.009-0.179-0.052-0.241-0.116l-0.175-0.18
			c-0.145-0.148-0.471-0.307-0.762-0.451c-0.424-0.207-0.943-0.462-1.304-0.836l-0.943,15.612c-0.02,0.331-0.214,0.81-0.432,1.063
			l-0.504,0.583c-0.218,0.253-0.668,0.443-1,0.425l-5.921-0.359c-0.33-0.019-0.759-0.256-0.95-0.532l-0.462-0.658
			c-0.191-0.276-0.331-0.771-0.311-1.102l1.317-21.831l-0.275,0.005c-0.042,0.016-0.089,0.03-0.132,0.043
			c-0.287,0.33-0.636,0.615-0.973,0.892c-0.736,0.595-0.989,0.855-0.931,1.14l0.057,0.276c0.036,0.172-0.053,0.347-0.212,0.421
			l-0.343,0.163c-0.806,0.383-1.577,0.49-2.196,0.572c-0.476,0.066-0.927,0.129-1.336,0.3c-0.182,0.082-0.354,0.179-0.521,0.3
			l-0.201,0.151c-0.083,0.063-0.188,0.086-0.288,0.07l-0.23-0.039c-0.393-0.065-1.798-0.023-2.557,0.175
			c-0.129,0.036-0.234,0.071-0.327,0.109c-0.261,0.113-0.395,0.257-0.662,0.546c-0.039,0.042-0.082,0.112-0.121,0.176
			c-0.109,0.166-0.237,0.373-0.433,0.536c-0.104,0.086-0.218,0.152-0.35,0.21c-0.105,0.043-0.205,0.074-0.291,0.101
			c0,0-0.009,0-0.017,0.005c-0.182,0.201-0.343,0.439-0.498,0.674c-0.159,0.237-0.319,0.475-0.511,0.692
			c0.063,0.649-0.171,1.114-0.341,1.459c-0.177,0.352-0.224,0.44-0.059,0.74l0.369,0.674c0.066,0.128,0.063,0.28-0.02,0.396
			c-0.078,0.116-0.218,0.184-0.362,0.164l-0.657-0.074c-0.013,0.039-0.026,0.086-0.043,0.133c-0.112,0.33-0.273,0.802-0.798,1.19
			l0.063,0.098c0.108,0.175,0.063,0.405-0.105,0.519l-0.323,0.221c-0.007,0.005-0.013,0.009-0.02,0.014l-0.506,8.379
			C56.138,61.447,56.66,61.786,57.323,62.188z"/>
		<path fill="#FFFFFF" d="M54.881,68.606l1.436-2.614c-0.013-0.047-0.021-0.096-0.014-0.145l0.053-0.39
			c0.004-0.047-0.007-0.19-0.016-0.276c-0.015-0.202-0.034-0.46,0.009-0.712l-0.145,0.043c-0.129,0.039-0.268,0.008-0.369-0.082
			l-0.159-0.145c-0.118-0.105-0.286-0.218-0.461-0.346c-0.607-0.421-1.502-1.048-1.785-2.212c-0.924-0.365-1.095-1.132-1.224-1.705
			c-0.077-0.358-0.155-0.693-0.377-0.949l-0.211-0.254c-0.069-0.081-0.102-0.187-0.089-0.295c0.017-0.105,0.073-0.203,0.159-0.261
			l0.354-0.249c0.098-0.066,0.194-0.125,0.296-0.172c-0.063-0.183-0.128-0.299-0.162-0.342l-0.099-0.044
			c-0.104-0.043-0.186-0.132-0.218-0.244l-0.035-0.121c-0.109-0.374,0.013-0.693,0.105-0.892c-0.187,0-0.538,0.137-0.941,0.297
			c-0.369,0.146-0.768,0.307-1.211,0.427c-0.145,0.04-0.3,0.086-0.46,0.133l-0.107,0.035c-0.297,0.09-0.632,0.19-0.993,0.28
			c-0.319,0.082-0.643,0.121-0.981,0.121c-0.261,0-0.495-0.024-0.728-0.043c-0.487-0.047-0.873-0.063-1.285,0.035l-0.354,0.085
			c-0.181,0.039-0.366-0.055-0.436-0.226l-0.161-0.374c-0.307-0.012-0.689,0.121-1.296,0.343c-0.058,0.02-0.12,0.043-0.183,0.066
			L42.7,57.412l-0.304,0.241c-0.112,0.09-0.264,0.108-0.393,0.051c-0.128-0.06-0.214-0.188-0.225-0.331l-0.004-0.137
			c-0.223-0.136-0.438-0.295-0.646-0.479c-0.032-0.012-0.063-0.02-0.098-0.027l-0.036,0.012c-0.097,0.027-0.198,0.016-0.287-0.027
			l-0.073-0.039c-0.109-0.004-0.227-0.004-0.343-0.008c-0.308-0.004-0.634-0.012-0.989-0.063c-0.357-0.055-0.627-0.198-0.825-0.304
			c-0.109-0.058-0.241-0.127-0.304-0.132h-0.078c-0.045,0-0.104,0.008-0.155,0.013l0.397,6.371c0.019,0.331-0.121,0.826-0.315,1.098
			l-1.607,2.27c-0.194,0.272-0.188,0.713,0.015,0.978l2.067,2.737c0.202,0.268,0.634,0.467,0.97,0.447l14.516-0.907
			C54.317,69.156,54.717,68.899,54.881,68.606z"/>
		<path fill="#FFFFFF" d="M67.434,100.628c0.082,0.09,0.152,0.175,0.23,0.249c0.039,0.017,0.073,0.024,0.112,0.04l0.114,0.003
			c0.061,0,0.12,0.028,0.159,0.069c0.011,0.013,0.02,0.024,0.026,0.036c0.989,0.397,1.593,0.962,2.177,1.511
			c0.452,0.421,0.864,0.806,1.425,1.086c0.127,0.012,0.258,0.031,0.39,0.051c1.319,0.194,2.907,0.697,3.985,1.262
			c1.063-0.114,1.756-0.406,2.164-0.912l0.103-0.129c0.039-0.05,0.093-0.077,0.155-0.084l0.201-0.02
			c1.403-0.14,2.395-0.715,3.364-1.382l-5.1-21.263c-0.078-0.323,0.016-0.813,0.207-1.086l1.723-2.438
			c0.195-0.275,0.191-0.716-0.007-0.984l-2.001-2.729c-0.198-0.269-0.631-0.479-0.965-0.464l-25.843,1.071
			c-0.336,0.015-0.745,0.261-0.92,0.545l-1.725,2.877c-0.172,0.287-0.136,0.731,0.075,0.988l1.874,2.284
			c0.211,0.258,0.344,0.736,0.293,1.067l-1.688,11.218c0.087,0.009,0.177,0.024,0.264,0.024c0.409,0,0.81-0.082,1.188-0.245
			l0.023-0.078c0.155-0.548,0.577-0.981,1.211-1.262c0.514-0.225,1.128-0.326,1.646-0.268c0.211-0.145,0.422-0.266,0.644-0.358
			c0.637-0.284,1.221-0.319,1.662-0.319c0.175,0,0.347,0.007,0.518,0.012c0.159,0.007,0.32,0.015,0.476,0.015
			c0.354,0,0.742-0.026,1.19-0.225c0.093-0.039,0.191-0.09,0.288-0.148l0.108-0.063c0.099-0.054,0.211-0.073,0.319-0.054
			l0.125,0.023c0.043,0.008,0.105,0.008,0.176,0.008c0.139,0.007,0.291,0.007,0.446,0.034c0.009-0.003,0.013-0.012,0.016-0.02
			c0.109-0.159,0.273-0.4,0.588-0.584l0.086-0.05c0.074-0.043,0.16-0.067,0.242-0.059h0.123c0.416,0,0.861-0.161,1.286-0.342
			l1.198-7.98c0.05-0.331,0.362-0.611,0.696-0.628l2.075-0.085c0.332-0.016,0.666,0.24,0.735,0.563l3.925,17.604
			c0.073,0.327-0.142,0.604-0.472,0.619l-0.639,0.026c-0.027,0.041-0.064,0.077-0.116,0.094c-0.818,0.262-1.043,0.425-1.102,0.487
			c0.046,0.042,0.155,0.108,0.221,0.147C67.233,100.461,67.358,100.535,67.434,100.628z"/>
		<path fill="#FFFFFF" d="M191.109,108.344c-0.778,0-2.3,0.206-3.76,1.608c-0.04,0.034-0.073,0.064-0.105,0.097l-0.015,0.253
			c-0.043,0.592-0.395,1.214-1.009,1.803c-0.577,0.544-1.296,0.992-1.91,1.187c-0.238,0.314-0.48,0.593-0.741,0.841
			c-0.832,0.795-1.693,1.172-2.448,1.503c-0.735,0.323-1.432,0.627-2.145,1.309c-0.116,0.112-0.234,0.233-0.35,0.366l-0.118,0.131
			c-0.038,0.043-0.084,0.074-0.14,0.09l-0.16,0.052c-0.07,0.021-0.163,0.062-0.261,0.104l-0.03,0.016
			c-0.211,0.093-0.436,0.194-0.686,0.249c-0.058,0.062-0.086,0.132-0.144,0.287c-0.078,0.198-0.198,0.511-0.479,0.83l-0.095,0.101
			c-0.022,0.032-0.059,0.059-0.096,0.075l-0.118,0.054c-0.67,0.308-1.291,0.876-1.875,1.429l-0.632,0.611
			c-0.129,0.124-0.247,0.221-0.372,0.336l12.366,0.673c0.33,0.019,0.785-0.168,1.012-0.413l3.823-4.153
			c0.225-0.246,0.423-0.717,0.442-1.048l0.454-8.351C191.382,108.369,191.252,108.344,191.109,108.344z"/>
		<path fill="#FFFFFF" d="M3.533,113.003c0.039-0.004,0.078-0.012,0.155-0.034l0.036-0.012c0.104-0.028,0.237-0.063,0.403-0.074
			l0.082-0.007c0.046-0.009,0.093-0.005,0.141,0.011l0.09,0.023c0.343,0.097,0.58,0.237,0.77,0.351
			c0.032,0.022,0.059,0.038,0.082,0.051c0.289-0.013,0.659-0.039,0.795-0.125l0.121-0.082c0.077-0.055,0.175-0.073,0.268-0.059
			l0.175,0.028c0.142,0.022,0.271,0.065,0.383,0.131c0.237-0.043,0.466-0.05,0.677-0.058c0.18-0.008,0.33-0.012,0.436-0.035
			c0.28-0.059,0.564-0.159,0.86-0.269c0.316-0.117,0.683-0.253,1.114-0.362c0.116-0.031,0.248-0.07,0.39-0.113
			c0.271-0.085,0.535-0.163,0.782-0.206c0.396-0.065,0.805-0.074,1.164-0.077c0.571-0.009,1.063-0.012,1.276-0.234l0.112-0.116
			c0.082-0.085,0.191-0.128,0.308-0.116l0.354,0.034c0.23,0.023,0.405,0.02,0.409,0.02l0.125-0.159
			c0.093-0.109,0.233-0.156,0.373-0.125l0.253,0.055c0.465,0.102,0.748,0.311,0.935,0.447c0.028,0.023,0.055,0.04,0.078,0.06
			c0.109-0.006,0.227-0.014,0.343-0.021l0.304-8.462c-0.086-0.021-0.164-0.065-0.218-0.137c-0.059-0.082-0.086-0.184-0.069-0.284
			l0.003-0.039c-0.032-0.05-0.059-0.093-0.075-0.136c-0.178-0.06-0.322-0.145-0.393-0.188l-0.211-0.109
			c-0.063-0.03-0.108-0.077-0.143-0.136c-0.923-0.214-1.358-0.88-1.686-1.377c-0.237-0.358-0.438-0.663-0.735-0.796L13.65,100.2
			c-0.095-0.043-0.168-0.12-0.202-0.218l-0.042-0.121c-0.161-0.459-0.538-0.852-0.937-1.272l-0.03-0.035
			c-0.214-0.226-0.432-0.456-0.63-0.712l-0.079-0.094c-0.073-0.102-0.102-0.229-0.063-0.351l0.023-0.074
			c-0.023-0.039-0.063-0.104-0.086-0.144c-0.037-0.063-0.089-0.145-0.136-0.238c-0.093-0.034-0.167-0.073-0.229-0.104
			c-0.094-0.046-0.109-0.051-0.133-0.054l-0.455-0.086c-0.123-0.023-0.229-0.105-0.28-0.219c-0.054-0.112-0.047-0.245,0.016-0.351
			l0.188-0.307c0.011-0.024,0.027-0.047,0.043-0.069c-0.296-0.165-0.546-0.301-0.936-0.448l-0.175-0.067
			c-0.105-0.043-0.189-0.131-0.225-0.241L9.24,94.859c-0.161-0.511-0.511-0.965-1.102-1.433l-0.172-0.132
			c-0.145-0.113-0.188-0.308-0.105-0.467l0.079-0.164c0.03-0.065,0.033-0.101,0.046-0.19c0-0.02,0.004-0.039,0.004-0.055
			c-0.09,0.031-0.191,0.077-0.261,0.112c-0.226,0.102-0.463,0.211-0.735,0.254l-0.215,0.03c-0.057,0.013-0.116,0.004-0.175-0.011
			c-0.132,0.003-0.265-0.06-0.343-0.18l-0.073-0.117c-0.152-0.089-0.343-0.151-0.584-0.187c-0.168-0.023-0.362-0.038-0.588-0.038
			c-0.378,0-0.774,0.035-1.098,0.062l-0.495,0.043c-0.053,0.004-0.106-0.007-0.155-0.023l-0.739,20.571
			C2.86,112.936,3.197,112.95,3.533,113.003z"/>
		<path fill="#FFFFFF" d="M93.091,24.013c-0.125,0-0.25-0.008-0.365-0.02c-0.188-0.012-0.366-0.02-0.472,0.007
			c-0.082,0.023-0.159,0.052-0.237,0.086c-0.467,0.199-0.875,0.573-1.265,0.932l-0.347,0.311c-0.052,0.043-0.108,0.074-0.175,0.086
			l-0.293,0.065c-0.399,0.086-0.748,0.16-1.012,0.273c-0.176,0.074-0.295,0.155-0.396,0.276c-0.05,0.058-0.129,0.25-0.175,0.377
			c-0.109,0.3-0.25,0.666-0.558,1c-0.284,0.309-0.65,0.511-0.974,0.689c-0.147,0.081-0.354,0.191-0.451,0.276
			c-0.261,0.227-0.393,0.425-0.545,0.654c0,0.004-0.016,0.027-0.016,0.032c-0.105,0.15-0.222,0.323-0.381,0.505l-0.078,0.098
			c-0.039,0.043-0.086,0.082-0.14,0.101l-0.128,0.056c-0.636,0.28-1.228,0.481-1.801,0.677c-0.442,0.155-0.848,0.296-1.201,0.448
			c-0.034,0.014-0.063,0.028-0.095,0.043c0.116,0.269,0.191,0.604,0.177,0.848l-0.714,11.795l1.387,1.336
			c0.879,0.855,2.873,1.825,5.816,1.991c0.085,0.009,0.171,0.013,0.251,0.017l0.29-0.141c0.591-0.284,1.468-0.397,2.596-0.33
			c1.063,0.058,2.168,0.268,2.92,0.545c0.479-0.021,0.938-0.014,1.389,0.007l1.056-17.428c0.02-0.334-0.125-0.824-0.319-1.097
			l-3.289-4.563C93.406,23.995,93.256,24.013,93.091,24.013z"/>
		<path fill="#FFFFFF" d="M72.527,121.727c0.143-0.214,0.36-0.541,0.314-0.666l-0.248-0.681c-0.03-0.082-0.013-0.175,0.05-0.237
			c0.063-0.062,0.155-0.086,0.237-0.054l0.309,0.108c-0.071-0.432,0.027-0.81,0.127-1.203l0.013-0.047
			c0.03-0.112,0.063-0.232,0.089-0.361l0.036-0.164c0.015-0.078,0.073-0.141,0.148-0.167l0.192-0.07
			c0.184-0.063,0.362-0.159,0.554-0.296c-0.023-0.112-0.034-0.214-0.043-0.307c-0.007-0.06-0.016-0.146-0.026-0.203l-0.383-0.16
			c-0.065-0.022-0.115-0.081-0.132-0.152c-0.02-0.069,0-0.143,0.043-0.198l0.254-0.307c0.037-0.052,0.1-0.172,0.151-0.272
			c0.12-0.241,0.284-0.561,0.561-0.768c-0.048-0.011-0.095-0.026-0.151-0.042l-0.277-0.074c-0.078-0.02-0.136-0.073-0.158-0.155
			l-0.063-0.207c-0.047-0.163-0.133-0.357-0.224-0.563c-0.314-0.721-0.739-1.694-0.343-2.822c-0.614-0.764-0.373-1.469-0.179-2.041
			c0.129-0.373,0.246-0.716,0.188-1.101l-0.052-0.327c-0.011-0.063,0.009-0.129,0.048-0.18c0.04-0.05,0.097-0.077,0.163-0.082
			l0.436-0.026c0.168-0.009,0.316,0.003,0.457,0.031c0.097-0.343,0.093-0.576,0.064-0.635l-0.077-0.109
			c-0.039-0.058-0.05-0.129-0.035-0.194l0.035-0.122c0.097-0.364,0.386-0.556,0.554-0.665c0.03-0.019,0.069-0.043,0.09-0.062
			c-0.095-0.211-0.327-0.288-1.177-0.433c-0.4-0.065-0.822-0.14-1.258-0.268c-0.145-0.043-0.294-0.083-0.459-0.125l-0.125-0.031
			c-0.303-0.078-0.649-0.167-1-0.28c-0.658-0.207-1.071-0.518-1.467-0.813c-0.374-0.28-0.683-0.514-1.176-0.677l-0.352-0.113
			c-0.104-0.036-0.17-0.141-0.155-0.25l0.075-0.502c-0.289-0.233-0.709-0.327-1.441-0.479l-0.313-0.062l-0.415,0.05
			c-0.089,0.008-0.166-0.027-0.218-0.101c-0.046-0.07-0.05-0.16-0.011-0.233l0.109-0.199c-0.136-0.257-0.25-0.529-0.343-0.829
			c-0.036-0.051-0.079-0.097-0.133-0.152l-0.078-0.016c-0.059-0.015-0.105-0.05-0.136-0.104l-0.063-0.098
			c-0.102-0.07-0.211-0.14-0.327-0.214c-0.184-0.115-0.38-0.248-0.576-0.396l-4.593,0.19c-0.332,0.015-0.564-0.245-0.515-0.576
			l1.159-7.729c-0.166,0.035-0.347,0.059-0.535,0.045c-0.156,0.199-0.366,0.444-0.743,0.607c-0.121,0.051-0.246,0.094-0.371,0.121
			l-0.054,0.008c-0.02,0.008-0.043,0.008-0.066,0.008l-0.039,0.003c-0.463,0.004-0.966,0.137-1.491,0.276
			c-0.627,0.168-1.273,0.344-1.95,0.344c-0.296,0-0.573-0.036-0.837-0.102c-0.136,0.089-0.277,0.163-0.429,0.23
			c-0.505,0.221-1.004,0.279-1.442,0.333c-0.398,0.043-0.726,0.086-1.017,0.215c-0.082,0.034-0.157,0.074-0.23,0.125l-0.053,0.198
			c-0.146,0.537-0.478,0.93-0.959,1.145c-0.377,0.163-0.786,0.187-1.099,0.187c-0.132,0-0.268-0.004-0.399-0.008l-0.021-0.467
			l-0.016,0.467c-0.295-0.012-0.571-0.009-0.673,0.027l-0.181,0.061l-3.043,20.212c-0.05,0.332-0.253,0.818-0.455,1.083l-1.341,1.77
			l-1.474-1.965c-0.198-0.269-0.355-0.759-0.339-1.094l0.191-5.337l-0.709-0.505c-0.222-0.16-0.849-0.534-1.884-0.534
			c-0.416,0-0.845,0.063-1.273,0.187c-0.017,0.005-0.03,0.008-0.047,0.016l-0.063,0.093c-0.253,0.355-0.708,0.64-1.323,0.814
			c-0.528,0.152-1.137,0.215-1.596,0.159c-0.245,0.109-0.482,0.194-0.724,0.265c-0.615,0.176-1.134,0.199-1.514,0.199
			c-0.188,0-0.372-0.004-0.55-0.012c-0.168-0.009-0.334-0.012-0.502-0.012c-0.327,0-0.724,0.02-1.215,0.159
			c-0.108,0.031-0.221,0.071-0.332,0.109l-0.119,0.043c-0.059,0.023-0.125,0.031-0.188,0.02l-0.116-0.016
			c-0.043-0.008-0.112-0.008-0.182-0.012c-0.161-0.004-0.333-0.008-0.504-0.042c-0.023,0.015-0.059,0.042-0.112,0.089
			c-0.125,0.101-0.316,0.253-0.62,0.366l-0.093,0.035c-0.043,0.015-0.089,0.026-0.136,0.022l-0.141-0.004
			c-0.482,0-1.032,0.145-1.549,0.293l-0.346,0.101l-0.105,2.939c-0.013,0.334-0.2,0.813-0.418,1.062l-1.825,2.103
			c-0.218,0.25-0.253,0.688-0.078,0.974l1.787,2.927c0.175,0.284,0.593,0.525,0.923,0.542l14.535,0.521
			c0.33,0.008,0.759-0.206,0.95-0.479l1.546-2.259l1.782,2.46c0.194,0.272,0.627,0.479,0.961,0.467l11.479-0.479
			c0.336-0.016,0.752-0.257,0.923-0.537l1.818-2.947c0.175-0.283,0.121-0.7-0.122-0.93l-2.012-1.888
			c-0.245-0.229-0.396-0.686-0.343-1.012l1.335-7.914c0.06-0.331,0.374-0.611,0.709-0.623l10.712-0.448
			c0.332-0.011,0.659,0.246,0.722,0.572l1.505,7.785c0.063,0.323-0.073,0.79-0.303,1.032l-1.984,2.078
			c-0.233,0.242-0.257,0.655-0.056,0.919l2.099,2.791c0.1,0.132,0.261,0.25,0.436,0.333
			C72.402,121.918,72.466,121.818,72.527,121.727z"/>
		<path fill="#FFFFFF" d="M9.154,121.494c-0.121-0.522,0.011-1.013,0.136-1.487c0.069-0.261,0.145-0.533,0.168-0.795
			c-0.056-0.101-0.125-0.245-0.145-0.424c-0.023-0.258,0.016-0.487,0.052-0.693c0.018-0.125,0.05-0.304,0.033-0.366
			c-0.1-0.354-0.498-0.731-0.917-1.133c-0.409-0.389-0.864-0.825-1.111-1.323c-0.061-0.128-0.089-0.249-0.104-0.357
			c-0.223-0.031-0.444-0.048-0.646-0.048c-0.3,0-0.444,0.036-0.471,0.051l-0.105,0.063c-0.07,0.047-0.152,0.066-0.234,0.055
			l-0.148-0.012c-0.069-0.004-0.139-0.015-0.205-0.022c-0.53-0.078-0.871-0.254-1.153-0.394c-0.069-0.035-0.136-0.066-0.192-0.098
			c-0.032,0.008-0.06,0.021-0.095,0.031c-0.152,0.051-0.347,0.116-0.618,0.128l-0.086,0.009c-0.046,0.003-0.089-0.004-0.134-0.017
			l-0.089-0.026c-0.097-0.031-0.187-0.051-0.275-0.063c-0.13-0.019-0.268-0.022-0.409-0.02c-0.078,0.248-0.201,0.499-0.343,0.658
			l-1.867,2.105c-0.224,0.249-0.258,0.689-0.082,0.969l1.833,2.936c0.179,0.28,0.595,0.522,0.926,0.537l6.492,0.233
			C9.272,121.842,9.195,121.68,9.154,121.494z"/>
		<path fill="#FFFFFF" d="M125.584,99.479c-0.164,0-0.332,0.023-0.504,0.074c-0.073,0.024-0.151,0.035-0.229,0.047l-0.25,0.043
			c-0.037,0.008-0.08,0.004-0.116-0.008l-0.283-0.101c-0.409-0.141-0.752-0.262-1.052-0.308c-0.211-0.028-0.381-0.023-0.564,0.034
			c-0.097,0.031-0.257,0.152-0.393,0.258c-0.25,0.194-0.549,0.428-0.963,0.544c-0.205,0.06-0.439,0.086-0.727,0.086
			c-0.145,0-0.293-0.007-0.425-0.012c-0.234-0.012-0.452-0.015-0.571,0.005c-0.375,0.058-0.607,0.17-0.861,0.287l-0.039,0.02
			c-0.171,0.078-0.347,0.16-0.571,0.229l-0.118,0.039c-0.033,0.012-0.069,0.016-0.104,0.008l-0.14-0.016
			c-0.696-0.097-1.339-0.241-1.903-0.369c-0.459-0.098-0.888-0.195-1.286-0.254c-0.451-0.066-0.798-0.076-1.116-0.032l-0.593,13.556
			c-0.014,0.335-0.208,0.806-0.432,1.056l-0.564,0.623c-0.222,0.248-0.677,0.439-1.013,0.424l-6.74-0.293
			c-0.332-0.019-0.593-0.299-0.58-0.634l0.535-12.238l-0.041,0.031c-0.052,0.043-0.117,0.058-0.18,0.046s-0.116-0.051-0.152-0.105
			l-0.307-0.489c-0.219-0.347-0.377-0.576-0.674-0.713c-0.343,0.129-0.405,0.195-0.432,0.335l-0.105,0.556
			c-0.017,0.074-0.063,0.137-0.132,0.165c-0.066,0.03-0.146,0.026-0.206-0.009l-0.615-0.362c-0.066-0.011-0.129-0.026-0.195-0.05
			c-0.42,0.141-0.884,0.203-1.332,0.261c-0.94,0.124-1.399,0.226-1.537,0.604l-0.097,0.265c-0.035,0.101-0.136,0.167-0.237,0.151
			l-0.382-0.043c-0.875-0.094-1.554-0.389-2.152-0.649c-0.459-0.207-0.887-0.394-1.358-0.463c-0.215-0.032-0.425-0.036-0.646-0.021
			l-0.257,0.023c-0.06,0.004-0.12-0.016-0.168-0.054l-0.179-0.155c-0.35-0.305-1.6-1.005-2.362-1.235
			c-0.138-0.039-0.254-0.065-0.362-0.082c-0.136-0.02-0.254-0.017-0.373-0.002l-0.594,13.545c-0.014,0.332-0.205,0.807-0.432,1.051
			l-1.528,1.7l-1.563-1.734c-0.222-0.249-0.466-0.716-0.545-1.043l-2.341-9.757c-0.235,0.147-0.532,0.277-0.944,0.294l-0.015,0.011
			c-0.013,0.008-0.02,0.012-0.032,0.016l0.004,0.246c0,0.12-0.093,0.225-0.214,0.229l-0.396,0.022
			c-0.92,0.048-1.422,0.25-1.631,0.654l-0.065,0.133c-0.032,0.058-0.086,0.101-0.148,0.12l-0.188,0.043
			c-0.191,0.051-0.386,0.06-0.58,0.027c-0.093-0.012-0.176-0.031-0.245-0.055c-0.194,0.226-0.343,0.537-0.498,0.864
			c-0.284,0.588-0.627,1.313-1.405,1.662c-0.207,0.856-0.202,1.163,0.155,1.597l0.09,0.112c0.046,0.05,0.063,0.117,0.05,0.187
			l-0.019,0.125c-0.052,0.284-0.285,0.463-0.518,0.619c0.05,0.14,0.073,0.269,0.069,0.532l-0.003,0.052
			c0,0.031-0.004,0.059-0.017,0.085l-0.02,0.047c-0.347,0.786,0.017,1.479,0.436,2.281l0.017,0.031
			c0.082,0.163,0.171,0.326,0.25,0.498c0.17,0.035,0.466,0.133,0.634,0.443l0.132,0.246c0.06,0.108,0.017,0.249-0.093,0.307
			l-0.265,0.145c-0.091,0.051-0.196,0.229-0.281,0.374c-0.133,0.233-0.295,0.519-0.595,0.725c0.016,0.015,0.03,0.034,0.046,0.05
			c0.122,0.145,0.284,0.335,0.34,0.607c0.073,0.074,0.132,0.214,0.096,0.455c-0.037,0.258-0.231,0.817-0.574,0.849
			c-0.157,0.121-0.273,0.249-0.398,0.382c-0.116,0.124-0.232,0.249-0.373,0.374c0.016,0.03,0.035,0.063,0.055,0.094
			c0.104,0.179,0.241,0.415,0.265,0.731l0.007,0.108c0.004,0.058-0.016,0.12-0.053,0.163l-0.079,0.086
			c-0.086,0.101-0.171,0.191-0.257,0.285l-0.06,0.062c0.049,0.323-0.011,0.592-0.123,0.824l9.614-0.396
			c0.332-0.017,0.744-0.261,0.916-0.546l1.339-2.219l1.39,2.262c0.175,0.285,0.591,0.529,0.927,0.542l33.212,1.455
			c0.33,0.012,0.786-0.179,1.007-0.424l3.78-4.192c0.222-0.249,0.416-0.72,0.433-1.056l0.636-14.522
			C127.788,101.326,126.964,99.479,125.584,99.479z"/>
		<path fill="#FFFFFF" d="M132.992,82.585l0.026,0.739c0.002,0.01,0.011,0.015,0.013,0.024l0.272,1.946
			c0.144,1.063,0.974,2.659,2.864,3.955c0.043,0.035,0.09,0.066,0.136,0.098l0.247-0.005c0.58,0,1.26,0.262,1.988,0.765
			c0.689,0.474,1.336,1.089,1.706,1.63c0.369,0.19,0.707,0.39,1.026,0.607c1.002,0.689,1.593,1.397,2.16,2.086
			c0.534,0.643,1.04,1.25,1.911,1.85c0.145,0.098,0.3,0.195,0.461,0.288l0.158,0.098c0.043,0.026,0.083,0.062,0.109,0.101
			l0.099,0.145c0.042,0.066,0.112,0.147,0.186,0.233l0.032,0.035c0.143,0.176,0.307,0.37,0.436,0.592
			c0.097,0.059,0.182,0.081,0.343,0.124c0.201,0.053,0.503,0.132,0.857,0.331l-0.594-16.171c-0.012-0.33,0.136-0.824,0.331-1.097
			l1.737-2.43c0.189-0.272,0.189-0.716,0-0.989l-1.946-2.736c-0.191-0.268-0.623-0.482-0.955-0.471l-13.227,0.486
			c-0.336,0.013-0.752,0.254-0.931,0.534l-1.826,2.889c-0.179,0.28-0.151,0.72,0.063,0.977l1.907,2.297
			C132.796,81.772,132.98,82.254,132.992,82.585z"/>
		<path fill="#FFFFFF" d="M171.257,121.322c0.096-0.094,0.19-0.168,0.272-0.226l-0.005-0.055c-0.008-0.09,0.028-0.18,0.098-0.242
			l0.215-0.194c0.168-0.151,0.429-0.358,0.782-0.358c0.035,0,0.069,0.005,0.104,0.008c0.198-0.202,0.39-0.42,0.581-0.634
			c0.231-0.27,0.505-0.569,0.782-0.837c0.3-0.285,0.746-0.67,1.319-0.849c0.014-0.035,0.03-0.07,0.046-0.109
			c0.125-0.279,0.288-0.653,0.683-1.027c0.104-0.102,0.225-0.203,0.354-0.296l0.05-0.031c0.013-0.008,0.02-0.015,0.032-0.02
			l0.043-0.023c0.61-0.295,1.237-0.771,1.845-1.23c1.035-0.782,2.104-1.593,3.344-1.841c0.163-0.214,0.334-0.408,0.529-0.592
			c0.518-0.493,1.063-0.821,1.593-1.137c0.479-0.284,0.917-0.544,1.296-0.903c0.143-0.14,0.271-0.287,0.39-0.447l0.02-0.357
			c0.034-0.584,0.274-1.099,0.727-1.526c0.468-0.448,1.059-0.709,1.632-0.965l0.03-0.013c0.405-0.182,0.769-0.346,0.974-0.517
			l0.214-0.185c0.075-0.058,0.172-0.085,0.265-0.062l0.237,0.055c0.184,0.039,0.444,0.007,0.771-0.043
			c0.254-0.038,0.528-0.081,0.817-0.081c0.111,0,0.217,0.01,0.32,0.022l0.585-10.756c-0.313-0.605-0.787-2.106-1.805-5.924
			c-0.152-0.557-0.291-1.082-0.323-1.16c-0.011-0.039-0.027-0.078-0.039-0.105c-1.086-1.619-1.747-2.094-2.705-1.978l-0.433,0.055
			c-0.183,0.023-0.35-0.082-0.409-0.253l-0.076-0.227c-0.538,0.457-1.191,0.908-2.025,1.387c-0.575,0.331-1.179,0.646-1.762,0.954
			l-0.06,0.03c-0.567,0.293-1.207,0.627-1.778,0.958l-0.23,0.137c-0.039,0.02-0.076,0.034-0.116,0.042l-0.138,0.031
			c-0.727,0.156-1.438,0.272-2.128,0.382l-0.207,0.031c-0.099,0.015-0.211,0.033-0.314,0.05l-1.223,22.449
			c-0.017,0.335-0.206,0.813-0.424,1.067l-0.498,0.588c-0.214,0.257-0.666,0.447-0.996,0.432l-5.921-0.323
			c-0.332-0.016-0.765-0.253-0.959-0.525l-0.463-0.658c-0.194-0.272-0.334-0.768-0.319-1.101l0.848-15.592
			c-0.158,0.061-0.317,0.114-0.481,0.153c-0.347,0.45-0.838,0.853-1.491,1.233c-0.564,0.323-1.188,0.596-1.735,0.837
			c-0.482,0.21-0.98,0.429-1.375,0.657c-0.381,0.222-0.532,0.375-0.592,0.464l-0.696,1.044c-0.074,0.112-0.203,0.175-0.343,0.167
			c-0.136-0.008-0.257-0.09-0.315-0.215l-0.436-0.887c-0.023-0.052-0.051-0.109-0.073-0.188c-0.34,0.222-0.636,0.468-0.947,0.724
			c-0.401,0.336-0.856,0.713-1.44,1.052c-0.109,0.063-0.226,0.124-0.347,0.183c0,0.023-0.003,0.048-0.007,0.066
			c-0.03,0.109-0.109,0.203-0.211,0.249l-0.129,0.059c-0.471,0.529-1.19,0.98-1.774,1.32c-0.082,0.046-0.159,0.089-0.232,0.131
			c0.015,0.048,0.021,0.099,0.019,0.149c-0.008,0.112-0.066,0.213-0.155,0.283l-0.572,0.416c-0.145,0.105-0.289,0.199-0.425,0.277
			c-0.53,0.306-1.064,0.468-1.567,0.576l-0.504,9.244c-0.016,0.336,0.129,0.825,0.327,1.095l3.348,4.543
			c0.204,0.268,0.636,0.503,0.966,0.521l14.571,0.793C171.135,121.472,171.183,121.393,171.257,121.322z"/>
		<path fill="#FFFFFF" d="M149.073,116.297c-0.222-0.249-0.413-0.724-0.426-1.059l-0.312-8.522c-1.282,0.017-1.866,0.206-3.316,1.04
			c-0.241,0.145-0.513,0.3-0.888,0.526l-0.509,0.307c-0.155,0.098-0.362,0.066-0.482-0.073l-0.292-0.332
			c-0.07-0.073-0.176-0.155-0.429-0.155c-0.377,0-0.914,0.168-1.584,0.385l-0.039,0.013c-0.592,0.194-1.268,0.412-1.924,0.475
			l-0.093,0.027c-0.055,0.015-0.108,0.015-0.164,0.007c-0.429,0.099-0.864,0.149-1.287,0.149c-1.173,0-2.313-0.378-3.405-1.108
			l0.287,7.792c0.011,0.334-0.145,0.82-0.346,1.086l-1.715,2.238c-0.201,0.265-0.205,0.705-0.007,0.969l2.039,2.795
			c0.198,0.272,0.632,0.483,0.966,0.467l13.229-0.482c0.33-0.015,0.742-0.257,0.914-0.544l1.74-2.916
			c0.176-0.293,0.133-0.729-0.091-0.978L149.073,116.297z"/>
		<path fill="#FFFFFF" d="M17.269,115.756c-0.201-0.266-0.356-0.752-0.346-1.087l0.035-0.996c-0.056,0.006-0.107,0.018-0.164,0.019
			h-0.058c-0.028,0-0.052,0-0.074-0.007l-0.054-0.007c-0.429-0.091-0.65-0.309-0.771-0.422c0-0.004,0-0.004-0.004-0.004
			c-0.093,0.094-0.233,0.219-0.459,0.301l-0.184,0.065c-0.097,0.035-0.205,0.03-0.3-0.02l-0.183-0.089
			c-0.098-0.051-0.184-0.098-0.27-0.148c-0.034-0.016-0.084-0.047-0.132-0.07c-0.132,0.066-0.257,0.188-0.403,0.331
			c-0.052,0.047-0.099,0.09-0.145,0.137l-0.129,0.112c-0.086,0.082-0.198,0.117-0.316,0.101l-0.205-0.03
			c-0.052-0.013-0.095-0.016-0.141-0.023c-0.443-0.063-0.945-0.109-1.312-0.027c-0.022,0.012-0.046,0.031-0.071,0.047
			c-0.112,0.077-0.28,0.202-0.528,0.262c-0.254,0.062-0.475,0.069-0.657,0.081c-0.148,0.004-0.257,0.012-0.319,0.035
			c-0.151,0.062-0.214,0.101-0.237,0.116l-0.047,0.129c-0.052,0.14-0.18,0.237-0.332,0.253l-0.225,0.016
			c-0.07,0.004-0.145,0.008-0.218,0.012c0.175,0.299,0.442,0.587,0.739,0.902c0.614,0.654,1.309,1.395,1.335,2.523
			c0,0.132,0.011,0.275,0.02,0.416c0.019,0.292,0.034,0.576,0.015,0.817c-0.026,0.358-0.116,0.677-0.186,0.938
			c-0.099,0.347-0.172,0.622-0.118,0.876c0.039,0.187,0.188,0.381,0.343,0.596c0.034,0.045,0.071,0.099,0.107,0.148l4.821,0.174
			c0.334,0.013,0.763-0.202,0.953-0.475l1.95-2.787c0.191-0.272,0.184-0.712-0.018-0.977L17.269,115.756z"/>
		<path fill="#FFFFFF" d="M13.109,30.073c0.218,0.249,0.416,0.725,0.436,1.059l0.325,5.241l1.914,3.623
			c0.341,0.642,1.143,1.152,1.996,1.689c1.188,0.755,2.643,1.678,2.966,3.235l0.818,0.124c0.059,0.004,0.112,0.026,0.162,0.063
			l0.207,0.144c1.122,0.813,2.515,1.821,3.64,2.966c0.175-0.004,0.35,0.005,0.526,0.031c0.525,0.078,0.964,0.276,1.319,0.436
			c0.152,0.067,0.361,0.161,0.47,0.192l0.191-0.102c0.069-0.035,0.151-0.051,0.233-0.035l0.265,0.043
			c0.795,0.132,1.171,0.553,1.371,0.832c0.314,0.063,0.806,0.171,1.12,0.545c0.007,0.009,0.011,0.019,0.018,0.026l4.218-0.264
			c0.332-0.02,0.802,0.152,1.044,0.378l0.859,0.81c0.241,0.226,0.457,0.685,0.48,1.02l0.159,2.545c0.026,0,0.053-0.002,0.082-0.002
			c0.973,0,2.214,0.058,3.272,0.514c0.164-0.031,0.327-0.048,0.491-0.048c0.448,0,0.802,0.114,1.086,0.203
			c0.098,0.032,0.188,0.063,0.273,0.082c0.018-0.005,0.037-0.008,0.057-0.012l0.075-0.043c0.089-0.055,0.194-0.066,0.291-0.038
			c0.009,0,0.016,0.003,0.02,0.003c0.293-0.046,0.577-0.07,0.868-0.07c0.655,0,1.214,0.117,1.751,0.23
			c0.593,0.121,1.103,0.222,1.689,0.174c0.105-0.05,0.214-0.096,0.332-0.143c1.207-0.518,2.795-0.916,4.002-1.004
			c0.778-0.608,1.179-1.165,1.253-1.748l0.02-0.16c0.008-0.067,0.04-0.127,0.081-0.182l-0.123-1.99
			c-0.021-0.332-0.224-0.802-0.452-1.043l-3.384-3.61c-0.229-0.24-0.284-0.68-0.123-0.972l1.821-3.348
			c0.159-0.292,0.273-0.803,0.254-1.137l-0.361-5.772l-0.235-0.005c-0.248-0.008-0.498-0.086-0.735-0.241
			c-0.06-0.035-0.109-0.073-0.159-0.109c-0.091,0.013-0.185-0.012-0.258-0.063l-0.171-0.112c-0.152-0.105-0.366-0.272-0.452-0.549
			c0-0.004,0-0.004-0.003-0.012c-0.152-0.086-0.308-0.172-0.465-0.254c-0.264-0.147-0.498-0.271-0.72-0.416
			c-0.24-0.155-0.58-0.396-0.824-0.739h-0.023c-0.227-0.051-0.515-0.112-0.86-0.335c-0.094-0.058-0.188-0.128-0.281-0.207
			l-0.03-0.026c-0.012-0.011-0.02-0.019-0.028-0.026l-0.023-0.027c-0.307-0.351-0.719-0.674-1.155-1.021
			c-0.716-0.572-1.46-1.159-1.884-1.935c-0.164-0.078-0.315-0.16-0.468-0.257c-0.439-0.28-0.768-0.6-1.082-0.906
			c-0.28-0.27-0.534-0.516-0.828-0.706c-0.102-0.062-0.207-0.12-0.313-0.171l-0.198,0.027c-0.412,0.054-0.845-0.051-1.246-0.308
			c-0.407-0.261-0.704-0.619-0.991-0.965l0.271-0.27l-0.295,0.241c-0.173-0.21-0.355-0.423-0.491-0.521l-0.164-0.12
			c-0.093-0.066-0.151-0.172-0.159-0.284l-0.009-0.159c-0.007-0.104-0.093-0.272-0.162-0.425c-0.188-0.386-0.459-0.961-0.188-1.58
			l0.063-0.14l-22.831,1.42c-0.334,0.02-0.743,0.272-0.914,0.557l-1.756,2.936c-0.171,0.283-0.128,0.724,0.09,0.973L13.109,30.073z
			 M28.52,29.373l5.263-0.327c0.336-0.02,0.798,0.159,1.026,0.397l0.558,0.572c0.233,0.24,0.44,0.708,0.461,1.039l0.606,9.725
			c0.02,0.33-0.125,0.82-0.328,1.085l-0.482,0.639c-0.198,0.269-0.634,0.502-0.97,0.521l-5.266,0.331
			c-0.332,0.019-0.619-0.237-0.643-0.568l-0.795-12.769C27.931,29.684,28.185,29.396,28.52,29.373z"/>
		<path fill="#FFFFFF" d="M37.886,22.42c0.073,0.74,0.595,1.807,1.828,2.598c0.017,0.008,0.028,0.019,0.039,0.022l0.113-0.011
			c0.055-0.004,0.108-0.009,0.16-0.009c0.4,0,0.849,0.156,1.323,0.464c0.475,0.3,0.914,0.712,1.179,1.089
			c0.246,0.113,0.468,0.234,0.679,0.366c0.708,0.456,1.128,0.97,1.507,1.425c0.347,0.424,0.677,0.83,1.244,1.191
			c0.099,0.063,0.198,0.12,0.3,0.176l0.113,0.062c0.055,0.032,0.102,0.074,0.137,0.129l0.066,0.097
			c0.023,0.036,0.069,0.091,0.116,0.144c0.102,0.122,0.211,0.254,0.296,0.406c0.031,0.008,0.07,0.016,0.14,0.026
			c0.159,0.027,0.401,0.07,0.686,0.223l0.086,0.047c0.043,0.019,0.077,0.05,0.112,0.086l0.06,0.069
			c0.317,0.382,0.801,0.704,1.272,1.005l0.528,0.334c0.447,0.286,0.82,0.556,1.168,0.854l-0.386-6.194
			c-0.022-0.331-0.221-0.806-0.448-1.051l-3.813-4.169c-0.222-0.249-0.681-0.433-1.013-0.409l-7.55,0.47L37.886,22.42z"/>
		<path fill="#FFFFFF" d="M16.114,46.264c0.152-0.012,0.357-0.031,0.42-0.055c0.132-0.051,0.293-0.16,0.461-0.272
			c0.384-0.27,0.875-0.607,1.604-0.705c-0.079-0.743-0.752-1.183-1.939-1.884c-0.89-0.527-1.939-1.161-2.485-2.122l0.345,5.561
			c0.198-0.132,0.438-0.286,0.766-0.387C15.566,46.307,15.857,46.282,16.114,46.264z"/>
		<path fill="#FFFFFF" d="M57.94,35.285c0.095,0.207,0.114,0.452,0.06,0.713c0.604,0.455,0.867,1.114,0.739,1.803
			c0.104,0.046,0.214,0.12,0.307,0.233l0.036,0.039c0.035,0.039,0.063,0.09,0.078,0.14l0.015,0.051
			c0.035,0.112,0.063,0.223,0.082,0.319c0.02,0.074,0.035,0.133,0.046,0.179l0.195,0.012c0.065,0.008,0.134,0.031,0.188,0.066
			l2.319-0.203c0.198-0.02,0.369,0.113,0.409,0.304c0.039,0.191-0.07,0.378-0.258,0.44l-2.242,0.72
			c0.16,0.094,0.343,0.188,0.522,0.277c0.693,0.35,1.713,0.868,1.689,1.938c0.017,0.011,0.03,0.023,0.05,0.035
			c0.103-0.004,0.375-0.094,0.554-0.153c0.33-0.112,0.67-0.225,1.03-0.256c0.28-0.027,0.508,0.035,0.663,0.077
			c0.022,0.009,0.046,0.017,0.069,0.021c0.289-0.071,0.692-0.21,1.082-0.347c0.523-0.184,1.059-0.37,1.53-0.464
			c0.316-0.063,0.554-0.065,0.752-0.07h0.125c0.018-0.046,0.046-0.233,0.057-0.315c0.017-0.112,0.032-0.232,0.066-0.357l0.056-0.202
			c0.03-0.108,0.108-0.199,0.21-0.245l0.237-0.109c0.825-0.374,1.148-0.834,1.424-1.507l0.082-0.19
			c0.039-0.094,0.114-0.168,0.211-0.202l0.221-0.09c0.308-0.125,0.366-0.229,0.521-0.587c0.052-0.113,0.099-0.223,0.155-0.331
			l0.099-0.195c0.05-0.094,0.136-0.167,0.241-0.194l0.25-0.07c0.146-0.04,0.298-0.065,0.457-0.082l0.315-5.228
			c0.021-0.331,0.224-0.802,0.452-1.048l0.518-0.56c0.228-0.245,0.687-0.429,1.017-0.409l5.921,0.358
			c0.121,0.007,0.255,0.052,0.388,0.109c0.149-0.086,0.294-0.176,0.47-0.25c0.428-0.183,0.887-0.315,1.291-0.432
			c0.401-0.113,0.787-0.226,1.11-0.366c0.159-0.065,0.296-0.136,0.412-0.213c0.245-0.156,0.495-0.445,0.739-0.725
			c0.386-0.443,0.864-0.996,1.59-1.413c0.042-0.082,0.08-0.168,0.119-0.254c0.184-0.393,0.393-0.841,0.825-1.269l0.071-0.07
			c0.03-0.031,0.066-0.058,0.105-0.078l0.097-0.042c0.198-0.094,0.365-0.168,0.518-0.233c0.498-0.214,0.899-0.339,1.244-0.386
			c0.277-0.266,0.593-0.502,0.931-0.714L63.29,21.618c-0.335-0.019-0.791,0.164-1.016,0.409l-3.855,4.18
			c-0.225,0.246-0.427,0.717-0.446,1.048l-0.459,7.59C57.705,34.945,57.855,35.094,57.94,35.285z"/>
		<path fill="#FFFFFF" d="M23.292,48.724c-0.277-0.315-0.538-0.533-1.017-0.646l-0.425-0.102c-0.148-0.034-0.257-0.151-0.287-0.299
			l-0.063-0.323c-0.05-0.265-0.799-0.515-1.433-0.705c-0.055,0.176-0.16,0.296-0.241,0.374c-0.175,0.151-0.483,0.334-1.028,0.253
			c-0.016,0-0.026-0.004-0.043-0.004c-0.022,0.02-0.046,0.042-0.069,0.066c-0.198,0.198-0.444,0.439-0.834,0.604
			c-0.366,0.155-0.752,0.155-1.035,0.155h-0.109c-0.061,0-0.119,0-0.159,0.004c-0.264,0.073-0.587,0.183-0.927,0.3
			c-0.313,0.106-0.645,0.212-0.985,0.311l0.548,8.783C16.489,54.139,18.928,50.046,23.292,48.724z"/>
		<path fill="#FFFFFF" d="M3.345,79.873c0.151,0.209,0.273,0.555,0.314,0.856l3.882,6.419c0.554,0.502,0.83,1.089,0.826,1.744
			c0.011,0.011,0.023,0.019,0.034,0.026c0.059,0.039,0.118,0.082,0.175,0.133l0.114,0.093c0.101,0.082,0.15,0.21,0.136,0.335
			l-0.016,0.125c-0.036,0.327,0.121,0.538,0.421,0.914c0.366,0.456,0.853,1.063,0.674,1.994c0.076,0.094,0.158,0.187,0.244,0.284
			c0.323,0.369,0.681,0.781,0.938,1.276l0.039,0.012c0.592,0.222,1.261,0.471,1.53,0.992c0.14,0.272,0.14,0.572,0.004,0.849
			c0.534,0.323,0.709,0.786,0.838,1.129c0.073,0.19,0.139,0.362,0.248,0.53c0.105,0.155,0.266,0.307,0.429,0.467l0.035,0.031
			c0.284,0.272,0.604,0.571,0.739,0.98c0.448,0.362,0.729,0.787,0.98,1.164c0.296,0.443,0.554,0.821,1.005,1.055l0.254,0.137
			c0.235,0.035,0.436,0.151,0.539,0.215l0.22,0.115c0.066,0.036,0.116,0.083,0.155,0.145l0.043,0.021l5.332,0.188
			c0.332,0.012,0.784,0.227,1.005,0.479l0.775,0.888c0.218,0.254,0.389,0.729,0.373,1.063l-0.196,5.475
			c0.045,0.143,0.048,0.295-0.002,0.442c-0.004,0.008-0.009,0.019-0.013,0.034l-0.003,0.005l-0.002,0.088
			c0.225-0.084,0.44-0.16,0.648-0.221c0.26-0.074,0.699-0.172,1.102-0.133c0.007-0.007,0.011-0.007,0.02-0.015
			c0.182-0.137,0.423-0.313,0.817-0.422c0.109-0.034,0.222-0.057,0.338-0.077l0.043-0.004c0.012-0.004,0.028-0.004,0.039-0.004
			h0.039c0.463-0.004,0.98-0.094,1.53-0.19c0.607-0.109,1.237-0.222,1.852-0.222c0.308,0,0.584,0.031,0.841,0.085
			c0.168-0.069,0.331-0.128,0.502-0.179c0.504-0.145,0.959-0.176,1.395-0.214c0.386-0.027,0.739-0.055,1.079-0.155
			c0.116-0.031,0.225-0.071,0.334-0.117l0.112-0.168c0.237-0.354,0.597-0.603,1.055-0.735c0.347-0.097,0.696-0.109,0.963-0.109
			c0.14,0,0.28,0.005,0.416,0.005c0.379,0.015,0.614,0.015,0.755-0.017l0.195-0.047c0.108-0.027,0.225,0,0.319,0.071l0.123,0.097
			c0.086,0.063,0.27,0.113,0.429,0.155c0.266,0.077,0.61,0.19,0.901,0.418l0.154-4.29c0.012-0.335-0.152-0.818-0.37-1.071
			l-2.985-3.547c-0.214-0.256-0.214-0.673,0-0.93l2.016-2.417c0.215-0.257,0.396-0.739,0.409-1.07l0.521-14.543
			c0.013-0.331-0.14-0.826-0.338-1.091l-3.387-4.527c-0.202-0.264-0.64-0.494-0.97-0.505L4.615,73.251
			c-0.334-0.012-0.766,0.198-0.966,0.464l-2.032,2.748c-0.198,0.269-0.202,0.709-0.007,0.98L3.345,79.873z M18.123,81.271
			c0.011-0.331,0.295-0.596,0.627-0.58l5.274,0.188c0.331,0.011,0.773,0.232,0.98,0.493l0.498,0.627
			c0.207,0.261,0.37,0.747,0.354,1.078L25.5,93.116c-0.013,0.33-0.207,0.802-0.433,1.051l-0.541,0.583
			c-0.227,0.245-0.686,0.437-1.016,0.425l-5.274-0.19c-0.331-0.008-0.597-0.293-0.584-0.623L18.123,81.271z"/>
		<path fill="#FFFFFF" d="M15.748,71.056c0.202,0.266,0.644,0.464,0.974,0.443l13.212-0.824c0.33-0.02,0.735-0.277,0.899-0.564
			l1.67-2.967c0.162-0.287,0.108-0.725-0.118-0.97l-1.923-2.056c-0.229-0.244-0.431-0.716-0.45-1.047L29.28,51.37
			c-0.375-0.18-0.683-0.387-0.937-0.596c-0.218,0.093-0.449,0.136-0.716,0.122L27.31,50.88c-0.099-0.004-0.188-0.043-0.258-0.113
			l-0.194-0.201c-0.207-0.211-0.432-0.328-0.731-0.371c-0.316-0.046-0.769,0.021-1.23,0.101c-0.23,0.041-0.465,0.079-0.693,0.103
			c-4.542,0.517-7.524,6.527-8.846,9.875l0.23,3.694c0.025,0.335-0.12,0.829-0.314,1.099l-1.655,2.276
			c-0.194,0.273-0.189,0.709,0.017,0.973L15.748,71.056z"/>
		<path fill="#FFFFFF" d="M3.401,91.029l0.21-0.047c0.631-0.141,1.519-0.175,2.172-0.078c0.451,0.066,0.825,0.191,1.114,0.371
			c0.225-0.079,0.442-0.145,0.657-0.203c-0.07-0.102-0.159-0.202-0.27-0.315l-0.062-0.059c-0.055-0.055-0.095-0.125-0.105-0.202
			l-0.031-0.155c-0.163-0.885-0.334-1.796-0.763-2.48c-0.008-0.008-0.011-0.019-0.02-0.031l-2.686-5.251l-0.304,8.501
			C3.343,91.063,3.367,91.038,3.401,91.029z"/>
	</g>
	<g>
		<g>
			<path fill="#FFFFFF" d="M54.612,60.814"/>
		</g>
	</g>
	<g>
		<g>
			<path fill="#FFFFFF" d="M54.612,60.814"/>
		</g>
	</g>
	<g>
		<polygon fill="#D43629" points="121.145,19.232 124.951,19.232 124.951,3.763 128.408,3.763 128.408,0 117.746,0 117.746,3.763 
			121.145,3.763 		"/>
		<path fill="#D43629" d="M144.037,19.232h3.778c1.009,0,1.82-0.345,2.422-1.026c0.597-0.673,0.897-1.592,0.897-2.724v-3.983
			c0-1.132-0.35-2.043-1.035-2.693c-0.673-0.699-1.53-1.055-2.554-1.055h-2.753V3.763h2.266v1.902h3.807V3.752
			c0-1.13-0.302-2.049-0.897-2.724C149.367,0.348,148.553,0,147.545,0h-3.239c-1.009,0-1.824,0.348-2.425,1.028
			c-0.595,0.675-0.895,1.59-0.895,2.724v4.013c0,1.112,0.347,2.029,1.04,2.729c0.687,0.676,1.546,1.021,2.548,1.021h2.753v3.956
			h-2.807v-1.9h-3.804v1.913c0,1.132,0.3,2.051,0.895,2.724C142.212,18.888,143.028,19.232,144.037,19.232z"/>
		<path fill="#D43629" d="M132.536,19.232h3.782c1.009,0,1.819-0.345,2.421-1.026c0.597-0.673,0.896-1.592,0.896-2.724V3.752
			c0-1.13-0.3-2.049-0.896-2.724C138.137,0.348,137.327,0,136.318,0h-3.782c-1.005,0-1.821,0.348-2.421,1.028
			c-0.597,0.675-0.898,1.594-0.898,2.724v11.73c0,1.132,0.302,2.051,0.898,2.724C130.714,18.888,131.531,19.232,132.536,19.232z
			 M133.022,3.763h2.809V15.47h-2.809V3.763z"/>
		<path fill="#D43629" d="M54.774,19.232h3.778c1.008,0,1.821-0.345,2.425-1.026c0.594-0.673,0.896-1.592,0.896-2.724V3.752
			c0-1.13-0.302-2.049-0.896-2.724C60.374,0.348,59.56,0,58.552,0h-3.778c-1.007,0-1.824,0.348-2.423,1.028
			c-0.597,0.675-0.899,1.59-0.899,2.724v11.73c0,1.132,0.303,2.051,0.899,2.724C52.95,18.888,53.767,19.232,54.774,19.232z
			 M55.258,3.763h2.807V15.47h-2.807V3.763z"/>
		<polygon fill="#D43629" points="108.348,3.45 110.799,19.232 116.937,19.232 116.937,0 113.588,0 113.588,15.797 111.085,0 
			105.003,0 105.003,19.232 108.348,19.232 		"/>
		<polygon fill="#D43629" points="50.644,15.47 45.734,15.47 45.734,0 41.927,0 41.927,19.232 50.644,19.232 		"/>
		<path fill="#D43629" d="M66.272,19.232h3.778c1.009,0,1.825-0.345,2.421-1.026c0.597-0.673,0.9-1.592,0.9-2.724v-3.983
			c0-1.132-0.351-2.043-1.036-2.693c-0.673-0.699-1.531-1.055-2.553-1.055h-2.758V3.763h2.269v1.902h3.805V3.752
			c0-1.13-0.3-2.049-0.895-2.724C71.604,0.348,70.792,0,69.783,0h-3.239c-1.009,0-1.823,0.348-2.425,1.028
			c-0.597,0.675-0.895,1.59-0.895,2.724v4.013c0,1.115,0.346,2.029,1.039,2.729c0.686,0.676,1.544,1.021,2.544,1.021h2.758v3.956
			h-2.808v-1.9h-3.805v1.913c0,1.132,0.302,2.051,0.897,2.724C64.449,18.888,65.263,19.232,66.272,19.232z"/>
		<path fill="#D43629" d="M96.542,15.865h3.27l0.459,3.367h3.811L101.016,0h-5.655L92.27,19.232h3.811L96.542,15.865z M98.175,3.537
			l1.118,8.565h-2.236L98.175,3.537z"/>
		<path fill="#D43629" d="M85.056,19.232h3.78c1.009,0,1.823-0.345,2.422-1.026c0.596-0.673,0.899-1.592,0.899-2.724v-3.983
			c0-1.132-0.352-2.043-1.035-2.693c-0.674-0.699-1.532-1.055-2.56-1.055h-2.746V3.763h2.263v1.902h3.805V3.752
			c0-1.13-0.3-2.049-0.895-2.724C90.39,0.348,89.576,0,88.563,0h-3.237c-1.005,0-1.821,0.348-2.421,1.028
			c-0.597,0.675-0.896,1.59-0.896,2.724v4.013c0,1.115,0.352,2.029,1.036,2.729c0.69,0.676,1.55,1.021,2.557,1.021h2.75v3.956
			h-2.807v-1.9h-3.806v1.913c0,1.132,0.302,2.051,0.896,2.724C83.235,18.888,84.049,19.232,85.056,19.232z"/>
	</g>
</g>
</svg>
