<?xml version="1.0" encoding="utf-8"?>
<!-- Generator: Adobe Illustrator 23.0.2, SVG Export Plug-In . SVG Version: 6.00 Build 0)  -->
<svg version="1.1" id="图层_1" xmlns="http://www.w3.org/2000/svg" xmlns:xlink="http://www.w3.org/1999/xlink" x="0px" y="0px"
	 viewBox="0 0 443.93 443.93" style="enable-background:new 0 0 443.93 443.93;" xml:space="preserve">
<style type="text/css">
	.st0{fill:#FFFFFF;}
</style>
<circle cx="221.96" cy="221.96" r="221.97"/>
<g>
	<path class="st0" d="M15.68,221.96c0,96,62.24,177.06,147.57,203.06v0.6C74.07,400.29,8.81,318.71,8.81,221.96
		c0-96.73,65.27-178.31,154.44-203.66v0.6C77.92,44.91,15.68,125.98,15.68,221.96z"/>
	<path class="st0" d="M435.12,221.96c0,96.75-65.28,178.33-154.46,203.66v-0.5c85.49-25.9,147.88-107.05,147.88-203.15
		c0-96.09-62.39-177.25-147.88-203.15v-0.5C369.84,43.65,435.12,125.23,435.12,221.96z"/>
	<path class="st0" d="M35.26,221.96c0,83.87,53.63,155.03,128,180.06v0.67C85.41,378.28,29.04,306.59,29.04,221.96
		S85.41,65.67,163.25,41.25v0.67C88.89,66.93,35.26,138.09,35.26,221.96z"/>
	<polygon class="st0" points="201.77,201.59 112.18,201.59 138.11,74.09 171.44,74.09 151.45,171.94 207.71,171.94 	"/>
	<path class="st0" d="M322.41,111.32c-1.71-4.12-3.85-7.37-7.07-9.19c-3.22-1.82-7.81-2.74-13.8-2.74c-1.76,0-3.61,0.09-5.56,0.26
		c-1.95,0.18-5,0.57-6.72,1.13c-4.09,1.34-6.19,2.91-7.39,4.21c-1.21,1.3-2.4,3.22-2.56,5.45c-0.23,3.3,1.98,6.15,5.46,6.74
		c4.17,0.71,9.95,1.26,14.43,1.85c4.47,0.59,8.79,1.35,12.95,2.3c4.16,0.94,8.06,2.15,11.71,3.62c3.65,1.47,6.8,3.44,9.44,5.92
		c2.64,2.47,5.82,5.71,7.21,9.42c1.38,3.71,2.24,8.4,1.87,13.7c-0.62,8.95-2.77,16.66-6.45,23.13c-3.68,6.48-8.45,11.8-14.31,15.98
		c-5.86,4.18-12.53,7.27-20,9.27c-7.47,2-16.83,1.85-25.03,1.85c-13.37,0-24.18-2.68-32.43-8.03c-8.25-5.36-13.83-11.45-16.75-23.46
		l29.82-12.86c1.41,3.19,2.71,5.66,4.36,7.84c1.55,2.04,3.23,3.57,5.01,4.98c1.78,1.41,4.49,2.48,7.03,3.13
		c2.53,0.65,5.62,0.97,9.26,0.97c2.46,0,4.85-0.18,7.16-0.53c2.31-0.35,4.41-1.03,6.3-2.03c1.89-1,4.26-2.08,6.3-4.59
		c2.8-3.44,3.49-6.18,3.7-9.12c0.13-1.88-0.85-3.8-1.89-4.92c-1.8-1.95-6.08-2.69-9.09-3.28l-25.98-3.66
		c-9.27-1.65-15.69-5.89-20.13-11.25c-4.44-5.36-6.48-11.23-5.89-19.71c0.57-8.24,2.74-15.3,6.49-21.19
		c3.75-5.89,8.51-10.68,14.28-14.39c5.77-3.71,12.2-6.41,19.3-8.12c7.1-1.7,14.28-2.56,21.55-2.56c11.61,0,21.35,2,29.23,6
		c7.87,4,13.75,11.01,17.62,21.01L322.41,111.32z"/>
	<path class="st0" d="M207.01,298.6c-2,9.84-5.17,18.31-9.51,25.4c-4.34,7.09-9.51,12.95-15.53,17.58
		c-6.02,4.63-12.71,8.06-20.08,10.28c-7.37,2.22-15.08,3.34-23.14,3.34c-7.28,0-13.88-0.88-19.81-2.64
		c-5.93-1.76-12.3-4.48-16.42-8.17c-4.12-3.69-7.19-8.38-9.22-14.06c-2.03-5.68-2.78-12.39-2.27-20.12
		c0.13-1.87,0.34-3.78,0.63-5.71c0.3-1.93,0.62-3.89,0.98-5.89l14.95-73.98h32.94l-14.95,73.98c-0.34,1.64-0.6,3.14-0.8,4.48
		c-0.2,1.35-0.35,2.67-0.43,3.95c-0.45,6.8,1.23,11,3.68,13.97c2.74,3.31,7.41,5.83,12.89,5.83c3.25,0,8.18-0.12,11.72-1.35
		c2.65-0.92,6.42-2.62,8.57-4.67c2.15-2.05,4.18-4.58,5.8-7.92c1.62-3.34,3.65-9.3,4.66-14.34l14.55-73.95h35.74L207.01,298.6z"/>
	<path class="st0" d="M317.22,285.34c4.98-7.67,8.62-17.54,9.29-27.5c0.71-10.66-2.4-18.87-9.36-24.6
		c-6.94-5.74-18.31-8.62-34.1-8.62H236.2l-26.73,127.76h35.93l8.38-46.88h4.71c-0.08,1.29-0.04,2.43,0.05,3.54
		c0.1,1.1,1.37,4.09,1.75,5.03l17.47,38.31h40.26l-23.37-50.61C303.96,298.03,312.22,293.01,317.22,285.34z M291.12,262.55
		c-0.41,5.88-2.3,10.2-5.67,12.94c-3.38,2.76-8.04,4.13-14.02,4.13h-12.39l5.96-28.21h12.41c5.71,0,9.49,1.09,11.31,3.27
		C290.53,256.86,291.34,259.48,291.12,262.55z"/>
	<g>
		<path class="st0" d="M280.66,41.24v0.57c13.82,4.62,26.92,10.83,39.09,18.42c1.47,0.23,2.92,0.49,4.34,0.8
			C310.64,52.76,296.07,46.07,280.66,41.24z"/>
		<path class="st0" d="M362.51,92.02c0.27,0.65,0.55,1.3,0.81,1.97c0.6,1.55,0.86,3.15,0.83,4.72
			c27.95,33.15,44.83,76.2,44.83,123.25c0,83.99-53.78,155.25-128.31,180.17v0.57c77.86-24.42,134.24-96.11,134.24-180.74
			C414.91,171.68,395,125.97,362.51,92.02z"/>
		<path class="st0" d="M78.84,308.85c-14.82-25.43-23.34-55.14-23.34-86.89c0-56.23,26.72-106.06,67.87-137.01l0.56-2.77
			c-44.7,30.7-73.99,81.85-73.99,139.78c0,34.78,10.57,67.12,28.68,94.06c-0.04-2.16,0.01-4.37,0.17-6.64
			C78.8,309.21,78.82,309.03,78.84,308.85z"/>
		<path class="st0" d="M163.25,381.89v-0.75c-9.65-3.71-18.86-8.32-27.56-13.72c-1.07-0.03-2.13-0.08-3.17-0.15
			C142.18,373.1,152.46,378.02,163.25,381.89z"/>
		<path class="st0" d="M388.39,221.96c0,51.68-22.58,97.96-58.2,129.14c0.1,0.95,0.09,1.91-0.04,2.86
			c38.75-31.18,63.52-78.72,63.52-132c0-42.15-15.52-80.7-41.18-110.41l-2.94,1.28C373.79,142.37,388.39,180.42,388.39,221.96z"/>
		<path class="st0" d="M280.66,381.13v0.67c12.27-4.43,23.89-10.2,34.67-17.13h-2.88C302.54,371.25,291.9,376.8,280.66,381.13z"/>
		<path class="st0" d="M76.24,221.96c0-39.8,15.27-75.95,40.14-102.67l1.15-5.66c-29.35,27.16-47.66,65.65-47.66,108.33
			c0,21.81,4.8,42.51,13.38,61.17l1.95-9.67C79.42,257.41,76.24,240.07,76.24,221.96z"/>
		<path class="st0" d="M373.76,221.96c0-26.21-6.92-50.82-19.05-72.22c0.06,1.69,0.04,3.38-0.08,5.08
			c-0.11,1.56-0.27,3.09-0.46,4.59c8.62,19.02,13.45,40.2,13.45,62.54c0,42.89-17.74,81.53-46.11,108.71l1.23,2.66
			C354.04,306.04,373.76,266.26,373.76,221.96z"/>
		<path class="st0" d="M91.82,221.96c0,4.93,0.3,9.79,0.85,14.57l2.9-14.34c0.32-1.58,0.94-3.02,1.78-4.3
			c0.39-12.78,2.63-25.08,6.44-36.64l4.26-20.97C97.72,178.56,91.82,199.59,91.82,221.96z"/>
		<path class="st0" d="M346.61,221.96c0,18.33-3.79,35.75-10.6,51.5c-1.94,6.52-4.8,12.85-8.51,18.57c-2.1,3.23-4.68,6.2-7.73,8.93
			c-2.45,3.17-5.05,6.21-7.77,9.13l1.19,2.59c23.88-23.12,38.69-55.22,38.69-90.71c0-13.18-2.06-25.88-5.84-37.84
			c-1.1,1.86-2.27,3.64-3.52,5.35C345.18,199.85,346.61,210.74,346.61,221.96z"/>
		<path class="st0" d="M331.49,230.69c0.24-2.88,0.37-5.79,0.37-8.73c0-6.77-0.65-13.39-1.87-19.81c-0.41,0.31-0.81,0.63-1.23,0.93
			c-1.31,0.93-2.66,1.81-4.04,2.65c0.77,5.29,1.18,10.71,1.18,16.23c0,0.87-0.02,1.73-0.04,2.59
			C327.75,226.22,329.7,228.24,331.49,230.69z"/>
	</g>
</g>
</svg>
