<?xml version="1.0" encoding="utf-8"?>
<!-- Generator: Adobe Illustrator 16.0.0, SVG Export Plug-In . SVG Version: 6.00 Build 0)  -->
<!DOCTYPE svg PUBLIC "-//W3C//DTD SVG 1.1//EN" "http://www.w3.org/Graphics/SVG/1.1/DTD/svg11.dtd">
<svg version="1.1" id="Layer_1" xmlns="http://www.w3.org/2000/svg" xmlns:xlink="http://www.w3.org/1999/xlink" x="0px" y="0px"
	 viewBox="0 0 164.263 142.957" enable-background="new 0 0 164.263 142.957"
	 xml:space="preserve">
<g>
	<path fill="none" stroke="#FFFF00" stroke-width="1.5156" stroke-miterlimit="10" d="M74.19,10.056"/>
	<path fill="#D74C46" d="M131.102,24.642c-0.872-1.671-1.568-2.201-2.716-2.89c-0.468-0.282-0.969-0.594-1.613-0.907
		c-3.614-1.758-41.91-16.017-51.932-19.374C71.927,0.494,69.35,0,67.174,0c-2.595,0-4.155,0.694-5.294,1.199
		c-0.206,0.092-0.396,0.178-0.577,0.252c-1.935,0.801-38.897,19.896-49.363,25.461c-2.857,1.519-4.677,3.235-5.832,4.895
		l63.528,31.881L131.102,24.642z M27.417,35.075c-0.854-0.878,19.117-17.813,18.901-17.731c-0.738-0.381-23.307,14.188-24.6,14.662
		c-1.294,0.475-5.367-2.344-5.367-2.344C16.006,28.145,62.225,4.239,63.381,3.75c1.155-0.488,4.784,1.668,5.833,2.51
		c0,0-26.891,20.437-26.401,20.924c0,0,28.498-19.217,29.564-19.936c0.707-0.477,6.875,1.352,6.787,1.832
		S35.408,37.025,34.029,38.295C33.024,38.606,28.684,35.564,27.417,35.075z M45.516,43.795c-6.345-2.903,7.498-14.979,14.591-20.388
		C67.198,18,79.637,9.721,87.095,12.592c6.503,2.508-1.511,10.619-13.008,18.903C62.171,40.078,54.258,47.791,45.516,43.795z
		 M83.05,33.834c0,0-21.337,17.617-22.334,17.593c-0.998-0.022-4.924-2.644-5.617-3.097c-0.696-0.453,41.63-30.632,42.078-30.954
		c0.449-0.323,6.723,1.827,6.875,2.55c0.151,0.721-22.423,23.381-21.77,23.197c0,0,29.377-19.293,30.191-19.828
		c0.814-0.533,6.918,2.144,7.173,2.996c0.256,0.852-47.411,30.032-48.482,29.885c-1.069-0.146-4.736-2.365-5.336-2.537
		C65.229,53.469,83.845,34.168,83.05,33.834z"/>
	<path fill="#D74C46" d="M82.729,16.184c-3.41-1.655-12.255,4.361-20.041,10.439C55.734,32.052,48.659,37.146,50.85,39.1
		c2.488,2.217,16.954-8.949,19.291-10.702C72.48,26.644,86.138,17.84,82.729,16.184z"/>
	<path fill="#FFFFFF" d="M78.858,9.562c0.086-0.468-5.924-2.249-6.612-1.784c-1.039,0.7-28.803,19.422-28.803,19.422
		C42.966,26.725,69.164,6.814,69.164,6.814c-1.021-0.82-4.557-2.921-5.683-2.445c-1.126,0.477-46.155,23.767-45.818,25.245
		c0,0,3.969,2.745,5.229,2.283c1.26-0.462,23.247-14.656,23.966-14.285c0.21-0.079-19.247,16.42-18.415,17.275
		c1.234,0.477,5.463,3.44,6.442,3.137C36.229,36.787,78.772,10.03,78.858,9.562z"/>
	<path fill="#FFFFFF" d="M118.298,26.33c-0.248-0.831-6.194-3.438-6.988-2.919c-0.793,0.521-29.414,19.317-29.414,19.317
		c-0.636,0.179,21.357-21.898,21.209-22.601c-0.148-0.704-6.26-2.799-6.697-2.483c-0.438,0.313-41.673,29.715-40.995,30.156
		c0.675,0.441,4.5,2.995,5.473,3.018c0.971,0.023,21.758-17.14,21.758-17.14c0.775,0.325-17.361,19.129-16.778,19.294
		c0.584,0.168,4.157,2.33,5.199,2.472C72.108,55.589,118.548,27.159,118.298,26.33z"/>
	<path fill="#FFFFFF" d="M86.585,12.983c-7.266-2.798-19.384,5.269-26.293,10.537C53.381,28.789,39.8,39.9,46.076,43.383
		c8.189,4.543,16.227-3.621,27.835-11.983C85.112,23.329,92.92,15.427,86.585,12.983z M51.273,38.809
		c-2.134-1.904,5.135-6.894,11.909-12.183c7.586-5.921,15.827-11.756,19.149-10.144c3.321,1.613-10.293,10.384-12.573,12.093
		C67.481,30.283,53.697,40.968,51.273,38.809z"/>
	<g>
		<path fill="#AAC53C" d="M73.659,69.191l61.164-37.596c3.578,3.928,4.073,71.236,2.854,72.005
			c-1.511,0.948-55.217,35.005-64.765,39.356L73.659,69.191z"/>
		<g>
			<path fill="#FFFFFF" d="M115.688,86.33c-0.035-8.246-0.916-27.42-8.335-27.42c-0.585,0-1.199,0.122-1.827,0.364
				c-7.2,2.776-7.489,12.406-7.934,26.982l-0.058,1.916c-0.278,8.946,1.016,19.597,4.54,23.233c0.86,0.891,1.831,1.34,2.885,1.34
				h0.002c0.57,0,1.165-0.133,1.772-0.399c9.086-3.987,9.012-16.067,8.961-24.886L115.688,86.33z"/>
			<path fill="#AAC53C" d="M107.257,105.406c-0.425,0.215-0.767,0.152-1.123-0.21c-2.387-2.393-2.869-14.922-2.854-19.124
				c0.042-11.652,1.302-19.109,3.374-19.949c0.107-0.043,0.208-0.063,0.3-0.063c2.435,0,3.061,12.572,3.295,17.305l0.071,1.396
				c0.037,0.741,0.093,1.554,0.149,2.415C110.896,93.58,111.54,103.256,107.257,105.406z"/>
		</g>
		<g>
			<path fill="#FFFFFF" d="M90.198,68.721c-0.916-0.167-2.005,0.386-2.375,0.5c-3.625,1.125-5.964,1.947-7.375,3.375
				c-0.708,0.717-0.59,4.222-0.657,5.942c-0.218,5.558-0.644,50.282-0.093,50.433c0,0,6.746-3.536,6.75-4.5
				c0.004-0.539-0.2-17.818-0.25-20.375c1.323-0.568,7.089-2.879,8.949-8.02c1.066-2.946,1.675-10.033,1.253-14.58
				C95.948,76.607,95.511,69.687,90.198,68.721z"/>
			<path fill="#AAC53C" d="M90.073,94.596c-1.065,1.007-3.213,2.268-4.07,2.655l-0.43-19.28c0.146-0.308,0.158-1.717,1.75-2.125
				c0.321-0.082,0.979-0.125,1.25-0.125c2.293,0,2.523,3.772,2.584,6.583c0.01,0.43,0.015,0.834,0.041,1.084
				C91.477,86.089,91.46,93.291,90.073,94.596z"/>
		</g>
		<g>
			<path fill="#FFFFFF" d="M133.222,55.682c-0.432-4.656-2.233-7.463-5.351-8.348c-2.528-0.722-8.989,2.563-10.899,4.498
				c-0.445,0.449-0.649,0.818-0.647,1.162c0.009,0.719,2.996,52.971,3.499,53.102c0.075,0.021,0.166,0.058,0.249,0.029
				c1.197-0.402,5.37-2.832,5.376-3.779c0.002-0.547-0.847-18.561-1-21.25c1.393-0.576,7.32-3.325,8.621-8.963
				C133.863,68.684,133.914,63.146,133.222,55.682z"/>
			<path fill="#AAC53C" d="M128.677,69.619c-0.129,1.873-3.007,3.757-4.636,4.613c-0.275-3.273-1.516-17.993-1.604-18.946
				c-0.01-0.101,0.058-0.292,0.271-0.528c0.477-0.521,1.523-1.081,2.697-1.081c0.415,0,0.812,0.071,1.178,0.21
				C128.716,54.699,129.09,63.577,128.677,69.619z"/>
		</g>
	</g>
	<g>
		<path fill="#E69361" d="M65.371,69.191l-0.747,73.766c-4.315,0.051-61.649-28.285-63.797-35.936
			c-1.301-4.629-1.254-57.926,1.496-68.426L65.371,69.191z"/>
		<g>
			<path fill="#FFFFFF" d="M38.763,68.041c-0.531-0.202-1.051-0.305-1.554-0.305c-4.452,0-7.225,7.728-8.48,23.626
				c-0.06,0.767-0.13,1.575-0.205,2.418c-0.764,8.593-1.811,20.358,5.716,23.744c0.5,0.223,0.994,0.338,1.468,0.338
				c4.94,0,6.714-11.609,8.516-26.782C45.871,77.194,46.284,70.934,38.763,68.041z"/>
			<path fill="#E69361" d="M39.375,92.048l-0.07,0.753c-0.782,9.015-2.622,18.342-4.355,18.342c-0.074,0-0.148-0.023-0.233-0.065
				c-2.197-1.139-1.664-9.024-1.146-16.714c1.128-16.767,3.014-20.284,4.398-20.284c0.096,0,0.193,0.018,0.294,0.052
				C39.272,74.478,40.756,77.266,39.375,92.048z"/>
		</g>
		<path fill="#FFFFFF" d="M30.729,70.946c0.747-0.096,1.162-1.824,1.379-3.258c0.304-2.005,0.184-3.148-0.362-3.397l-11.428-5.517
			l-0.207-0.047c-0.456,0-0.63,0.558-0.758,1.077c-0.114,0.465-0.896,4.911,0.006,5.387l2.366,1.246
			c-1.452,28.368-1.937,42.997-1.443,43.479c0.55,0.531,3.095,2.264,4.117,2.264c0.165,0,0.307-0.04,0.422-0.117
			c0.335-0.227,0.437-0.297,1.284-21.372c0.374-9.259,0.79-19.671,1.065-21.617c0.658,0.15,2.013,1.132,2.526,1.443
			C30.146,70.788,30.41,70.962,30.729,70.946z"/>
		<path fill="#FFFFFF" d="M9.087,63.272c0.248-1.056,0.763-1.66,1.41-1.66c0.5,0,1.055,0.361,1.479,0.966
			c0.377,0.537,1.512,2.556,0.293,6.016c-0.062,0.183-0.091,0.475,0.155,0.824c0.607,0.863,2.769,1.739,3.632,1.739
			c0.421,0,0.569-0.216,0.621-0.348c0.215-0.543,1.091-4.578,1.006-8.022c-0.049-1.971-0.734-6.687-6.04-7.967
			c-0.258-0.062-0.533-0.095-0.819-0.095c-2.24,0-6.533,2.222-6.757,10.619C3.951,69.744,6.481,75.81,8.927,81.678
			c2.301,5.517,4.475,10.727,4.158,13.866c-0.485,4.771-1.826,5.14-2.224,5.14c-0.358,0-0.747-0.221-1.096-0.619
			c-0.504-0.579-0.8-1.407-0.72-2.021c0.35-2.659,0.715-6.294,0.722-6.331l0.026-0.248l-0.209-0.139
			c-0.866-0.573-3.757-2.447-4.653-2.447H4.924c-1.015,0.147-1.217,5.112-1.208,9.251c0.005,2.6,2.743,8.692,8.031,8.694h0.002
			c0.435,0,0.884-0.044,1.332-0.131c4.545-0.875,6.155-6.864,6.153-11.725c0-3.172-2.784-10.23-5.475-17.056
			C11.259,71.572,8.673,65.017,9.087,63.272z"/>
		<g>
			<path fill="#FFFFFF" d="M49.628,73.798c-0.771,0-1.311,0.233-1.605,0.694c-1.296,2.035-4.673,44.025-3.844,47.799
				c0.043,0.201,0.114,0.423,0.305,0.544c0.225,0.145,0.548,0.384,0.934,0.669c1.458,1.079,3.45,2.559,4.798,2.559l0.402-0.005
				l0.02-0.389c0.047-0.97,0.335-18.867,0.388-22.245c0.573,0.13,1.548,0.307,2.545,0.307c1.175,0,2.079-0.249,2.676-0.74
				c3.295-2.694,5.293-7.782,5.211-13.275c-0.062-4.469-0.341-8.725-2.978-11.667C57.048,76.448,52.227,73.798,49.628,73.798z"/>
			<path fill="#E69361" d="M55.925,93.342c-0.39,1.824-0.92,2.864-1.272,3.087c-0.623,0.395-1.854,0.611-3.462,0.611
				c-0.167,0-0.314-0.004-0.439-0.007c0.548-7.177,1.454-14.832,1.982-15.447c0.854-0.311,1.502,0.438,2.435,1.856
				C56.662,85.708,56.608,90.163,55.925,93.342z"/>
		</g>
	</g>
	<path fill="#FFFFFF" d="M142.144,35.623c0.298,0.03,3.635,0.397,3.555-0.315c-0.078-0.712-0.188-11.594,0.129-11.633
		c0.547-0.067,3.914,0.158,4.016-0.317c0.15-0.694,0.15-3.121-0.35-3.148c-0.729-0.037-3.982-0.011-3.982-0.011
		c-0.158-0.712-0.395-8.579-0.07-8.629c1.521-0.244,4.338,0.367,4.369,0.026c0.031-0.767,0.129-3.231-0.268-3.231
		c-0.371,0-4.703-0.157-6.719,0c-0.536,0.041-0.68,0.213-0.68,0.886C142.222,10.198,141.843,35.596,142.144,35.623z"/>
	<path fill="#FFFFFF" d="M150.728,35.709c0.39,0.039,2.865,0.351,2.865-0.281c0-0.633-0.425-20.874-0.09-20.809
		c0.338,0.064,2.047,20.796,2.838,20.952c0.789,0.159,2.528,0.237,2.883,0c0.357-0.239,1.807-20.495,2.192-20.509
		c0.387-0.014-0.501,20.232,0.062,20.232c0.563,0,2.201,0.013,2.615-0.158c0.417-0.172,0.014-26.427-0.619-26.585
		c-0.632-0.159-4.051-0.289-4.051,0.025c0,0.317-1.4,20.275-1.779,20.275c-0.377,0-1.997-20.429-2.313-20.484
		c-0.315-0.054-3.588-0.103-4.037,0.291C150.846,9.051,150.337,35.668,150.728,35.709z"/>
</g>
</svg>
