<?xml version="1.0" encoding="utf-8"?>
<!-- Generator: Adobe Illustrator 16.0.0, SVG Export Plug-In . SVG Version: 6.00 Build 0)  -->
<!DOCTYPE svg PUBLIC "-//W3C//DTD SVG 1.1//EN" "http://www.w3.org/Graphics/SVG/1.1/DTD/svg11.dtd">
<svg version="1.1" id="Layer_1" xmlns="http://www.w3.org/2000/svg" xmlns:xlink="http://www.w3.org/1999/xlink" x="0px" y="0px"
	 viewBox="0 0 140.672 169.085" enable-background="new 0 0 140.672 169.085"
	 xml:space="preserve">
<g>
	<path fill-rule="evenodd" clip-rule="evenodd" fill="#ED6425" d="M139.478,36.183c-9.689-49.251-78.18-33.929-78.18-33.929
		l-0.866,0.17c0,0-69.188,11.766-59.502,61.017C8.573,102.283,70.795,173.3,93.216,168.889l0.801-0.157
		C116.443,164.321,147.12,75.025,139.478,36.183z"/>
	<path fill-rule="evenodd" clip-rule="evenodd" fill="#FFFFFF" d="M36.285,21.373c5.005-0.919,11.161,3.112,10.769,8.759
		c-0.207,2.941-2.547,3.77-2.156,7.61c0.365,3.57,3.047,7.151,3.733,10.912c0.239,1.308,0.04,3.263-1.146,3.446
		c-2.04,0.311-3.491-4.505-4.309-6.462c-0.589-1.403-1.947-6.54-4.165-6.458c-2.269,0.077-1.68,4.697-2.011,6.744
		c-0.347,2.158-1.133,5.189-4.021,4.596c-3.021-0.619-1.573-7.669-1.005-11.054c0.684-4.056,0.155-8.715,0.575-13.212
		C32.802,23.558,33.907,21.806,36.285,21.373z"/>
	<path fill-rule="evenodd" clip-rule="evenodd" fill="#FFFFFF" d="M106.354,23.526c4.957-0.775,8.933,4.082,9.479,9.189
		c0.387,3.608-0.11,8.461-2.01,11.2c-1.605,2.315-6.023,4.368-9.479,2.439c-4.508-2.514-5.119-17.759-1.004-21.536
		C104.079,24.139,104.983,23.74,106.354,23.526z"/>
	<path fill-rule="evenodd" clip-rule="evenodd" fill="#FFFFFF" d="M73.617,25.249c2.273-0.202,6.895,0.416,8.474,1.293
		c5.041,2.804,7.01,13.078,2.439,18.667c-0.91,1.111-2.875,2.377-4.307,3.158c-1.594,0.869-3.474,2.034-5.458,1.866
		c-2.354-0.196-4.005-2.613-4.164-4.738c-0.054-0.702,0.444-2.051,0.573-3.302c0.247-2.403-0.375-6.258-0.573-8.474
		C70.276,30.097,69.481,25.617,73.617,25.249z"/>
	<path fill-rule="evenodd" clip-rule="evenodd" fill="#FFFFFF" d="M68.306,44.92c-3.188,3.932-4.91-2.024-8.188-2.009
		c-1.31,0.005-2.544,1.097-3.302,1.864c-0.748,0.761-1.512,2.507-2.586,2.442c-2.257-0.135-1.254-6.95-1.004-9.622
		c0.496-5.291-0.396-14.565,6.03-11.484c2.614,1.25,3.966,5.834,5.313,8.614c0.824,1.699,1.52,3.285,2.154,4.882
		C67.362,41.208,68.378,42.797,68.306,44.92z"/>
	<path fill-rule="evenodd" clip-rule="evenodd" fill="#FFFFFF" d="M91.995,26.399c4.623-1.342,3.784,7.403,3.591,11.773
		c-0.107,2.483,0.337,6.39-1.581,6.604c-2.195,0.25-2.102-4.684-2.583-7.324C90.731,33.67,88.822,27.32,91.995,26.399z"/>
	<path fill-rule="evenodd" clip-rule="evenodd" fill="#ED6425" d="M38.868,26.829c3.303-0.717,3.195,5.38,0.574,5.458
		C36.715,32.367,36.12,27.425,38.868,26.829z"/>
	<path fill-rule="evenodd" clip-rule="evenodd" fill="#ED6425" d="M77.029,30.083c1.899-0.478,4.857,4.399,4.913,7.31
		c0.068,3.32-1.746,7.083-3.585,7.307c-3.007,0.36-2.751-2.901-2.923-6.511c-0.187-3.892-0.771-6.461,1.328-7.971
		C76.864,30.144,76.86,30.126,77.029,30.083z"/>
	<path fill-rule="evenodd" clip-rule="evenodd" fill="#ED6425" d="M107.794,31.421c3.488-0.991,4.293,9.37,0.283,9.049
		C105.652,40.276,105.43,32.094,107.794,31.421z"/>
	<path fill-rule="evenodd" clip-rule="evenodd" fill="#FFFFFF" d="M92.427,76.655c-2.122-0.192-2.195-2.505-4.164-2.873
		c-5.205-0.969-2.105,6.523-5.457,6.75c-3.465,0.232-3.314-10.49-3.443-14.217c-0.096-2.651-0.732-5.941,0.285-8.039
		c0.927-1.919,3.388-3.1,5.17-3.304c4.82-0.555,9.596,3.924,9.188,8.903c-0.271,3.36-2.525,5.392-2.15,9.045
		C91.976,74.115,92.732,74.975,92.427,76.655z"/>
	<path fill-rule="evenodd" clip-rule="evenodd" fill="#FFFFFF" d="M120.286,55.404c4.104-0.578,9.375,2.108,9.904,5.889
		c0.432,3.075-1.395,4.62-0.719,7.896c0.543,2.601,3.408,6.391,0.863,7.179c-1.836,0.572-3.182-1.498-3.877-2.439
		c-0.848-1.146-1.563-2.891-3.303-2.874c-3.273,0.038-1.764,6.052-4.738,6.033c-2.863-0.023-2.401-9.326-2.584-13.499
		c-0.092-2.06-0.419-5.213,0.717-6.606C117.454,55.883,119.302,55.544,120.286,55.404z"/>
	<path fill-rule="evenodd" clip-rule="evenodd" fill="#FFFFFF" d="M102.621,55.69c2.22-0.342,4.827,0.762,6.03,1.866
		c3.418,3.137,5.824,11.851,2.013,16.514c-2.036,2.49-7.054,5.848-10.483,2.727c-2.359-2.145-2.754-9.247-2.441-13.925
		C97.982,59.23,99.086,56.235,102.621,55.69z"/>
	<path fill-rule="evenodd" clip-rule="evenodd" fill="#FFFFFF" d="M29.103,81.248c-1.968-1.739-2.509-4.236-3.876-6.75
		c-0.925-1.693-2.521-6.05-4.737-5.741c-1.42,0.197-1.403,2.986-1.578,4.45c-0.251,2.074-1.228,5.338-3.88,3.734
		c-1.476-0.889-1.059-4.389-0.718-7.61c0.533-5.034-1.428-11.462,2.587-12.062c2.856-0.428,4.187,1.934,5.313,3.735
		c0.757,1.215,1.749,2.615,2.583,3.877c1.351,2.043,3.658,6.86,6.03,6.748c1.88-0.09,2.941-3.153,3.59-4.737
		c0.911-2.222,1.525-4.147,2.585-5.6c0.895-1.229,2.542-2.925,4.741-2.442c3.074,0.669,2.561,7.007,3.012,10.338
		c0.386,2.845,1.9,10.391-1.435,10.48c-3.613,0.101-1.44-7.535-4.451-7.896c-1.853-0.22-2.929,2.529-3.734,4.309
		C33.801,79.027,33.363,81.69,29.103,81.248z"/>
	<path fill-rule="evenodd" clip-rule="evenodd" fill="#FFFFFF" d="M74.193,79.813c-3.796,0.167-2.79-6.25-6.607-5.886
		c-3.307,0.313-0.32,7.32-3.59,7.32c-1.933,0-1.724-2.882-1.867-5.456c-0.11-2.01-0.546-4.753-0.719-7.464
		c-0.359-5.712-2.342-10.892,4.308-10.913c4.053-0.015,7.73,1.912,8.33,5.887c0.355,2.369-1.131,4.599-1.15,7.178
		C72.874,73.887,75.819,76.793,74.193,79.813z"/>
	<path fill-rule="evenodd" clip-rule="evenodd" fill="#ED6425" d="M122.726,58.993c3.859-0.657,3.289,6.045-0.574,5.457
		C119.327,64.016,120.099,59.443,122.726,58.993z"/>
	<path fill-rule="evenodd" clip-rule="evenodd" fill="#ED6425" d="M85.104,59.569c3.627-0.566,3.877,7.082,0,6.605
		C82.367,65.834,82.202,60.02,85.104,59.569z"/>
	<path fill-rule="evenodd" clip-rule="evenodd" fill="#FFFFFF" d="M51.934,61.292c3.368-1.263,3.884,2.996,4.163,6.891
		c0.261,3.573,0.953,6.571,0.577,9.188c-0.236,1.652-1.326,3.035-2.729,2.873c-2.337-0.264-2.114-4.499-2.442-7.61
		C51.078,68.584,49.814,63.309,51.934,61.292z"/>
	<path fill-rule="evenodd" clip-rule="evenodd" fill="#ED6425" d="M67.3,62.007c2.78-0.503,2.67,4.224,0.286,4.308
		C65.281,66.397,64.926,62.439,67.3,62.007z"/>
	<path fill-rule="evenodd" clip-rule="evenodd" fill="#ED6425" d="M104.202,63.013c2.951-0.568,4.034,9.821,0.717,10.193
		C100.839,73.667,101.093,63.612,104.202,63.013z"/>
	<path fill-rule="evenodd" clip-rule="evenodd" fill="#FFFFFF" d="M77.927,87.281c7.021-1.03,12.322,3.564,11.629,10.339
		c-0.256,2.499-2.125,4.739-2.156,7.18c-0.014,1.373,3.402,7.15,0.434,7.753c-2.863,0.584-3.09-3.908-5.742-3.591
		c-2.104,0.252-1.219,5.002-4.021,5.315c-4.48,0.496-3.803-6.248-4.164-10.626c-0.387-4.623-1.152-7.866-1.008-10.916
		C73.066,89.212,75.284,87.667,77.927,87.281z"/>
	<path fill-rule="evenodd" clip-rule="evenodd" fill="#FFFFFF" d="M37.287,87.711c4.598-0.368,9.113,3.32,9.336,7.611
		c0.163,3.173-1.592,6.247-3.162,7.609c-1.951,1.695-4.624,2.292-5.454,4.595c-0.713,1.965-0.115,5.15-2.154,5.457
		c-3.045,0.458-3.321-5.513-3.733-8.903c-0.61-5.037-2.16-11.634,0.144-14.36C33.271,88.532,35.405,87.861,37.287,87.711z"/>
	<path fill-rule="evenodd" clip-rule="evenodd" fill="#FFFFFF" d="M69.597,113.412c-6.173,0.947-4.809-7.116-10.195-7.034
		c-1.898,0.03-2.955,1.276-3.733,2.729c-0.731,1.367-1.226,3.592-2.871,3.592c-1.925,0-2.503-2.989-2.298-6.034
		c0.196-2.894,0.784-5.886,1.435-9.618c0.658-3.769,0.873-8.805,4.163-9.191c3.56-0.42,4.681,3.271,6.032,6.176
		c2.07,4.439,4.156,8.05,6.319,12.348C69.414,108.301,70.968,111.016,69.597,113.412z"/>
	<path fill-rule="evenodd" clip-rule="evenodd" fill="#FFFFFF" d="M113.679,111.403c-2.918,0.48-4.08-1.225-5.742-2.582
		c-1.371-1.12-3.556-3.516-5.315-3.303c-2.765,0.33-0.974,6.142-4.021,6.462c-4.182,0.432-3.495-7.881-3.591-12.637
		c-0.071-3.735-1.645-10.134,1.438-10.77c3.048-0.634,2.604,3.36,4.883,3.59c2.237,0.225,3.785-3.236,6.172-3.59
		c4.555-0.68,3.691,3.857,1.723,6.03c-1.238,1.366-3.367,2.37-3.443,4.311c-0.107,2.688,3.354,4.338,5.168,5.885
		C112.882,106.445,115.7,108.043,113.679,111.403z"/>
	<path fill-rule="evenodd" clip-rule="evenodd" fill="#ED6425" d="M81.227,90.441c3.857-0.732,5.069,9.096,0.434,8.902
		C78.935,99.226,78.132,91.026,81.227,90.441z"/>
	<path fill-rule="evenodd" clip-rule="evenodd" fill="#ED6425" d="M58.455,33.01c3.165-0.599,4.159,7.464,0.356,7.305
		C56.573,40.219,55.917,33.491,58.455,33.01z"/>
	<path fill-rule="evenodd" clip-rule="evenodd" fill="#ED6425" d="M57.485,95.362c3.165-0.601,4.16,7.463,0.356,7.305
		C55.606,102.571,54.948,95.841,57.485,95.362z"/>
	<path fill-rule="evenodd" clip-rule="evenodd" fill="#ED6425" d="M38.202,93.585c3.734-1.321,4.463,6.167,0.589,5.662
		C36.653,98.967,35.92,94.391,38.202,93.585z"/>
</g>
</svg>
