<?xml version="1.0" encoding="utf-8"?>
<!-- Generator: Adobe Illustrator 16.0.0, SVG Export Plug-In . SVG Version: 6.00 Build 0)  -->
<!DOCTYPE svg PUBLIC "-//W3C//DTD SVG 1.1//EN" "http://www.w3.org/Graphics/SVG/1.1/DTD/svg11.dtd">
<svg version="1.1" id="Layer_1" xmlns="http://www.w3.org/2000/svg" xmlns:xlink="http://www.w3.org/1999/xlink" x="0px" y="0px"
	 viewBox="0 0 208.297 176.833" enable-background="new 0 0 208.297 176.833"
	 xml:space="preserve">
<g>
	<path fill="none" stroke="#FFFF00" stroke-width="1.7725" stroke-miterlimit="10" d="M26.608,114.34"/>
	<path fill="#BB0237" d="M187.336,84.883c0,22.674-8.829,43.988-24.856,60.021c-16.031,16.032-37.344,24.862-60.012,24.862
		c-22.669,0-43.981-8.83-60.012-24.862c-16.028-16.033-24.859-37.348-24.859-60.021c0-22.673,8.831-43.99,24.859-60.021
		C58.486,8.828,79.799,0,102.468,0c22.668,0,43.98,8.828,60.012,24.861C178.507,40.893,187.336,62.21,187.336,84.883"/>
	<path fill="#F5F5F5" d="M98.543,174.484c0,0-4.157-3.118-4.157-3.768c0-0.65-0.26-19.491-0.26-19.491l-4.419-6.627l-4.417-5.197
		l0.389-3.898l2.469-4.417l-5.197-6.107l-3.639-6.627l-2.729-6.367l1.43-3.379l4.679-8.445l3.508-4.028l2.21-5.327l1.428-5.458
		l5.719-4.287l6.756-0.78h7.406l5.066,1.949l4.029,4.418l1.559,8.576l3.119,6.367l1.3,6.236l3.378,4.158l-1.949,5.457l-2.078,7.667
		l-3.77,2.208l-1.43,4.808l0.521,4.938l1.43,2.209l-0.259,1.56l-6.888,8.056l-0.26,5.847l0.39,11.825l1.168,1.948l-0.129,3.119
		l-2.729,2.339l-4.808,1.949l-1.169-1.43l-0.521-4.158l-1.3-0.779l-1.168,1.43l-0.26,2.728l0.519,1.56l-1.429,0.909L98.543,174.484z
		"/>
	<g>
		<g>
			<path d="M103.062,90.995c0,0,0.465,1.163-0.158,1.71c-0.623,0.548-0.529,0.907-0.432,1.445c0.096,0.538,0.557,1.521,0.203,1.977
				c-0.354,0.453-0.619,0.726-0.165,1.26c0.457,0.534,0.913,0.979,0.735,1.25c-0.177,0.271-0.888,0.911-0.791,1.449
				c0.096,0.538,0.735,1.25,0.652,1.97c-0.08,0.72,0.113,1.797-0.153,2.16c-0.265,0.363-0.345,1.173-0.608,1.626
				s-0.62,0.816-0.523,1.265c0.094,0.449,0.289,1.617,0.564,2.062c0.274,0.446,0.462,0.984,0.467,1.523
				c0.008,0.541,0.028,2.247-0.236,2.701c-0.263,0.454-0.795,1.089-0.795,1.089c0.189,0.729,0.025,2.158,0.124,2.696
				c0.097,0.538,0.112,1.975,0.028,2.337c-0.088,0.361-1.663,3.887-2.371,4.706c-0.709,0.816-1.426,1.096-1.146,1.902
				c0.278,0.806,0.203,1.886,0.028,2.248c-0.178,0.362-1.598,1.728-1.593,2.178c0.005,0.449-0.437,1.084-0.701,1.447
				c-0.267,0.363-0.532,0.545-0.808,0.188c-0.273-0.355-2.287-3.209-3.012-3.649c-0.726-0.439-2.094-1.952-2.543-2.037
				c-0.451-0.084,0.273,0.357,0.914,1.158c0.637,0.801,1.547,1.51,1.826,2.315c0.279,0.807,0.553,1.071,1.098,1.515
				c0.545,0.442,1.268,0.883,1.273,1.244c0.004,0.359,0.365,0.354,0.551,0.804c0.186,0.445-0.591,3.244-0.311,4.139
				c0.282,0.896,0.466,1.254,0.92,1.698c0.455,0.445,1.456,1.419,1.646,2.227c0.189,0.809,0.117,2.247,0.223,3.504
				c0.105,1.26,0.673,3.501,0.326,4.494c-0.948,3.338-0.688,2.616-0.948,3.338c-0.263,0.725-0.601,2.437-0.503,3.064
				c0.097,0.626-0.025,5.216,0.35,6.47c0.375,1.255,0.381,1.795,0.479,2.512c0.099,0.718-0.413,2.885,0.224,3.685
				c0.643,0.802,0.65,1.521,1.549,1.51c0.899-0.012,2.247-0.118,2.508-0.84c0.262-0.723,0.938-4.149,0.569-4.771
				c-0.366-0.628-0.632-7.728-0.459-8.27c0.172-0.541-0.11-1.617-0.376-1.345c-0.268,0.273-1.146,1.903-1.14,2.533
				c0.009,0.629-0.616,0.996-0.715,0.278c-0.1-0.718-0.642-8.175-0.473-9.166c0.168-0.992,0.767-3.428,0.399-4.143
				c-0.368-0.715-1.215-3.671-1.584-4.566c-0.371-0.895-0.756-2.778-0.399-3.232c0.354-0.452,1.415-1.816,1.673-2.718
				c0.26-0.903,0.967-1.811,0.247-1.981c-0.722-0.171-0.73-0.801-0.376-1.345c0.352-0.544,1.334-1.185,1.234-1.903
				c-0.1-0.718-0.02-1.528,0.424-2.164c0.443-0.635,2.305-2.726,2.301-3.083c-0.005-0.362,0.529-0.818,0.622-0.549
				c0.095,0.268,0.375,1.255,0.655,2.149c0.282,0.896,1.113,2.685,1.39,3.311c0.278,0.625,1.189,1.604,1.831,2.495
				c0.64,0.891,1.097,1.605,1.375,2.232c0.277,0.625,1.193,1.963,1.113,2.772c-0.081,0.811-0.606,1.896-0.867,2.529
				c-0.264,0.633-0.26,0.902,0.01,0.988c0.271,0.088,1.701-0.649,1.875-1.191s0.521-1.534,0.333-2.252
				c-0.189-0.718-0.75-2.418-0.307-2.964c0.441-0.545,1.595-1.907,2.125-2.544c0.532-0.636,1.956-2.002,1.683-2.358
				c-0.275-0.355-0.186-0.356-0.717,0.278c-0.533,0.636-2.047,1.914-2.486,2.638s-1.244,1.185-1.608,0.829
				c-0.364-0.354-2.46-2.578-2.466-3.117s-0.557-1.431-0.748-2.238c-0.189-0.808-1.951-5.281-2.588-5.724
				c-0.634-0.442-0.561-1.791-0.568-2.602c-0.013-0.808-0.131-3.234,0.131-3.778c0.265-0.542,1.059-1.812,0.777-2.617
				c-0.278-0.807-0.842-2.687-1.029-3.314c-0.188-0.627-0.202-1.796-0.032-2.518c0.172-0.721,0.96-2.441,0.772-2.977
				c-0.184-0.537-0.645-1.252-0.74-1.879c-0.099-0.63,0.338-1.893,0.689-2.347c0.354-0.455-0.553-1.163-0.74-1.789
				c-0.188-0.627-0.016-1.35,0.066-1.891c0.082-0.539-1.182-1.065-0.829-1.606c0.353-0.545,1.067-1.094,0.971-1.541
				C103.878,91.436,103.238,90.634,103.062,90.995z"/>
		</g>
		<g>
			<path d="M112.017,139.355c0,0-0.979,0.732-1.24,1.363c-0.264,0.634-0.882,1.45-0.877,1.9c0.006,0.45-0.434,1.265-0.246,1.891
				c0.188,0.627-0.181,7.287,0.1,8.182c0.282,0.896-0.315,3.602-0.037,4.318c0.279,0.714,0.295,1.975-0.243,2.161
				c-0.536,0.186-0.997-0.618-1.099-1.605c-0.102-0.988-0.477-2.243-0.66-2.511c-0.183-0.267-0.353,0.635-0.253,1.354
				c0.099,0.718-0.324,2.881-0.497,3.422c-0.174,0.541-0.437,1.084-0.807,0.37c-0.367-0.715-0.836-2.148-0.842-2.777
				c-0.008-0.63,0.109-5.577-0.166-6.022c-0.272-0.447-0.479-2.514-0.396-3.053c0.085-0.54-0.287-1.346-0.382-1.885
				c-0.096-0.539,0.324-2.882,0.32-3.24c-0.005-0.359-0.054-4.405-0.152-5.035c-0.098-0.626-0.038-3.057,0.047-3.508
				c0.085-0.45-0.123-2.695-0.311-3.323s-0.204-1.886-0.387-2.152c-0.184-0.269-0.543-0.174-0.449,0.095
				c0.094,0.27,0.567,2.241,0.394,2.782c-0.171,0.543-0.06,2.339-0.054,2.789c0.005,0.449,0.045,3.776,0.054,4.496
				c0.011,0.72,0.48,2.422,0.396,2.872c-0.084,0.451-0.434,1.265-0.338,1.803c0.097,0.538-0.035,4.408,0.063,5.035
				c0.097,0.627-0.165,1.351,0.114,2.066c0.278,0.717,0.492,3.591,0.408,3.953c-0.086,0.36-0.039,4.136-0.033,4.586
				c0.005,0.449-0.334,2.251-0.149,2.519c0.183,0.269,0.104,1.169,0.464,1.255c0.361,0.086,0.248-1.892,0.607-1.807
				c0.361,0.087,0.723,0.261,0.908,0.708s-0.152,2.249,0.216,2.965c0.368,0.715,0.734,1.25,0.833,1.879
				c0.098,0.629,0.373,0.984,0.826,1.337c0.454,0.355,1.443,0.523,1.902,1.328c0.461,0.804,0.647,1.25,0.017,1.258
				c-0.629,0.008-0.995-0.526-1.442-0.252c-0.445,0.276-0.89,0.639-0.434,1.084c0.453,0.443,1.17,0.166,1.711,0.338
				c0.541,0.174,0.988-0.102,1.436-0.376c0.445-0.276,1.417-1.635,1.5-2.178c0.086-0.54-0.293-1.974-1.017-2.325
				c-0.021-1.708-0.284-1.165-0.021-1.708c0.262-0.543-0.473-1.792-0.658-2.33c-0.188-0.537-0.137-3.774-0.143-4.405
				c-0.01-0.629-0.143-4.224-0.33-4.852c-0.189-0.626,0.225-3.688-0.055-4.314c-0.276-0.628-0.395-2.873-0.397-3.144
				s0.312-3.87,0.755-4.415c0.443-0.546,0.253-1.354,0.611-1.627C111.939,140.347,112.381,139.622,112.017,139.355z"/>
		</g>
		<g>
			<path d="M204.604,32.709c-1.69,0.134-8.58,1.621-13.482,7.121c-2.012,2.253-9.787,13.547-10.731,14.757
				c-0.944,1.212-7.401,10.777-8.011,11.609c-2.889,3.944-9.459,13.976-20.012,18.469c-0.891,0.379-4.902,1.213-6.821,1.284
				c-1.104,0.04-22.932-1.637-24.491-1.618s-2.158,0.098-2.158,0.098c-0.611-1.069-4.52-3.529-6.033-4.39
				c-1.004-0.569-4.951-0.793-10.711-0.723c-2.818,0.034-5.533,0.383-7.947,0.772c-3.275,0.527-5.419,4.08-5.523,4.261
				c0,0-1.203-0.207-2.161-0.316c-0.962-0.106-11.164-0.94-13.671-0.191c-2.51,0.752-5.209,0.543-6.885,0.804
				c-1.675,0.262-7.177,0.087-11.266-1.062c-4.092-1.147-14.605-11.69-18.993-17.392c-4.388-5.702-16.225-22.702-18.29-24.834
				c-0.744-0.771-4.596-5.863-7.501-7.986c-2.299-1.68-9.614-2.985-9.906-1.138c-0.147,0.934,1.392,0.881,3.082,1.94
				c1.302,0.813,6.535,7.52,7.763,9.78c1.227,2.265,4.76,10.493,6.384,15.75c1.622,5.256,5.546,12.281,6.773,14.664
				c1.228,2.384,5.379,8.446,8.901,12.122c3.521,3.672,9.45,8.037,13.303,9.308c3.852,1.271,9.262,2.524,14.422,2.701
				c5.156,0.176,8.254-0.102,10.777,0.228s2.82,0.325,4.262,0.547c1.441,0.223,3.393,0.988,5.179,0.872
				c-0.487,0.373-0.936,1.812-1.456,3.476c-0.568,1.812-1.209,3.866-1.941,4.616c-1.43,1.466-2.227,3.635-0.781,5.174
				c1.028,1.096,1.207,5.037,1.302,7.155c0.028,0.545,0.046,0.971,0.073,1.235c0.152,1.481,4.426,4.675,5.696,5.119
				c0.769,0.27,1.103,2.766,1.343,4.588c0.138,1.039,0.259,1.935,0.434,2.361c0.326,0.789-0.666,1.919-1.322,2.667
				c-0.249,0.284-0.443,0.506-0.541,0.675c-0.125,0.214-0.392,0.792-0.188,1.556c0.23,0.87,0.977,1.671,2.216,2.383
				c1.789,1.027,3.913,4.541,5.462,7.107c0.725,1.196,1.296,2.142,1.686,2.599c0.828,0.97,0.748,4.793,0.688,7.585
				c-0.023,1.137-0.045,2.115-0.003,2.73c0.077,1.142,0.031,3.334-0.007,5.268c-0.035,1.725-0.065,3.213-0.004,3.621
				c0.092,0.58,0.973,1.691,1.824,2.764c0.43,0.54,0.836,1.052,1.008,1.342c0.481,0.823,4.213,2.482,5.908,2.462
				c0.168-0.003,0.314-0.021,0.439-0.056c0.739-0.212,1.198-0.529,1.401-0.972c0.183-0.399,0.144-0.885-0.116-1.449
				c-0.266-0.58-0.188-0.914-0.071-1.418c0.081-0.349,0.181-0.78,0.173-1.39c-0.003-0.241,0.023-0.649,0.227-0.652
				c0.221-0.002,0.627,0.299,1.015,0.753c0.468,0.547,0.405,3.028,0.382,3.965c-0.007,0.211-0.011,0.376-0.009,0.473
				c0.003,0.297,0.243,0.558,0.677,0.731c0.36,0.146,0.837,0.225,1.309,0.218c0.27-0.003,0.525-0.032,0.762-0.089
				c1.113-0.261,6.152-3.577,6.89-4.843c0.732-1.254,0.581-3.719,0.198-4.943c-0.17-0.538-0.293-1.338-0.412-2.113
				c-0.144-0.931-0.28-1.809-0.492-2.22c-0.267-0.518-0.189-7.714-0.154-10.787c0.011-1.038,0.02-1.787,0.016-2.08
				c-0.014-1.158,3.431-5.174,5.365-6.759c2.187-1.796,2.123-3.627,2.053-4.146c-0.074-0.549-0.429-1.105-0.839-1.754
				c-0.343-0.54-0.989-0.888-1.015-1.861c-0.035-1.427,1.793-6.247,2.651-7.793c0.21-0.379,0.505-0.512,0.845-0.664
				c0.342-0.154,0.729-0.328,1.046-0.782c0.573-0.823,1.564-3.038,1.419-4.336c-0.07-0.614,0.944-2.974,1.761-4.867
				c0.855-1.983,1.378-3.222,1.37-3.666c-0.01-0.99-0.027-2.346-1.044-3.466c-0.948-1.04-2.646-3.974-2.778-5.259
				c-0.025-0.241-0.021-0.473-0.015-0.718c0.02-0.919,0.038-1.947-1.558-3.935c1.604-0.547,6.041-0.949,8.277-1.048
				c3.414-0.15,12.601,0.805,17.875,0.861c5.277,0.055,5.178,0.535,13.049-2.68c7.875-3.213,13.287-11.792,14.697-13.967
				c1.412-2.176,6.387-12.177,8.42-17.369c1.924-4.908,10.091-19.836,12.098-22.499c2.004-2.662,5.879-6.19,7.008-7.099
				c2.197-1.765,2.572-1.722,3.045-2.327C208.686,33.02,207.121,32.51,204.604,32.709z M126.326,110.809
				c0.925,1.016-0.081,1.558-0.151,2.487c-0.115,1.574-1.232-0.588-3.323,1.283c-1.729,1.548-3.571,3.548-3.106,5.624
				c0.25,1.123,1.666,4.2,1.768,5.143c0.049,0.453-1.897,0.044-2.154,0.297c-1.021,1,0.396,2.572,0.127,3.054
				c-0.033,0.063-2.113,4.54-1.404,6.313c0.292,0.739,0.583,2.491,0.934,3.046c0.389,0.61,1.233,0.918,1.188,1.391
				c-0.078,0.812-1.32,0.442-2.664,2.719c-1.498,2.536-4.744,5.622-4.727,7.072c0.004,0.291-0.176,1.8-0.189,2.834
				c-0.069,6.396-0.133,7.377-0.033,8.229c0.048,0.402,0.063,3.992,0.193,4.854c0.125,0.788,0.76,2.395,0.938,2.956
				c0.371,1.188,1.233,2.155,0.58,3.275c-0.689,1.179-3.016,2.188-4.063,2.434c-0.581,0.137-0.934,0.757-1.432,0.559
				c-0.28-0.113-1.251,0.602-1.253,0.464c-0.002-0.096-0.682,0.123-0.676-0.082c0.047-1.846-0.064-4.187-0.553-4.76
				c-0.227-0.266-0.789-1.912-1.73-1.821c-0.674,0.064-1.787,1.029-1.775,1.866c0.006,0.563-0.259,1.319-0.34,1.667
				c-0.12,0.513-0.697,1.336-0.38,2.027c0.218,0.471,0.783,0.905,0.646,1.207c-0.156,0.337,0.243,0.635-0.4,0.544
				c-0.585-0.083-0.871-1.385-1.412-1.556c-1.554-0.498-2.096-0.167-2.482-0.825c-0.184-0.313-0.911-1.025-1.368-1.601
				c-0.706-0.891-1.536-0.567-1.411-1.333c0.062-0.376,0.561-1.295,0.594-2.93c0.041-1.942-0.341-3.739-0.42-4.896
				c-0.04-0.6-0.156-2.378-0.131-3.506c0.063-3.008,0.226-7.55-0.691-8.624c-0.369-0.434-1.331-2.031-2.016-3.167
				c-1.572-2.6-1.521-2.533-2.841-4.237c-1.69-2.183-3.296-2.421-3.503-3.194c-0.17-0.634-0.568-1.302-0.467-1.479
				c0.08-0.138-0.287-1.271-0.063-1.527c0.717-0.815,3.949-3.859,3.538-4.854c-0.16-0.384,0.012-2.652-0.986-3.359
				c-1.749-1.241-1.031-3.394-3.184-2.917c-1.434,0.317,0.358-2.557,0.188-4.755c-0.108-1.382-0.986-2.146-1.139-3.491
				c-0.258-2.306-4.514-3.173-5.634-4.364c-1.281-1.366,0.01-1.911,0.901-3.562c0.659-1.225,2.041-2.922,3.045-4.581
				c1.454-2.4,0.985-4.102,1.519-4.559c2.209-1.888,4.48-6.36,4.714-7.883c0.048-0.31,1.187-2.386,0.995-3.281
				c-0.331-1.564,0.602-2.211,1.129-3.251c0.527-1.041,1.571-1.88,4.362-3.561c1.829-1.102,5.004-1.5,6.815-1.521
				c5.615-0.069,8.521,0.433,9.455,0.963c1.445,0.82,5.152,4.226,5.727,5.235c0.172,0.299,0.17,2.301,0.314,3.503
				c0.35,2.94,2.204,6.486,3.753,8.979c1.328,2.143,0.755,2.96,0.999,4.438c0.038,0.243,0.173,1.53,0.201,1.796
				C122.988,106.979,125.347,109.735,126.326,110.809z"/>
		</g>
	</g>
	<path fill="#F5F5F5" d="M88.244,87.452c-0.093-0.552-1.64-1.564-2.57-1.667c-0.931-0.107-8.108-0.769-10.541-0.043
		c-2.431,0.728-4.245,0.5-5.868,0.755c-1.623,0.251-7.467,0.24-13.5-1.538c-6.652-1.957-16.355-11.392-20.605-16.915
		c-4.251-5.522-14.944-21.014-16.943-23.081c-0.724-0.747-2.868-3.821-5.682-5.88c-2.228-1.628-6-4.008-6.501-3.32
		c-0.541,0.74,0.086,0.994,1.724,2.018c1.262,0.79,5.365,5.463,6.555,7.654c1.188,2.193,6.344,9.687,7.915,14.777
		c1.573,5.094,5.354,11.381,6.542,13.69c1.191,2.309,4.813,8.579,8.225,12.138c3.413,3.559,8.69,6.776,12.424,8.01
		c3.73,1.23,8.799,2.209,13.799,2.379c4.996,0.171,7.043-0.266,9.486,0.054c2.443,0.317,2.527-0.092,3.924,0.122
		c1.398,0.215,5.486,0.273,5.951,0.098c0.467-0.175,2.289-0.539,3.948-3.79C88.187,89.663,88.337,88.003,88.244,87.452z"/>
	<path fill="#F5F5F5" d="M123.88,96.195c0.468,0.036,4.962-0.672,7.129-0.768c3.311-0.144,13.264,1.25,18.377,1.304
		c5.112,0.055,2.941,0.775,10.57-2.339c7.629-3.115,12.997-9.288,14.365-11.396c1.369-2.108,6.689-11.819,8.66-16.852
		c1.865-4.752,9.195-17.868,11.141-20.45c1.945-2.579,4.521-5.477,5.617-6.357c2.127-1.71,2.237-1.486,2.693-2.074
		c0.457-0.586-0.521-0.927-2.723-0.305c-1.581,0.445-4.183,0.901-8.935,6.229c-1.948,2.183-8.778,12.375-9.692,13.547
		c-0.914,1.174-7.252,11.19-7.843,11.996c-2.802,3.821-10.015,13.18-20.357,17.249c-2.453,0.964,0.64,1.522-1.915,1.213
		c-1.063-0.129-26.725-1.288-28.235-1.27c-1.509,0.02-1.866,0.15-2.027,0.875c-0.161,0.726-0.307,3.465,0.668,6.027
		C122.347,95.388,123.412,96.16,123.88,96.195z"/>
	<g>
		<g>
			<path d="M75.177,47.243c-0.946-0.338-1.174-2.184-1.197-3.677c-0.021-1.494-0.158-3.93-1.078-5.218
				c-0.92-1.286-2.764-2.716-3.885-3.172c-0.317-0.128,0.098-0.239,0.098-0.239c0.287-0.088,2.246-0.541,3.418-1.713
				c1.173-1.171,1.885-2.068,1.908-4.343c0.023-2.275-1.401-3.953-2.621-4.712c-1.217-0.758-3.665-1.973-6.41-1.24
				c-2.758,0.736-3.311,1.723-3.607,1.792c-0.253-0.092-1.715-1.107-2.643-1.264c-0.944-0.158-2.069-0.113-2.645,0.39
				c0,0,2.621,1.059,2.574,3.701c-0.045,2.644,0,4.961,0,5.352c0,0.393-0.688,2.485-1.516,2.806
				c0.688,0.345,1.492,1.361,1.492,2.372c0,1.013,0.023,5.281,0.023,5.97c0,0.691-1.102,2.781-2.597,2.874
				c0.646,0.666,3.333,1.172,5.171-0.851c1.24,1.633,3.248,1.6,4.375,0.84c-1.299-0.48-2.092-1.137-2.092-2.771
				c0-2.345-0.025-8.253-0.025-8.32c0.252-0.025,2.874-0.107,3.655,1.409c0.781,1.516,0.958,3.165,1.072,4.474
				c0.116,1.312,0.438,3.448,1.448,4.575c1.012,1.125,1.934,1.919,4.297,1.792c1.262-0.068,1.563-0.299,1.977-0.713
				C76.009,47.394,75.864,47.489,75.177,47.243z M63.921,34.35c0,0,0-6.182,0-7.1c0-0.92,0.195-2.137,1.154-2.781
				c0.815-0.548,2.199-0.69,2.936-0.438c0.736,0.254,2.579,0.759,2.637,3.127c0.066,2.715-0.252,4.896-1.424,5.768
				C68.053,33.798,65.853,35.177,63.921,34.35z"/>
		</g>
		<g>
			<path d="M76.223,73.789c-0.946-0.338-1.172-2.183-1.196-3.678c-0.021-1.492-0.16-3.929-1.08-5.216
				c-0.92-1.286-2.763-2.718-3.884-3.173c-0.317-0.128,0.1-0.239,0.1-0.239c0.288-0.086,2.245-0.541,3.417-1.714
				c1.172-1.171,1.885-2.066,1.908-4.343c0.022-2.276-1.404-3.952-2.621-4.71c-1.219-0.758-3.666-1.975-6.412-1.242
				c-2.758,0.736-3.309,1.725-3.607,1.794c-0.252-0.093-1.711-1.107-2.644-1.265c-0.942-0.159-2.065-0.114-2.64,0.391
				c0,0,2.619,1.056,2.571,3.7c-0.044,2.643,0,4.962,0,5.354c0,0.389-0.688,2.483-1.514,2.804c0.687,0.345,1.493,1.362,1.493,2.373
				c0,1.013,0.021,5.281,0.021,5.968c0,0.691-1.103,2.782-2.595,2.873c0.641,0.667,3.329,1.175,5.169-0.85
				c1.24,1.633,3.248,1.602,4.375,0.842c-1.298-0.481-2.093-1.139-2.093-2.772c0-2.344-0.023-8.253-0.023-8.321
				c0.254-0.022,2.873-0.105,3.654,1.411c0.781,1.516,0.959,3.165,1.074,4.476c0.113,1.311,0.436,3.447,1.447,4.572
				c1.011,1.128,1.933,1.921,4.298,1.792c1.26-0.067,1.562-0.298,1.975-0.712C77.056,73.938,76.911,74.034,76.223,73.789z
				 M64.968,60.896c0,0,0-6.182,0-7.101c0-0.92,0.193-2.135,1.154-2.781c0.814-0.547,2.199-0.689,2.935-0.437
				s2.579,0.757,2.637,3.126c0.068,2.715-0.252,4.895-1.425,5.768C69.099,60.345,66.897,61.723,64.968,60.896z"/>
		</g>
		<path d="M110.825,35.177c-0.037-0.015,0.082-0.089,0.082-0.089c0.287-0.084,2.262-0.691,3.433-1.863
			c1.173-1.171,1.886-2.068,1.909-4.343c0.021-2.275-1.402-3.953-2.619-4.712c-1.219-0.758-3.668-1.973-6.412-1.24
			c-2.758,0.736-3.311,1.723-3.609,1.792c-0.252-0.092-1.712-1.107-2.643-1.264c-0.942-0.158-2.067-0.113-2.643,0.39
			c0,0,2.62,1.059,2.574,3.701c-0.045,2.644,0,4.529,0,4.919c0,0.697-0.687,2.918-1.518,3.238c0.689,0.345,1.495,1.361,1.495,2.372
			c0,1.013,0.022,5.281,0.022,5.97c0,1.045-1.102,2.781-2.596,2.874c0.643,0.666,3.33,1.172,5.17-0.851
			c1.642,1.811,7.005,2.027,9.117,0.969c1.283-0.642,3.105-2.981,3.146-4.68c0.033-1.494-0.106-2.724-1.026-4.012
			C113.79,37.063,111.931,35.668,110.825,35.177z M105.729,27.25c0-0.92,0.193-2.137,1.153-2.781c0.816-0.548,2.2-0.69,2.937-0.438
			c0.734,0.254,2.578,0.759,2.637,3.127c0.066,2.715-0.252,4.896-1.424,5.768s-3.371,2.251-5.303,1.424
			C105.729,34.35,105.729,28.168,105.729,27.25z M105.762,45.021c-0.024-0.336-0.007-0.534-0.007-0.88
			c0-2.345-0.025-7.676-0.025-7.744c0.253-0.024,2.031-0.314,3.719-0.065c1.73,0.257,2.881,3.047,2.885,4.36
			C112.351,43.865,110.763,47.394,105.762,45.021z"/>
		<path d="M94.435,44.952c-0.049-0.024,0.738-1.334,0.89-1.854c0.743-2.602-0.812-3.975-1.055-4.107
			c-2.165,9.69-8.925,9.479-8.925,2.932c0-1.631,0-3.605,0.019-5.746c0.339,0.091,0.931,0.14,1.958,0.563
			c2.862,1.176,1.93,4.062,2.33,4.772c1.887-1.443,1.998-5.106-0.066-6.062c2.953-1.287,1.576-5.727,0.688-5.482
			c0.111,1.754-1.311,3.507-2.421,4.351c-0.821,0.626-1.946,0.628-2.476,0.588c0.045-3.679,0.156-7.128,0.434-7.802
			c0.467-1.134,1.697-2.332,2.896-2.332c1.434,0,5.031,2.914,5.662,7.392c2.265-2.597-0.067-5.593,0.168-5.728
			c2.782-1.589,1.181-3.763,0.998-3.395c-1.309,2.618-6.977-0.5-9.414,0.73c-2.391,1.211-2.375,1.998-2.575,2.331
			c-0.331-0.531-2.755-3.662-5.884-1.729c0,0,3.596,1.729,3.129,6.127c-0.466,4.395-0.932,4.595-1.863,5.127
			c0.865,0.466,2.33,2.864,1.863,5.727c-0.466,2.865-0.865,4.93-3.33,4.93c0.201,1.132,1.467,1.466,2.666,1.332
			c1.197-0.133,3.021-1.332,3.354-1.531c0.266,0.4,1.765,1.632,3.196,1.754c1.311,0.11,3.9-0.094,5.994-0.688
			c1.954-0.556,2.842,1.53,3.031,1.265C96.229,47.672,96.399,45.907,94.435,44.952z"/>
		<path d="M134.191,44.952c-0.05-0.024,0.739-1.334,0.888-1.854c0.743-2.602-0.811-3.975-1.055-4.107
			c-2.164,9.69-8.925,9.479-8.925,2.932c0-1.631,0-3.605,0.021-5.746c0.338,0.091,0.931,0.14,1.955,0.563
			c2.865,1.176,1.934,4.062,2.331,4.772c1.889-1.443,1.999-5.106-0.065-6.062c2.951-1.287,1.578-5.727,0.689-5.482
			c0.109,1.754-1.311,3.507-2.42,4.351c-0.822,0.626-1.95,0.628-2.478,0.588c0.044-3.679,0.155-7.128,0.435-7.802
			c0.466-1.134,1.695-2.332,2.896-2.332c1.432,0,5.028,2.914,5.659,7.392c2.265-2.597-0.065-5.593,0.168-5.728
			c2.784-1.589,1.183-3.763,1.001-3.395c-1.309,2.618-6.979-0.5-9.412,0.73c-2.395,1.211-2.379,1.998-2.578,2.331
			c-0.333-0.531-2.754-3.662-5.885-1.729c0,0,3.597,1.729,3.131,6.127c-0.467,4.395-0.933,4.595-1.865,5.127
			c0.864,0.466,2.331,2.864,1.865,5.727c-0.467,2.865-0.865,4.93-3.331,4.93c0.2,1.132,1.466,1.466,2.665,1.332
			c1.198-0.133,3.021-1.332,3.354-1.531c0.266,0.4,1.764,1.632,3.199,1.754c1.307,0.11,3.896-0.094,5.992-0.688
			c1.953-0.556,2.842,1.53,3.029,1.265C135.983,47.672,136.157,45.907,134.191,44.952z"/>
		<path d="M154.454,44.952c-0.049-0.024,0.74-1.334,0.889-1.854c0.742-2.602-0.812-3.975-1.055-4.107
			c-2.166,9.69-8.924,7.602-8.924,2.932c0-1.631,0.399-13.136,0.465-13.863c0.234-2.563,3.463-4.395,3.055-4.423
			c-4.616-0.319-5.119,2.134-5.318,2.467c-0.334-0.531-2.756-3.662-5.884-1.729c0,0,3.595,1.729,3.128,6.127
			c-0.465,4.395-0.933,4.595-1.865,5.127c0.867,0.466,2.332,2.864,1.865,5.727c-0.465,2.865-0.864,4.93-3.33,4.93
			c0.202,1.132,1.465,1.466,2.664,1.332c1.199-0.133,3.021-1.332,3.356-1.531c0.265,0.4,1.763,1.632,3.196,1.754
			c1.311,0.11,3.898-0.094,5.994-0.688c1.953-0.556,2.842,1.53,3.029,1.265C156.247,47.672,156.419,45.907,154.454,44.952z"/>
		<g>
			<path d="M118.999,54.038c-1.377-2.597-4.004-5.156-7.77-4.641c-3.057,0.419-3.77,1.403-4.042,2.212
				c-0.527-1.009-2.067-2.934-5.72-1.105c0,0,2.979,0.241,3.072,4.749c0.062,3.037-0.809,6.209-1.957,6.682
				c0.877,0.81,2.294,3.239,1.754,6.072c-0.539,2.836-1.214,4.994-3.238,4.658c0.202,1.484,2.024,1.553,2.902,1.281
				c0.876-0.27,2.715-1.011,3.052-1.619c0.812,1.013,3.781,2.496,6.345,1.822c2.564-0.676,5.871-2.564,6.545-7.491
				C120.619,61.731,120.415,56.709,118.999,54.038z M116.03,62.339c-0.607,5.265-1.688,11.001-4.051,10.73
				c-2.361-0.27-2.968-3.308-2.968-4.589c0-1.283-0.271-5.736,1.688-6.749c0,0-2.879-2.354-1.419-7.22
				c1.275-4.248,3.105-3.917,3.713-3.577C114.452,51.755,116.637,57.074,116.03,62.339z"/>
		</g>
		<g>
			<path d="M152.022,54.038c-1.377-2.597-4.774-5.283-8.54-4.769c-3.06,0.42-6.551,2.758-6.872,6.155
				c-0.285,3.023-0.834,5.515-2.682,6.429c1.913,1.523,1.862,3.601,2.297,6.588c0.461,3.16,4.889,6.021,8.156,5.853
				c3.718-0.192,7.91-2.709,8.585-7.636c0.097-0.705,0.128-1.417,0.235-2.113c0.157-1.022,1.631-2.819,1.631-2.819
				s-1.539-1.282-1.595-2.757C153.163,56.98,152.673,55.263,152.022,54.038z M148.548,64.29c0,5.258-1.521,8.593-4.039,8.593
				c-2.377,0-3.975-3.718-3.975-6.988c0-1.283-0.227-3.22,1.73-4.232c0,0-3.014-2.397-1.417-7.222
				c1.179-3.559,3.372-3.937,4.173-3.937c1.369,0,2.574,0.814,3.401,4.937c0.768,3.849-1.412,5.899-1.412,5.899
				S148.548,62.74,148.548,64.29z"/>
		</g>
		<path d="M127.708,51.274c0,0,0.913-1.299,1.588-1.588c0.673-0.289,2.597-0.096,3.51,0.673c-1.01-0.046-1.683,1.203-2.211,2.261
			c-0.529,1.059-0.24,5.675-0.289,7.07c-0.05,1.395,0.865,2.211,1.443,2.644c-0.386,0.05-1.01,0.868-1.299,1.444
			c-0.289,0.577-0.242,5.239-0.194,7.118c0.05,1.875,2.742,2.596,2.742,2.596s-3.751,2.261-5.193-0.817l0,0
			c-1.444,3.078-5.193,0.817-5.193,0.817s2.691-0.721,2.741-2.596c0.049-1.879,0.096-6.541-0.193-7.118
			c-0.289-0.578-0.913-1.395-1.299-1.444c0.578-0.433,1.492-1.25,1.442-2.644c-0.048-1.396,0.24-6.012-0.287-7.07
			c-0.529-1.058-1.202-2.309-2.212-2.261c0.912-0.769,2.838-0.962,3.508-0.673c0.675,0.289,1.59,1.588,1.59,1.588H127.708z"/>
		<g>
			<path d="M97.21,66.215c-0.198-0.574-0.726-2.043-0.999-3.175c-0.309-1.275,0.685-2.5,0.685-2.5s-1.315-0.835-1.713-2.245
				c-0.922-3.245-2.7-8.016-1.23-8.816c-1.971-1.348-4.428,0.802-4.941,2.148c-1.027-1.251-3.371-3.464-5.027-1.925
				c0,0,1.385,0.466,0.856,2.952c-0.124,0.588-0.617,3.212-1.714,6.731c-0.215,0.688-1.6,1.666-1.6,1.666s1.086,1.219,0.743,2.438
				c-1.423,5.053-2.985,10.375-4.258,10.612c0,0,3.429,0.865,4.543-1.539c0.771,2.213,2.486,2.213,3.685,2.115
				c-1.028-1.828-1.543-4.327-0.086-7.214c3.172,0.098,6.601-0.096,6.601-0.096s1.198,5.291-0.258,6.733
				c1.372,1.347,3.771-0.866,3.685-2.021c1.287,1.54,2.742,2.502,4.627,1.827C99.438,72.081,98.665,70.446,97.21,66.215z
				 M86.47,64.708l2.598-10.805l2.972,10.805H86.47z"/>
		</g>
	</g>
	<g>
		<g>
			<path fill="#F5F5F5" d="M73.468,45.621c-0.943-0.336-1.174-2.183-1.195-3.676c-0.021-1.494-0.16-3.929-1.08-5.218
				c-0.92-1.287-2.762-2.717-3.883-3.171c-0.318-0.128,0.097-0.241,0.097-0.241c0.287-0.087,2.248-0.542,3.419-1.712
				c1.172-1.172,1.883-2.068,1.907-4.344c0.022-2.274-1.401-3.951-2.621-4.709c-1.216-0.759-3.665-1.975-6.411-1.243
				c-2.756,0.736-3.308,1.723-3.607,1.792c-0.252-0.091-1.712-1.106-2.643-1.263c-0.943-0.159-2.066-0.113-2.642,0.39
				c0,0,2.619,1.057,2.573,3.7c-0.045,2.644,0,4.962,0,5.353c0,0.392-0.688,2.484-1.517,2.806c0.69,0.345,1.494,1.362,1.494,2.373
				s0.022,5.279,0.022,5.969s-1.104,2.781-2.598,2.874c0.643,0.666,3.332,1.171,5.17-0.851c1.242,1.632,3.25,1.6,4.375,0.841
				c-1.298-0.481-2.092-1.138-2.092-2.771c0-2.346-0.022-8.253-0.022-8.321c0.252-0.022,2.873-0.105,3.653,1.41
				c0.781,1.517,0.958,3.166,1.074,4.475c0.113,1.31,0.436,3.448,1.447,4.574c1.01,1.124,1.934,1.92,4.297,1.793
				c1.262-0.068,1.563-0.3,1.977-0.714C74.301,45.771,74.157,45.868,73.468,45.621z M62.215,32.729c0,0,0-6.183,0-7.1
				c0-0.921,0.192-2.136,1.153-2.782c0.814-0.548,2.2-0.689,2.934-0.436c0.736,0.251,2.58,0.757,2.639,3.124
				c0.067,2.717-0.252,4.896-1.424,5.768C66.343,32.178,64.144,33.557,62.215,32.729z"/>
		</g>
		<g>
			<path fill="#F5F5F5" d="M74.515,72.167c-0.944-0.337-1.172-2.183-1.195-3.676c-0.022-1.493-0.161-3.931-1.079-5.218
				c-0.92-1.287-2.763-2.717-3.884-3.171c-0.319-0.129,0.098-0.241,0.098-0.241c0.287-0.086,2.244-0.539,3.416-1.712
				c1.172-1.172,1.886-2.068,1.908-4.344c0.023-2.275-1.401-3.951-2.619-4.711c-1.218-0.759-3.666-1.973-6.412-1.241
				c-2.758,0.736-3.309,1.724-3.608,1.793c-0.252-0.092-1.712-1.106-2.642-1.263c-0.945-0.161-2.068-0.116-2.643,0.389
				c0,0,2.619,1.058,2.574,3.7c-0.046,2.644,0,4.962,0,5.354c0,0.39-0.69,2.482-1.516,2.805c0.688,0.345,1.492,1.362,1.492,2.373
				c0,1.012,0.023,5.281,0.023,5.969c0,0.69-1.103,2.78-2.596,2.872c0.642,0.668,3.33,1.174,5.168-0.851
				c1.242,1.632,3.25,1.601,4.375,0.842c-1.299-0.479-2.093-1.139-2.093-2.771c0-2.344-0.022-8.253-0.022-8.321
				c0.252-0.022,2.873-0.105,3.654,1.411c0.78,1.517,0.957,3.166,1.072,4.476c0.114,1.311,0.438,3.446,1.447,4.572
				c1.012,1.126,1.936,1.92,4.299,1.793c1.262-0.068,1.563-0.3,1.977-0.713C75.347,72.318,75.203,72.414,74.515,72.167z
				 M63.261,59.276c0,0,0-6.183,0-7.103s0.193-2.135,1.154-2.781c0.813-0.547,2.197-0.688,2.934-0.437
				c0.735,0.254,2.58,0.758,2.639,3.125c0.066,2.717-0.252,4.896-1.426,5.77C67.391,58.725,65.191,60.103,63.261,59.276z"/>
		</g>
		<path fill="#F5F5F5" d="M109.118,33.557c-0.038-0.017,0.081-0.089,0.081-0.089c0.289-0.086,2.262-0.694,3.435-1.864
			c1.172-1.172,1.885-2.068,1.908-4.344c0.021-2.274-1.404-3.951-2.621-4.709c-1.219-0.759-3.666-1.975-6.412-1.243
			c-2.756,0.736-3.309,1.723-3.607,1.792c-0.252-0.091-1.713-1.106-2.644-1.263c-0.942-0.159-2.067-0.113-2.642,0.39
			c0,0,2.621,1.057,2.573,3.7c-0.046,2.644,0,4.53,0,4.92c0,0.696-0.688,2.917-1.516,3.238c0.688,0.345,1.495,1.362,1.495,2.373
			s0.021,5.279,0.021,5.969c0,1.044-1.103,2.781-2.595,2.874c0.643,0.666,3.33,1.171,5.168-0.851c1.645,1.81,7.004,2.027,9.12,0.97
			c1.282-0.643,3.103-2.982,3.142-4.682c0.035-1.493-0.105-2.722-1.023-4.011C112.081,35.44,110.222,34.048,109.118,33.557z
			 M104.023,25.63c0-0.921,0.192-2.136,1.153-2.782c0.814-0.548,2.2-0.689,2.935-0.436c0.735,0.251,2.579,0.757,2.639,3.124
			c0.066,2.717-0.255,4.896-1.425,5.768c-1.172,0.874-3.373,2.253-5.302,1.426C104.023,32.729,104.023,26.547,104.023,25.63z
			 M104.054,43.4c-0.023-0.337-0.008-0.535-0.008-0.881c0-2.346-0.022-7.676-0.022-7.745c0.253-0.023,2.028-0.314,3.718-0.063
			c1.731,0.255,2.879,3.044,2.886,4.358C110.644,42.245,109.056,45.771,104.054,43.4z"/>
		<path fill="#F5F5F5" d="M92.728,43.331c-0.051-0.024,0.738-1.334,0.887-1.854c0.744-2.603-0.81-3.976-1.055-4.107
			c-2.162,9.69-8.924,9.479-8.924,2.931c0-1.629,0-3.604,0.02-5.744c0.34,0.09,0.93,0.139,1.957,0.56
			c2.865,1.178,1.931,4.063,2.33,4.773c1.889-1.442,2-5.105-0.064-6.061c2.952-1.287,1.575-5.727,0.687-5.482
			c0.112,1.754-1.311,3.507-2.419,4.351c-0.822,0.625-1.949,0.628-2.479,0.589c0.046-3.679,0.158-7.13,0.437-7.804
			c0.464-1.134,1.694-2.33,2.896-2.33c1.432,0,5.028,2.912,5.661,7.392c2.264-2.597-0.066-5.593,0.166-5.727
			c2.784-1.592,1.184-3.764,0.999-3.397c-1.309,2.618-6.978-0.5-9.412,0.731c-2.394,1.21-2.376,2-2.575,2.332
			c-0.334-0.532-2.757-3.662-5.886-1.731c0,0,3.597,1.731,3.129,6.128c-0.466,4.396-0.933,4.594-1.864,5.128
			c0.865,0.465,2.332,2.863,1.864,5.727c-0.466,2.864-0.864,4.928-3.329,4.928c0.2,1.134,1.465,1.467,2.664,1.333
			s3.021-1.333,3.354-1.531c0.267,0.399,1.763,1.632,3.198,1.752c1.309,0.112,3.898-0.092,5.992-0.687
			c1.953-0.555,2.844,1.531,3.031,1.265C94.521,46.051,94.692,44.285,92.728,43.331z"/>
		<path fill="#F5F5F5" d="M132.485,43.331c-0.051-0.024,0.738-1.334,0.888-1.854c0.741-2.603-0.812-3.976-1.055-4.107
			c-2.165,9.69-8.927,9.479-8.927,2.931c0-1.629,0-3.604,0.021-5.744c0.339,0.09,0.931,0.139,1.957,0.56
			c2.863,1.178,1.931,4.063,2.331,4.773c1.887-1.442,1.997-5.105-0.066-6.061c2.951-1.287,1.576-5.727,0.688-5.482
			c0.111,1.754-1.311,3.507-2.42,4.351c-0.821,0.625-1.949,0.628-2.477,0.589c0.043-3.679,0.157-7.13,0.434-7.804
			c0.467-1.134,1.697-2.33,2.898-2.33c1.432,0,5.029,2.912,5.66,7.392c2.265-2.597-0.067-5.593,0.166-5.727
			c2.783-1.592,1.183-3.764,1-3.397c-1.311,2.618-6.977-0.5-9.412,0.731c-2.394,1.21-2.377,2-2.576,2.332
			c-0.334-0.532-2.756-3.662-5.885-1.731c0,0,3.596,1.731,3.129,6.128c-0.466,4.396-0.932,4.594-1.863,5.128
			c0.865,0.465,2.33,2.863,1.863,5.727c-0.466,2.864-0.865,4.928-3.33,4.928c0.201,1.134,1.467,1.467,2.664,1.333
			c1.199-0.134,3.023-1.333,3.354-1.531c0.268,0.399,1.767,1.632,3.2,1.752c1.309,0.112,3.898-0.092,5.992-0.687
			c1.954-0.555,2.842,1.531,3.03,1.265C134.275,46.051,134.447,44.285,132.485,43.331z"/>
		<path fill="#F5F5F5" d="M152.747,43.331c-0.051-0.024,0.74-1.334,0.887-1.854c0.744-2.603-0.809-3.976-1.055-4.107
			c-2.164,9.69-8.923,7.602-8.923,2.931c0-1.629,0.399-13.135,0.466-13.861c0.232-2.564,3.464-4.397,3.055-4.425
			c-4.617-0.319-5.119,2.137-5.318,2.469c-0.333-0.532-2.756-3.662-5.885-1.731c0,0,3.595,1.731,3.129,6.128
			c-0.467,4.396-0.931,4.594-1.864,5.128c0.867,0.465,2.33,2.863,1.864,5.727c-0.467,2.864-0.865,4.928-3.329,4.928
			c0.2,1.134,1.465,1.467,2.663,1.333s3.022-1.333,3.355-1.531c0.266,0.399,1.764,1.632,3.195,1.752
			c1.311,0.112,3.898-0.092,5.994-0.687c1.953-0.555,2.842,1.531,3.031,1.265C154.538,46.051,154.712,44.285,152.747,43.331z"/>
		<g>
			<path fill="#F5F5F5" d="M117.29,52.417c-1.377-2.596-4.004-5.156-7.769-4.641c-3.058,0.419-3.771,1.403-4.04,2.213
				c-0.529-1.01-2.069-2.935-5.723-1.107c0,0,2.982,0.242,3.073,4.749c0.063,3.038-0.81,6.21-1.957,6.682
				c0.878,0.812,2.295,3.24,1.755,6.074c-0.541,2.834-1.213,4.995-3.239,4.656c0.204,1.485,2.026,1.552,2.901,1.282
				c0.878-0.27,2.717-1.012,3.055-1.619c0.809,1.012,3.779,2.495,6.344,1.822c2.563-0.676,5.871-2.564,6.546-7.493
				C118.911,60.112,118.706,55.088,117.29,52.417z M114.322,60.718c-0.608,5.266-1.687,11-4.049,10.731
				c-2.362-0.271-2.97-3.309-2.97-4.59c0-1.282-0.27-5.735,1.688-6.747c0,0-2.877-2.355-1.418-7.223
				c1.273-4.249,3.106-3.917,3.713-3.576C112.743,50.133,114.931,55.454,114.322,60.718z"/>
		</g>
		<g>
			<path fill="#F5F5F5" d="M150.313,52.417c-1.377-2.596-4.771-5.284-8.539-4.769c-3.058,0.419-6.551,2.758-6.87,6.157
				c-0.287,3.022-0.834,5.512-2.683,6.427c1.912,1.523,1.863,3.601,2.295,6.588c0.461,3.16,4.889,6.021,8.156,5.852
				c3.721-0.19,7.911-2.708,8.586-7.637c0.096-0.704,0.127-1.416,0.234-2.112c0.158-1.022,1.631-2.817,1.631-2.817
				s-1.538-1.283-1.594-2.759C151.454,55.358,150.964,53.644,150.313,52.417z M146.84,62.668c0,5.26-1.521,8.594-4.038,8.594
				c-2.379,0-3.977-3.718-3.977-6.988c0-1.283-0.226-3.222,1.731-4.233c0,0-3.014-2.396-1.417-7.222
				c1.179-3.558,3.372-3.937,4.175-3.937c1.368,0,2.573,0.814,3.397,4.938c0.77,3.85-1.408,5.9-1.408,5.9
				S146.84,61.118,146.84,62.668z"/>
		</g>
		<path fill="#F5F5F5" d="M126,49.652c0,0,0.915-1.299,1.587-1.588c0.674-0.288,2.6-0.095,3.512,0.674
			c-1.011-0.047-1.684,1.203-2.213,2.26c-0.529,1.059-0.24,5.677-0.289,7.071c-0.047,1.395,0.865,2.211,1.443,2.645
			c-0.383,0.048-1.009,0.867-1.298,1.442c-0.289,0.577-0.24,5.243-0.192,7.117c0.047,1.877,2.742,2.599,2.742,2.599
			s-3.754,2.259-5.193-0.819l0,0c-1.444,3.078-5.195,0.819-5.195,0.819s2.693-0.722,2.74-2.599c0.049-1.874,0.098-6.54-0.191-7.117
			s-0.914-1.395-1.3-1.442c0.578-0.434,1.491-1.251,1.444-2.645c-0.048-1.396,0.24-6.013-0.289-7.071
			c-0.529-1.057-1.203-2.308-2.211-2.26c0.912-0.769,2.836-0.962,3.511-0.674c0.671,0.289,1.585,1.588,1.585,1.588H126z"/>
		<g>
			<path fill="#F5F5F5" d="M95.503,64.592c-0.199-0.573-0.727-2.04-1-3.173c-0.311-1.275,0.685-2.499,0.685-2.499
				s-1.313-0.835-1.716-2.245c-0.918-3.244-2.697-8.018-1.228-8.817c-1.97-1.347-4.426,0.802-4.94,2.147
				c-1.029-1.25-3.371-3.461-5.027-1.924c0,0,1.385,0.465,0.855,2.95c-0.125,0.59-0.617,3.213-1.714,6.733
				c-0.214,0.688-1.601,1.667-1.601,1.667s1.087,1.218,0.744,2.436c-1.424,5.055-2.986,10.375-4.256,10.614
				c0,0,3.428,0.863,4.541-1.538c0.772,2.211,2.486,2.211,3.687,2.114c-1.028-1.827-1.544-4.329-0.088-7.216
				c3.173,0.099,6.601-0.096,6.601-0.096s1.198,5.291-0.258,6.735c1.372,1.345,3.772-0.868,3.687-2.021
				c1.284,1.54,2.74,2.501,4.627,1.827C97.729,70.461,96.957,68.826,95.503,64.592z M84.761,63.086l2.6-10.804l2.973,10.804H84.761z
				"/>
		</g>
	</g>
</g>
</svg>
