<?xml version="1.0" encoding="UTF-8" standalone="no"?>
<svg
   xmlns:dc="http://purl.org/dc/elements/1.1/"
   xmlns:cc="http://creativecommons.org/ns#"
   xmlns:rdf="http://www.w3.org/1999/02/22-rdf-syntax-ns#"
   xmlns:svg="http://www.w3.org/2000/svg"
   xmlns="http://www.w3.org/2000/svg"
   version="1.1"
   id="svg2"
   viewBox="0 0 915.28624 915.72569"
   height="258.43814mm"
   width="258.31412mm">
  <defs
     id="defs4" />
  <metadata
     id="metadata7">
    <rdf:RDF>
      <cc:Work
         rdf:about="">
        <dc:format>image/svg+xml</dc:format>
        <dc:type
           rdf:resource="http://purl.org/dc/dcmitype/StillImage" />
        <dc:title></dc:title>
      </cc:Work>
    </rdf:RDF>
  </metadata>
  <g
     transform="translate(574.9797,-97.383046)"
     id="layer1">
    <g
       style="fill:#000000"
       transform="translate(-359.98181,-259.98592)"
       id="layer1-3">
      <path
         id="path3356"
         d="m 191.33893,1272.1099 c -72.9784,-4.9015 -147.824191,-34.9915 -217.356921,-87.3831 -20.06406,-15.1179 -34.51143,-27.7772 -54.17129,-47.4668 -47.226369,-47.2978 -79.695279,-96.3508 -103.294829,-156.05469 -28.25238,-71.475 -37.66605,-147.6141 -27.60362,-223.262 17.10799,-128.61541 89.48723,-246.80271 196.426679,-320.74309 92.36242,-63.86149 202.683181,-90.50491 314.499981,-75.95444 150.3683,19.5671 282.0731,113.3358 350.8986,249.82617 26.7674,53.08336 42.0979,105.82116 48.2939,166.13336 1.8922,18.4188 1.5937,66.7602 -0.5298,85.7998 -9.8589,88.3942 -42.3077,167.00829 -97.2877,235.70019 -20.7801,25.9625 -60.9356,65.5228 -86.375,85.0946 -31.3706,24.135 -65.8803,42.8466 -111.5,60.457 -17.8272,6.8817 -33.688,11.7837 -49.7701,15.382 -47.7523,10.6844 -113.5368,15.7414 -162.2299,12.471 z m 327.6013,-210.5247 c 17.3614,-5.1472 29.9895,-17.5287 35.4953,-34.8024 3.9543,-12.406 4.6687,-28.98499 4.0974,-95.07749 -0.4716,-54.5533 -0.6243,-58.4636 -2.5697,-65.8005 -5.6008,-21.123 -18.9023,-35.2511 -37.7686,-40.1153 -8.2749,-2.1336 -27.1463,-2.1269 -34.4242,0.012 -17.5833,5.1678 -29.1141,16.2029 -35.599,34.0686 -3.9031,10.7531 -4.5141,24.546 -4.0942,92.4307 0.3728,60.26829 0.4601,62.67179 2.5493,70.21829 6.3233,22.8402 21.0733,36.6339 43.4597,40.6422 6.9658,1.2472 22.1235,0.4192 28.854,-1.5762 z m -22.6524,-39.4364 c -1.8957,-2.0948 -1.9489,-4.2185 -1.9489,-77.84249 0,-70.7755 0.1151,-75.8647 1.7731,-78.395 2.5041,-3.8218 7.9498,-3.8218 10.4539,0 1.6573,2.5294 1.773,7.5706 1.773,77.25 0,83.36509 0.2512,80.26889 -6.5582,80.84249 -2.6117,0.22 -4.0567,-0.268 -5.4929,-1.855 z m -92.4809,36.573 c 1.7641,-0.9122 3.856,-3.5115 5.4325,-6.75 4.7039,-9.663 6.7436,-23.0459 14.5962,-95.76649 6.3979,-59.2504 9.8668,-88.8935 13.048,-111.5 1.6253,-11.55 2.9551,-21.5672 2.9552,-22.2604 1e-4,-0.9988 -9.184,-1.2064 -44.2499,-1 l -44.25,0.2604 -0.3203,2.7902 c -0.1762,1.5347 0.8182,10.7597 2.2096,20.5 3.2432,22.7027 7.455,58.77 13.1033,112.2098 6.8647,64.94789 8.8768,79.47009 12.5515,90.58999 1.8924,5.7264 5.5072,10.4514 8.9559,11.7063 3.1506,1.1464 13.1914,0.6561 15.968,-0.7798 z m -378.967981,-51.6482 0,-52.13169 4.0381,0.5416 c 5.66328,0.7596 8.7185,3.0764 9.85001,7.4691 0.53165,2.064 1.28332,24.5652 1.67038,50.00269 l 0.70374,46.25 22.95987,0 22.95986,0 -0.34098,-47.25 -0.34098,-47.24999 -3.41847,-7.2944 c -3.86675,-8.2508 -7.93374,-12.333 -15.93807,-15.9975 l -5.4478,-2.4941 5.67527,-1.7559 c 15.60307,-4.8277 19.137,-13.3517 19.05366,-45.9581 -0.0714,-27.9535 -3.04498,-39.3345 -13.08003,-50.0628 -9.84825,-10.5285 -15.52858,-11.6705 -62.59456,-12.5842 l -34.75,-0.6746 0,115.6608 0,115.66079 24.49999957,0 24.50000043,0 0,-52.1317 z m 0,-113.36829 0,-25.5 3.25,0 c 4.2249,0 9.5279,3.2819 10.82295,6.6881 1.34113,3.5274 1.30779,32.1804 -0.0433,37.1979 -0.87055,3.233 -1.73749,4.1763 -5.06034,5.5058 -2.20537,0.8822 -5.12568,1.6042 -6.48955,1.6042 l -2.47976,0 0,-25.5 z M 140.53316,1056.2053 c 0.10681,-1.375 0.73022,-10.4875 1.38533,-20.25 l 1.19113,-17.75 8.86466,0 8.86467,0 0.0989,3.75 c 0.0544,2.0625 0.61687,11.175 1.25,20.25 l 1.15114,16.5 24.48114,0.2683 c 13.4646,0.1475 24.9629,0.083 25.5517,-0.1426 1.172,-0.4497 -26.5198,-227.94509 -27.9169,-229.34439 -0.4291,-0.4297 -16.692,-0.9245 -36.13991,-1.0996 l -35.35981,-0.3182 -0.54726,3.3182 c -0.30099,1.8251 -1.47181,12.0933 -2.60182,22.8183 -1.13,10.725 -6.53489,60.2981 -12.010851,110.1626 -5.476,49.86439 -9.95633,91.60949 -9.95633,92.76679 0,2.0915 0.1567,2.1027 25.750001,1.8374 l 25.75,-0.2668 0.19421,-2.5 z m 2.31032,-82.24999 c 0.0185,-9.1647 8.1848,-86.9987 9.02348,-86.0035 0.34923,0.4144 1.88902,17.4035 3.42174,37.7535 1.53272,20.35 3.01902,40.0375 3.30288,43.75 l 0.5161,6.75 -8.13436,0 c -7.77032,0 -8.13417,-0.1007 -8.12984,-2.25 z m 152.07515,84.33159 c 22.9066,-1.7681 33.5388,-11.8027 36.0162,-33.9918 0.621,-5.5628 0.8834,-37.81219 0.6818,-83.81579 -0.3241,-73.9687 -0.3513,-74.8445 -2.5287,-81.3165 -5.7768,-17.1704 -17.1833,-26.131 -36.8323,-28.9341 -4.3542,-0.6212 -23.1042,-1.4008 -41.6667,-1.7324 l -33.75,-0.603 0,115.656 0,115.65599 33.75,-0.051 c 18.5625,-0.028 38.5109,-0.4184 44.3297,-0.8675 z m -28.0797,-114.71759 0,-75.6359 4.7412,0.6499 c 3.1169,0.4272 5.6007,1.5095 7.25,3.159 l 2.5088,2.5093 0,68.2268 c 0,52.2286 -0.2916,68.88299 -1.2436,71.02519 -1.3249,2.9811 -6.4419,5.7017 -10.7243,5.7017 l -2.5321,0 0,-75.63599 z M -38.787271,822.13981 c 14.48387,-3.4966 27.6475,-12.8687 33.5016196,-23.8521 4.43319997,-8.3176 6.06329997,-16.8614 6.78889,-35.5824 1.02927,-26.5565 -2.09674003,-47.9629 -8.88075,-60.814 -4.6211796,-8.754 -19.8787496,-23.6138 -39.6914196,-38.6567 -18.77242,-14.25307 -21.28744,-17.32999 -23.13929,-28.309 -3.05788,-18.12919 2.50231,-31.3944 11.79717,-28.14507 3.86678,1.35177 5.07115,6.86738 5.16952,23.67473 l 0.0805,13.75 25.12764,0 25.1276396,0 -0.54279,-19.75 c -0.76096,-27.68795 -3.07638,-35.86413 -12.8531796,-45.38703 -6.15922,-5.99927 -18.88214,-12.38087 -28.85931,-14.47534 -9.17936,-1.92698 -31.96847,-1.38634 -39.08597,0.92727 -18.474259,6.00522 -30.629889,18.3473 -34.401309,34.929 -2.45622,10.79917 -3.61026,31.34043 -2.50984,44.67365 1.14991,13.93279 2.93619,21.16179 7.65299,30.97129 4.36082,9.0692 10.76348,15.6531 32.844129,33.774 19.68614,16.1559 25.92566,22.4608 28.04303,28.3372 2.18818,6.0728 3.14662,27.196 1.52725,33.6592 -2.37734,9.4885 -8.88016,12.278 -14.63319,6.2772 l -2.93709,-3.0636 -0.30226,-22.9364 -0.30226,-22.9364 -25.44774,0 -25.447739,0 0.003,13.25 c 0.007,27.0244 3.1933,46.487 9.26492,56.5914 12.554899,20.8939 42.065209,30.3451 72.105439,23.0931 z m 143.626221,-27.9345 0,-25 -19.500001,0 -19.5,0 0,-27.5 0,-27.5 17,0 17,0 0,-24 0,-24 -17,0 -17,0 0,-23.50004 0,-23.5 18,0 18.000001,0 0,-25.5 0,-25.5 -45.000001,0 -45,0 0,125.50004 0,125.5 46.5,0 46.500001,0 0,-25 z m 95.99998,0 0,-25 -16.5,0 -16.49998,0 0,-100.5 0,-100.50004 -27,0 -27,0 0,125.50004 0,125.5 43.5,0 43.49998,0 0,-25 z m 60,-27.5 0,-52.5 17,0 17,0 0,-24 0,-24 -17,0 -17,0 0,-23.50004 0,-23.5 19,0 19,0 0,-25.5 0,-25.5 -46,0 -46,0 0,125.50004 0,125.5 27,0 27,0 0,-52.5 z m 148.096,43.4761 c 17.3092,-3.3481 38.4422,-18.8914 47.6405,-35.0394 9.8646,-17.3179 11.3605,-37.8601 4.2954,-58.9857 -4.062,-12.1461 -9.1387,-20.2601 -18.4366,-29.4671 -13.5792,-13.4465 -28.3771,-19.5582 -47.5953,-19.6574 -12.4212,-0.064 -20.2869,1.7164 -30.893,6.9933 -19.053,9.4794 -34.1331,29.5581 -38.0135,50.6138 -1.5291,8.2974 -1.3326,22.7716 0.4218,31.0664 3.0426,14.3856 13.1585,30.9059 24.7302,40.387 16.8264,13.7863 35.679,18.3778 57.8505,14.0891 z m 58.4876,0.1361 c 8.0744,-4.9238 20.7747,-27.1863 24.9909,-43.807 8.5886,-33.8572 -0.6555,-68.3495 -25.6461,-95.6932 -11.5404,-12.6271 -32.2272,-25.06126 -49.5151,-29.76208 -10.3487,-2.81391 -32.1694,-3.07911 -43.2667,-0.52584 -22.3123,5.13364 -41.9175,18.28762 -45.512,30.53612 -2.7738,9.4522 -0.4248,9.3209 23.4483,-1.3104 25.4626,-11.3392 37.1392,-13.8654 53.6086,-11.5982 41.5775,5.7238 72.274,40.5967 72.3015,82.1384 0.01,14.319 -2.117,22.0046 -12.078,43.6532 -9.3246,20.2654 -10.3201,24.1592 -6.8059,26.6206 3.009,2.1076 4.6873,2.0577 8.4745,-0.2516 z m 68.8052,0.4987 c 12.6156,-5.2712 17.7512,-23.9472 17.6711,-64.2625 -0.081,-40.7195 -5.5733,-64.5503 -19.9105,-86.3883 -21.399,-32.59458 -58.1225,-64.49433 -83.462,-72.49908 -17.7757,-5.61533 -40.2481,-7.92059 -69.6647,-7.14631 -22.8893,0.60248 -28.5767,1.5032 -38.6706,6.12434 -7.1992,3.2959 -9.3521,5.19898 -9.3521,8.26692 0,5.61326 16.1526,7.46736 34,3.90274 41.5606,-8.30078 88.2179,4.30662 120.9002,32.66877 27.5201,23.88232 46.0773,60.44482 50.1064,98.72252 2.0254,19.2419 -0.071,36.564 -7.0796,58.4855 -4.8139,15.0579 -5.077,21.4782 -0.927,22.6245 1.375,0.3799 2.627,0.7355 2.7821,0.7903 0.1552,0.055 1.7782,-0.5254 3.6067,-1.2894 z m -32.3613,-3.3302 c 1.3599,-0.9456 3.2447,-2.6331 4.1886,-3.75 2.8477,-3.37 8.6768,-18.2193 11.764,-29.9682 8.9374,-34.013 4.3835,-66.9014 -13.4371,-97.0437 -16.9491,-28.66823 -42.9931,-50.03297 -74.1192,-60.80254 -14.7726,-5.11129 -21.9164,-6.23144 -38.9238,-6.1032 -12.4973,0.0942 -16.7857,0.54793 -25.7026,2.7193 -31.9158,7.77179 -47.9793,20.12295 -36.5671,28.11632 3.4509,2.41711 6.6151,1.87053 13.7096,-2.36815 6.6744,-3.98771 22.8459,-9.17666 34.5601,-11.08933 8.8228,-1.44055 27.0225,-1.20321 36.6641,0.47814 35.0909,6.11934 64.6322,28.36016 81.0967,61.05546 7.4285,14.7514 11.0837,31.3077 11.0333,49.9752 -0.049,17.9513 -3.5589,33.3114 -11.4019,49.8899 -3.6626,7.742 -3.9421,14.8636 -0.7179,18.2956 2.5932,2.7603 4.5286,2.907 7.8532,0.5952 z"
         style="fill:#000000" />
      <path
         transform="translate(-214.99789,357.36897)"
         id="path3358"
         d="m 191.40828,587.55058 0,-114.28571 37.85714,0.004 c 57.67146,0.007 67.97111,8.00011 70.19312,54.47543 1.46749,30.69381 -2.23419,43.60124 -13.8887,48.42869 -9.9182,4.10825 -10.75281,7.40319 -2.53586,10.01115 3.25128,1.03191 8.38933,5.93998 11.41789,10.90682 4.85728,7.96593 5.50773,14.67282 5.51715,56.88775 l 0.0107,47.85714 -21.14048,0 -21.14049,0 -1.00237,-48.47141 c -0.83964,-40.6022 -1.77814,-49.24685 -5.78082,-53.24784 -2.62815,-2.62703 -6.80672,-3.99811 -9.28572,-3.04683 -3.87432,1.48672 -4.50726,8.96407 -4.50726,53.24784 l 0,51.51824 -22.85714,0 -22.85714,0 0,-114.28571 z m 62.92786,-33.04314 c 1.53253,-4.03087 2.78642,-12.30432 2.78642,-18.38543 0,-17.02391 -4.32129,-25.71429 -12.78642,-25.71429 -7.179,0 -7.21358,0.12326 -7.21358,25.71429 0,25.59103 0.0346,25.71428 7.21358,25.71428 5.11434,0 8.02445,-2.13277 10,-7.32885 z"
         style="fill:#ffffff" />
      <path
         transform="translate(-214.99789,357.36897)"
         id="path3360"
         d="m 305.69399,696.66252 c 0,-1.27415 5.14286,-49.73166 11.42857,-107.68337 6.28572,-57.9517 11.42857,-107.69493 11.42857,-110.54051 0,-4.71511 3.13703,-5.17377 35.3856,-5.17377 l 35.3856,0 3.19034,22.14285 c 5.13229,35.62117 23.18132,188.52747 23.18132,196.38568 0,7.06747 -0.37009,7.18575 -22.48331,7.18575 l -22.4833,0 -1.77097,-10.71428 c -0.97403,-5.89286 -1.78511,-14.89286 -1.8024,-20 -0.0294,-8.67025 -0.68279,-9.28572 -9.85844,-9.28572 l -9.827,0 -1.97075,20 -1.97075,20 -23.91654,0 c -13.1541,0 -23.91654,-1.04248 -23.91654,-2.31663 z m 67.41434,-108.39765 c -2.35101,-37.28074 -4.85271,-58.51401 -6.67895,-56.68777 -1.73945,1.73944 -9.01983,62.53734 -9.18315,76.68777 -0.11692,10.12988 0.36512,10.71428 8.83767,10.71428 l 8.96134,0 -1.93691,-30.71428 z"
         style="fill:#ffffff" />
      <path
         transform="translate(-214.99789,357.36897)"
         id="path3362"
         d="m 434.26542,587.45465 0,-114.72558 40.71428,1.12295 c 45.75299,1.26193 53.18794,3.52915 62.92732,19.18915 6.19837,9.96638 6.3584,12.34505 6.3584,94.50941 0,93.27987 -0.95339,99.36862 -16.69217,106.60362 -5.77422,2.65436 -24.19323,4.84553 -51.16497,6.08671 l -42.14286,1.93931 0,-114.72557 z m 62.193,0.29554 c 0.7986,-75.90523 0.60737,-77.19296 -11.47872,-77.29872 -4.63753,-0.0406 -5,5.45883 -5,75.86032 l 0,75.90406 7.85715,-0.90406 7.85714,-0.90407 0.76443,-72.65753 z"
         style="fill:#ffffff" />
      <path
         transform="translate(-214.99789,357.36897)"
         id="path3364"
         d="m 600.4948,698.17123 c -1.67295,-2.01578 -4.38152,-7.18899 -6.01905,-11.49602 -2.42997,-6.39128 -18.59597,-138.69582 -25.1161,-205.5532 l -1.60217,-16.42857 43.44651,0 c 40.05894,0 43.32655,0.38985 41.90804,5 -0.84615,2.75 -6.09509,45.5 -11.66429,95 -11.55348,102.68919 -14.51007,121.71579 -20.31199,130.71428 -4.5688,7.08599 -15.80509,8.59036 -20.64095,2.76351 z"
         style="fill:#ffffff" />
      <path
         transform="translate(-214.99789,357.36897)"
         id="path3366"
         d="m 694.26542,701.65013 c -12.77367,-5.33901 -25.69028,-20.47846 -30.07829,-35.25448 -5.16756,-17.40104 -5.95829,-133.25696 -1.06522,-156.07254 6.03655,-28.14748 30.71817,-45.31078 60.14683,-41.82539 19.49021,2.30832 32.39634,11.50221 41.20698,29.35443 l 7.19928,14.58728 -0.84765,76.84129 c -0.96109,87.12521 -2.1064,92.4041 -23.05581,106.26777 -12.60284,8.34016 -40.53076,11.52496 -53.50612,6.10164 z m 29.99867,-57.67098 c 1.06712,-12.96428 1.50396,-48.25978 0.97077,-78.43445 -0.98918,-55.98008 -2.54214,-63.6001 -12.20596,-59.89174 -3.91464,1.50219 -4.47777,11.55081 -4.47777,79.90319 0,43.0017 0.85715,79.04205 1.90477,80.08967 1.04761,1.04762 4.14648,1.90476 6.88637,1.90476 4.17805,0 5.29458,-3.80221 6.92182,-23.57143 z"
         style="fill:#ffffff" />
      <path
         transform="translate(-214.99789,357.36897)"
         id="path3368"
         d="m 587.83104,449.18843 c -16.43574,-5.86534 -28.61203,-16.59744 -37.63043,-33.16721 -23.10595,-42.45325 2.62047,-96.97536 49.27859,-104.43629 60.85907,-9.73176 103.94279,70.04331 62.31698,115.38792 -21.0113,22.88842 -48.74113,31.21714 -73.96514,22.21558 z"
         style="fill:#ffffff" />
      <path
         transform="translate(-214.99789,357.36897)"
         id="path3370"
         d="m 674.26542,449.27832 c 0,-2.1926 4.13514,-13.4426 9.18921,-25 17.82129,-40.75288 11.03745,-78.09569 -18.98851,-104.5256 -26.08825,-22.9638 -57.13113,-26.04296 -95.9628,-9.5186 -11.50336,4.89512 -21.97422,8.54387 -23.26858,8.10834 -6.29063,-2.11671 9.89785,-19.3673 25.20107,-26.85446 33.69619,-16.48601 74.64727,-8.99138 105.31093,19.27339 27.75465,25.58334 40.38166,70.91358 28.55297,102.50348 -9.59388,25.62154 -12.64295,32.80558 -12.76603,30.07855 -0.069,-1.52823 -2.12688,0.0789 -4.57313,3.57143 -4.95814,7.07873 -12.69513,8.51914 -12.69513,2.36347 z"
         style="fill:#ffffff" />
      <path
         transform="translate(-214.99789,357.36897)"
         id="path3376"
         d="m 711.40828,444.11822 c 0,-3.72113 2.6822,-14.39705 5.96046,-23.72427 12.83258,-36.51101 5.86227,-80.2305 -17.50434,-109.79149 -30.53942,-38.63526 -78.85224,-52.17181 -127.69104,-35.77716 -23.0812,7.7481 -32.90933,7.61577 -26.29496,-0.35406 8.70738,-10.49175 40.40546,-21.16485 62.67273,-21.10262 67.08411,0.1875 128.57143,62.14305 128.57143,129.55052 0,29.76167 -11.13393,63.10465 -22.3167,66.83225 -1.98766,0.66255 -3.39758,-1.67509 -3.39758,-5.63317 z"
         style="fill:#ffffff" />
      <path
         transform="translate(-214.99789,357.36897)"
         id="path3378"
         d="m 742.90409,449.90293 c 0.037,-2.0795 2.60842,-13.33683 5.71429,-25.01627 9.8332,-36.97714 6.72432,-68.99371 -10.15448,-104.5753 -17.70188,-37.31668 -48.81438,-64.19855 -88.11944,-76.1371 -17.57094,-5.33701 -24.20285,-5.83077 -57.2615,-4.26325 -37.28148,1.76774 -48.6731,0.16845 -41.09564,-5.76951 8.18473,-6.41384 24.48334,-9.44806 50.75114,-9.44806 33.52768,0 56.99522,4.04553 74.28185,12.80532 30.00576,15.20508 64.68826,51.55802 78.98766,82.79202 14.55984,31.80287 15.58749,105.58313 1.72941,124.16322 -6.0648,8.13134 -14.93897,11.39122 -14.83329,5.44893 z"
         style="fill:#ffffff" />
      <path
         transform="translate(-214.99789,357.36897)"
         id="path3380"
         d="m 587.83104,449.18843 c -27.96885,-9.9811 -45.71888,-35.86914 -45.9892,-67.07429 -0.52689,-60.82094 66.18146,-93.41312 110.80289,-54.13577 30.63617,26.96704 34.71986,71.14182 9.15145,98.99448 -21.0113,22.88842 -48.74113,31.21714 -73.96514,22.21558 z"
         style="fill:#ffffff" />
      <path
         transform="translate(-214.99789,357.36897)"
         id="path3382"
         d="m 600.4948,698.17123 c -1.67295,-2.01578 -4.37508,-7.17203 -6.00472,-11.45833 -2.6665,-7.01342 -25.93895,-200.58809 -25.93895,-215.75396 0,-6.17113 0.64637,-6.2655 42.91158,-6.2655 l 42.91158,0 -1.41441,6.42857 c -1.51155,6.87005 -9.86113,77.09102 -17.24115,145 -5.47201,50.35198 -9.25042,70.81754 -14.63797,79.28571 -4.51045,7.08955 -15.74411,8.59759 -20.58596,2.76351 z"
         style="fill:#ffffff" />
      <path
         transform="translate(-214.99789,357.36897)"
         id="path3384"
         d="m 422.83685,337.55058 0,-124.28571 44.28571,0 44.28572,0 0,24.28571 0,24.28571 -18.57143,0 -18.57143,0 0,24.28572 0,24.28571 17.14286,0 17.14285,0 0,22.85715 0,22.85714 -17.14285,0 -17.14286,0 0,52.85714 0,52.85714 -25.71429,0 -25.71428,0 0,-124.28571 z"
         style="fill:#ffffff" />
      <path
         transform="translate(-214.99789,357.36897)"
         id="path3386"
         d="m 331.40828,337.55058 0,-124.28571 25.71428,0 25.71429,0 0,100 0,100 15.71428,0 15.71429,0 0,24.28571 0,24.28571 -41.42857,0 -41.42857,0 0,-124.28571 z"
         style="fill:#ffffff" />
      <path
         transform="translate(-214.99789,357.36897)"
         id="path3388"
         d="m 228.55113,337.55058 0,-124.28571 42.85715,0 42.85714,0 0,24.28571 0,24.28571 -17.14286,0 -17.14286,0 0,24.28572 0,24.28571 17.14286,0 17.14286,0 0,22.85715 0,22.85714 -17.14286,0 -17.14286,0 0,28.57143 0,28.57143 18.57143,0 18.57143,0 0,24.28571 0,24.28571 -44.28571,0 -44.28572,0 0,-124.28571 z"
         style="fill:#ffffff" />
      <path
         transform="translate(-214.99789,357.36897)"
         id="path3390"
         d="M 125.75237,458.26487 C 103.95694,447.12795 97.316431,432.18168 97.190723,393.97915 l -0.06816,-20.71428 24.285719,0 24.28571,0 0,24.37538 c 0,19.93144 0.85214,24.70238 4.67407,26.16899 10.03622,3.85126 13.89736,-2.97929 13.89736,-24.58512 l 0,-20.49591 -31.91234,-30.58881 C 102.42705,319.45451 100.24855,316.60819 97.353078,302.40995 91.386799,273.15374 95.306921,239.97597 106.3956,225.879 c 18.93897,-24.077 71.07753,-24.34938 93.03705,-0.48603 6.31795,6.8657 11.76412,30.37342 11.91818,51.44332 l 0.0574,7.85715 -24.28572,0 -24.28571,0 0,-14.05204 c 0,-17.66701 -2.06154,-23.09082 -8.77659,-23.09082 -6.84225,0 -11.22341,8.34691 -11.22341,21.38262 0,14.47735 5.83358,24.07176 22.15812,36.44317 22.38115,16.96136 42.70153,40.05862 46.14101,52.4464 1.70366,6.13601 3.10474,24.06252 3.1135,39.8367 0.02,36.06014 -5.99494,50.36369 -25.43344,60.48038 -17.40542,9.05859 -45.4714,9.11422 -63.06367,0.12502 z"
         style="fill:#ffffff" />
    </g>
  </g>
</svg>
