<?xml version="1.0" encoding="utf-8"?>
<!-- Generator: Adobe Illustrator 16.0.0, SVG Export Plug-In . SVG Version: 6.00 Build 0)  -->
<!DOCTYPE svg PUBLIC "-//W3C//DTD SVG 1.1//EN" "http://www.w3.org/Graphics/SVG/1.1/DTD/svg11.dtd">
<svg version="1.1" id="Layer_1" xmlns="http://www.w3.org/2000/svg" xmlns:xlink="http://www.w3.org/1999/xlink" x="0px" y="0px"
	 viewBox="0 0 172.16 171.707" enable-background="new 0 0 172.16 171.707"
	 xml:space="preserve">
<g>
	<g>
		<g>
			<path fill="#563C2A" d="M94.145,169.664c-0.159,0-0.312-0.002-0.46-0.009c-1.011-0.043-2.358-0.087-3.907-0.138
				c-8.316-0.269-16.706-0.602-19.936-1.451c-3.387-0.892-10.787-3.168-14.762-4.392c0,0-2.347-0.72-2.72-0.832
				c-2.23-0.668-7.037-2.724-8.852-4.085c-0.815-0.611-8.551-6.522-12.035-9.309c-3.541-2.833-16.989-20.092-18.843-22.931
				c-3.798-5.809-9.545-23.255-10.445-33.829c-0.728-8.568,1.5-24.528,3.633-29.743c4.305-10.523,10.083-23.634,13.168-26.337
				c1.245-1.089,3.112-3.093,5.275-5.413c4.328-4.643,9.229-9.9,12.662-11.842c1.005-0.569,2.464-1.421,4.196-2.437
				c7.653-4.479,19.222-11.248,22.778-11.861c6.18-1.375,14.038-2.958,16.163-2.958c0.627,0,1.459-0.01,2.391-0.021l0.101-0.001
				c1.239-0.015,2.643-0.032,3.976-0.032c2.961,0,4.633,0.093,5.114,0.284l0.087,0.035l0.089,0.026
				c0.457,0.135,1.496,0.284,4.194,0.638c2.833,0.367,6.305,0.817,7.889,1.344c0.996,0.332,2.775,0.822,4.659,1.341
				c3.474,0.958,7.057,1.947,8.054,2.518c0.278,0.158,0.89,0.447,2.325,1.117c4.954,2.307,16.434,7.65,20.834,12.05l0.744,0.745
				c5.452,5.441,18.213,18.178,20.825,25.139c0.332,0.881,0.692,1.828,1.071,2.823c2.746,7.192,6.505,17.04,7.103,24.421
				c1.019,12.551,1.254,29.554-3.405,39.277c-4.935,10.299-10.991,21.875-13.397,24.521c-2.109,2.323-15.85,15.418-19.071,17.03
				c-0.774,0.387-2.216,1.15-3.905,2.044l-0.277,0.147c-5.174,2.748-12.989,6.9-15.343,7.571c-0.417,0.119-0.983,0.288-1.668,0.493
				C108.383,166.821,98.858,169.664,94.145,169.664z"/>
			<path fill="#F99B06" d="M86.529,4.087c3.23,0,4.169,0.115,4.419,0.163l0.113,0.045l0.179,0.053
				c0.569,0.168,1.369,0.293,4.552,0.709c2.416,0.313,6.067,0.786,7.463,1.25c1.047,0.349,2.769,0.823,4.77,1.375
				c2.847,0.786,6.746,1.861,7.583,2.324c0.341,0.194,0.913,0.464,2.459,1.187l0.062,0.029c4.804,2.236,16.055,7.474,20.197,11.616
				l0.75,0.751c5.355,5.345,17.897,17.862,20.354,24.412c0.332,0.882,0.693,1.831,1.074,2.832c2.701,7.076,6.4,16.766,6.974,23.856
				c1.411,17.387,0.271,30.963-3.211,38.229c-5.669,11.833-11.165,21.938-13.068,24.031c-2.151,2.369-15.649,15.163-18.47,16.575
				c-0.81,0.405-2.265,1.175-3.949,2.067l-0.281,0.148c-4.472,2.376-12.796,6.797-14.947,7.411c-0.42,0.121-0.995,0.291-1.687,0.498
				c-3.982,1.188-13.306,3.971-17.721,3.971c-0.128,0-0.25-0.001-0.375-0.007c-1.014-0.043-2.369-0.088-3.926-0.138
				c-6.061-0.196-16.205-0.524-19.479-1.384c-3.348-0.882-10.722-3.15-14.688-4.37l-0.964-0.296
				c-0.778-0.239-1.39-0.426-1.765-0.539c-2.325-0.697-6.725-2.647-8.214-3.764c-0.812-0.608-8.516-6.496-11.983-9.269
				c-3.121-2.498-16.486-19.508-18.41-22.456C10.667,119.78,5.1,102.825,4.222,92.516C3.515,84.191,5.655,68.744,7.71,63.72
				c8.351-20.417,11.61-24.687,12.622-25.573c1.324-1.158,3.225-3.197,5.428-5.562c4.015-4.307,9.011-9.666,12.171-11.454
				c0.994-0.563,2.407-1.387,4.219-2.45C48.757,14.816,61.054,7.62,64.246,7.069l0.097-0.017l0.096-0.021
				c7.635-1.701,14.059-2.889,15.622-2.889c0.637,0,1.484-0.01,2.433-0.022l0.085-0.001C83.809,4.103,85.204,4.087,86.529,4.087
				 M86.529,0c-1.342,0-2.755,0.017-4.001,0.032c-0.963,0.012-1.824,0.022-2.467,0.022c-3.05,0-14.898,2.628-16.511,2.987
				c-3.625,0.626-13.167,6.087-23.464,12.112c-1.72,1.009-3.17,1.855-4.168,2.421c-3.708,2.098-8.725,7.479-13.151,12.228
				c-2.125,2.28-3.96,4.249-5.125,5.269c-1.013,0.888-4.094,3.584-13.714,27.102c-2.26,5.524-4.541,21.708-3.778,30.689
				c0.948,11.133,6.812,28.719,10.771,34.772c1.928,2.954,15.526,20.408,19.277,23.41c3.494,2.794,11.266,8.733,12.085,9.348
				c2.083,1.563,7.094,3.689,9.492,4.408c0.516,0.154,1.478,0.451,2.705,0.827c4.292,1.32,11.474,3.527,14.844,4.415
				c3.42,0.898,11.596,1.232,20.389,1.517c1.54,0.05,2.88,0.094,3.883,0.137c0.178,0.008,0.359,0.011,0.55,0.011
				c5.006,0,14.384-2.797,18.89-4.142c0.676-0.202,1.234-0.368,1.644-0.485c2.358-0.673,8.791-4.04,15.738-7.73
				c1.789-0.947,3.332-1.766,4.141-2.17c3.704-1.854,17.813-15.44,19.668-17.482c2.719-2.989,9.095-15.342,13.729-25.013
				c4.855-10.133,4.638-27.521,3.599-40.325c-0.621-7.672-4.441-17.68-7.229-24.983c-0.378-0.992-0.737-1.937-1.067-2.813
				c-2.764-7.367-15.277-19.862-21.292-25.865l-0.745-0.746c-4.648-4.648-15.939-9.908-21.364-12.434
				c-1.024-0.479-1.991-0.93-2.225-1.063c-1.146-0.656-3.983-1.461-8.518-2.712c-1.86-0.513-3.618-0.997-4.565-1.313
				c-1.75-0.582-5.191-1.032-8.229-1.426c-1.574-0.206-3.533-0.462-3.92-0.576C91.833,0.204,90.957,0,86.529,0L86.529,0z"/>
		</g>
	</g>
	<g>
		<path fill="#FFFFFF" d="M136.34,77.261c-1.529,0.12-2.814,0.582-4.389,0.638c-0.535-2.622-0.113-5.573-0.216-8.344
			c-0.045-1.207-0.245-2.667-0.191-4.061c0.053-1.335,0.301-2.6,0.279-3.854c-0.054-2.973-0.398-5.989-0.624-8.916
			c-1.365-0.351-0.932,0.095-2.313-0.503c-0.019-1.528-0.354-3.405-0.064-4.794c1.128-1.124,3.476-0.398,5.417-0.731
			c0.475-0.081,0.81,0.258,1.161,0.575c0.304,6.302,0.712,12.762,0.607,19.36c-0.028,1.796,0.062,3.631,0.085,5.427
			C136.114,73.799,136.249,75.539,136.34,77.261z"/>
		<g>
			<path fill="#FFFFFF" d="M127.094,66.5c-0.024-2.209,0.191-4.639-0.121-6.691c-0.707-4.671-0.564-8.229-2.55-11.636
				c-0.531-0.912-1.487-2.097-2.277-2.15c-2.24-0.149-4.683,0.646-6.172,2.265c-1.442,2.032-1.603,5.163-1.716,7.848
				c-0.048,1.101-0.137,2.496-0.031,3.142c0.114,0.702,0.556,1.921,0.929,2.676c1.172,2.356,4.14,3.059,7.414,2.801
				c0.675,1.69,0.583,5.416,0.569,7.241c-0.007,0.83,0.182,1.788-0.131,2.243c-0.646,0.947-2.518,0.491-3.037-0.643
				c-0.363-0.942-0.527-2.33-0.476-3.856c0.032-0.997,0.057-2.012,0.011-3.019c-0.986,0.086-3.059-0.2-3.833,0.145
				c-0.129,0.388-0.32,0.978-0.313,1.29c0.033,1.5,0.14,2.638,0.333,3.958c0.27,1.837,0.62,4.345,1.736,5.329
				c2.504,2.205,7.301,2.067,8.917-0.622c0.436-0.725,0.769-2.381,0.931-3.995C127.454,71.087,127.121,68.767,127.094,66.5z
				 M122.829,61.306c-0.535,0.495-1.665,1.117-3.019,0.516c-0.863-0.384-1.227-1.705-1.46-3.103
				c-0.236-1.407-0.442-3.009-0.433-4.856c0.009-1.696,0.484-3.379,1.117-3.764c0.634-0.387,1.336-0.733,2.026-0.604
				c0.516,0.097,0.766,0.768,1.077,0.906c0.262,0.567,0.518,0.775,0.69,1.595C123,52.813,123.36,60.809,122.829,61.306z"/>
		</g>
		<path fill="#FFFFFF" d="M142.542,72.556c0.198,1.26,0.65,2.336,0.19,4.061c-0.96,0.519-2.109,0.767-3.715,0.376
			c-0.383-1.27-0.362-2.826-0.393-4.347C139.855,72.199,140.904,72.427,142.542,72.556z"/>
		<path fill="#FFFFFF" d="M150.142,76.732c-1.69-0.059-2.86,0.618-4.814,0.187c-0.456-7.613,1.19-16.938-0.08-24.683
			c-0.992-0.186-0.936,0.136-1.84,0.073c-0.06-1.612-0.57-3.462-0.29-4.958c2.052-0.292,3.694-0.189,6.003-0.12
			c0.437,3.358,0.146,6.665,0.068,9.954c-0.026,1.056,0.081,2.122,0.091,3.163c0.027,2.916,0.132,5.523,0.502,8.14
			C150.117,70.85,150.092,73.975,150.142,76.732z"/>
	</g>
	<g>
		<path fill-rule="evenodd" clip-rule="evenodd" fill="#F99B06" d="M84.876,21.02c-0.229,1.062,0.082,2.711,0.01,4.104
			c-0.124,2.375,0.025,4.812,0.212,7.209c0.083,1.093,0.015,2.257,0.058,3.324c0.053,1.284-0.002,2.378,0,3.553
			c0.001,0.944,0.045,2.218,0.057,3.152c0.037,3.183,0.167,6.037,0.224,9.132c4.364,0.374,9.364,0.174,12.556-0.134
			c-0.054-0.693-0.177-4.145-0.229-4.872c-2.927-0.258-5.418-0.005-8.141,0.063c-0.276-2.406,0.066-4.476-0.004-6.874
			c1.745-0.257,5.305,0.106,7.229-0.18c0.265-1.095,0.262-3.562,0.057-4.413c-2.178-0.344-4.814,0.114-7.09-0.229
			c-0.152-3.398-0.116-6.468-0.041-8.9c2.786,0.156,5.561,0.299,8.043,0.027c0.021-2.048,0.09-3.654-0.338-5.136
			c-0.164-0.027-5.852-0.2-8.502-0.057"/>
		<path fill-rule="evenodd" clip-rule="evenodd" fill="#F99B06" d="M99.041,51.317c1.613-0.013,3.115-0.186,4.863-0.011
			c0.301,1.018-3.293,19.303-4.65,28.881c-0.462,3.256-1.244,5.966-2.445,9.346c-1.979,0.106-3.756,0.232-5.941,0.043
			c-0.82-4.289-1.219-10.317-1.508-14.983c-1.422,3.875-2.459,10.368-4.262,15.845c-2.021-0.356-3.938-0.156-5.899-0.431
			c-0.573-4.218-0.396-7.817-0.98-11.887c-0.806-5.616-0.684-10.835-1.166-16.796c-0.12-1.498-0.759-4.556-0.493-6.067
			c1.139,0.178,4.332-0.482,5.731,0.115c0.216,0.86,0.108,3.421,0.256,4.205c0.368,1.939,0.504,4.527,0.699,7.049
			c0.124,1.598,0.128,3.087,0.086,4.651c-0.045,1.628-0.129,4.957,0.172,6.458c0.56-1.162,1.331-5.15,1.419-5.516
			c0.361-1.494,0.61-3.16,0.966-4.698c0.177-0.759,1.15-7.51,1.877-9.765c1.508-0.086,4.479,0.086,4.479,0.086
			s0.895,3.358,0.99,4.649c0.157,2.104,0.424,3.989,0.646,5.899c0.215,1.853,0.706,6.144,0.87,6.169
			C96.414,67.325,97.474,59.193,99.041,51.317z"/>
		<path fill-rule="evenodd" clip-rule="evenodd" fill="#F99B06" d="M126.62,130.28c-0.837,0.409-5.129,0.646-7.062,0.937
			c-2.971-4.194-6.492-11.428-9.071-15.841c0.237,4.128,0.444,11.442,1.001,15.63c0.18,1.344,0.447,2.477,0.082,3.854
			c-13.205,2.139-30.669,0.455-43.614,1.719c-0.043,2.155,0.269,7.098-0.056,9.913c0.482-0.036,1.438-1.188,1.866-1.58
			c0.407-0.374,0.883-0.89,1.186-1.278c0.449-0.577,1.62-1.644,1.62-1.644s1.443,0.754,2.211,1.603
			c0.863,0.955,1.677,1.952,2.378,2.776c-0.727,1.427-2.19,2.127-3.284,3.185c-3.139,3.031-6.848,5.586-9.787,9.205
			c-2.839-2.317-5.49-4.675-8.255-7.089c-1.345-1.173-3.041-2.068-4.025-3.616c1.041-1.728,1.81-3.852,3.372-4.824
			c2.07,0.65,3.809,2.805,5.476,3.734c0.057-4.46-0.261-11.644,0.106-16.565c0.837-0.63,2.788-0.34,4.07-0.507
			c5.923-0.769,11.855-0.481,17.867-1.069c7.428-0.729,15.148,0.654,22.203-1.282c0.105-1.061,0.029-2.401-0.074-3.385
			c0.21-6.037-0.023-12.059-0.374-17.725c-0.122-1.992,0.105-4.017,0.003-5.944c-0.049-0.946-0.094-1.585,0.01-2.646
			c1.667-0.396,4.056-0.087,6.069-0.157c1.492,3.872,2.641,7.713,4.163,11.748c0.502,1.331,3.357,9.259,5.338,11.242
			c0.201-10.144-1.024-23.943-1.184-32.809c-0.013-0.683,0.043-3.569,0.043-3.569l6.343-0.173c0,0-0.188,3.606-0.084,5.517
			c0.126,2.326,0.275,4.598,0.377,5.835c0.358,4.322,0.12,7.379-0.036,12.064c-0.102,3.075,0.614,7.398,0.662,10.111
			C126.231,121.816,126.411,126.257,126.62,130.28z"/>
		<path fill-rule="evenodd" clip-rule="evenodd" fill="#F99B06" d="M104.728,91.219c-0.788,3.934-1.809,9.425-2.881,15.871
			c-0.469,2.838-0.918,5.498-1.484,8.736c-0.537,3.07-0.923,7.179-1.754,8.703c-1.801,0.276-3.093,0.461-5.587,0.139
			c-0.638-3.135-1.136-10.791-1.677-13.991c-0.924,3.214-2.785,11.023-4.096,14.36c-1.53,0.518-4.045,0.61-5.634,0.322
			c-0.138-1.107-0.138-1.825-0.362-2.895c-0.648-3.12-0.427-7.141-0.977-9.85c-0.17-0.844-0.163-1.913-0.292-2.773
			c-0.263-1.752-0.321-3.548-0.493-5.262c-0.199-1.966-0.446-4.049-0.634-6.076c-0.172-1.854-0.485-3.76-0.302-5.625
			c1.268-0.885,3.083-0.998,5.306-0.536c0.989,6.059,1.517,12.445,2.62,18.426c0.863-0.822,0.965-2.437,1.229-3.418
			c0.322-1.188,0.336-2.283,0.648-3.417c1.112-4.055,0.949-7.858,1.723-11.532c1.193-0.483,3.27-0.351,4.371-0.335
			c0.6,2.587,0.885,5.343,0.924,8.035c0.04,2.717,0.408,5.086,0.818,7.464c1.425-3.384,1.471-8.783,2.754-13.015
			c0.338-1.119,0.491-1.931,0.677-3.084C100.822,90.858,103.072,90.475,104.728,91.219z"/>
		<g>
			<path fill="#F99B06" d="M77.256,98.41c-0.32-1.942-2.242-6.354-6.942-6.754c-1.045-0.089-2.733,0.089-3.643,0.279
				c-3.208,0.67-6.649,3.497-7.772,6.588c-0.722,1.982-0.721,5.557-0.583,8.711c0.282,6.471,0.482,13.895,4.257,16.187
				c3.774,2.293,6.654,1.598,9.161,0.785c0.91-0.296,1.381-0.434,1.999-0.863c0.619-0.43,0.85-0.553,1.257-1.046
				c0.407-0.493,1.152-2.14,1.409-2.996C78.344,112.817,77.576,100.354,77.256,98.41z M73.094,114.424
				c-0.523,4.25-2.122,5.476-6.182,4.604c-0.892-0.191-2.365-1.688-2.756-2.985c-0.476-1.578-0.644-2.589-0.918-5.74
				c-0.304-3.504,0.041-6.372,0.689-9.187c0.432-1.877,2.72-4.424,4.822-4.133c0.686-0.038,2.099,1.053,2.479,1.716
				c0.083,0.141,1.157,2.709,1.261,3.438c0.203,1.411,0.531,2.55,0.662,5.413C73.26,109.968,73.342,112.396,73.094,114.424z"/>
		</g>
		<g>
			<path fill="#F99B06" d="M56.619,105.519c-0.148-6.483-1.857-12.798-8.071-13.79c-3.032-0.482-7.349-0.027-10.104,1.309
				c-0.155,4.805-0.282,9.634-0.312,14.51c-0.031,5.621-0.028,12.192-0.028,16.358c0,0.578,1.625,0.366,2.255,0.692
				c2.308,0.439,3.508,0.595,5.125,0.37c0.84-0.117,1.559-0.316,2.343-0.461c1.6-0.293,5.363-1.997,6.331-3.104
				c1.164-1.329,2.366-4.791,2.462-7.265C56.708,111.869,56.688,108.525,56.619,105.519z M43.521,97.608
				c1.201-0.094,3.536-0.735,5.126,0.185c1.401,0.811,2.67,3.723,3.109,5.818c0.706,3.372-0.045,6.668-0.308,9.665
				c-0.192,2.204,0.139,3.482-1.539,4.927c-0.833,0.715-2.107,1.399-2.647,1.539c-1.431,0.367-3.129,0.507-3.694,0
				c0.045-0.83,0.014-3.078,0.06-3.632"/>
		</g>
		<path fill-rule="evenodd" clip-rule="evenodd" fill="#F99B06" d="M82.404,14.337c0.388,4.143,0.278,7.423,0.337,11.575
			c0.011,0.75,0.076,9.538,0.119,13.098c0.019,1.59-0.083,3.435-0.017,5.025c0.108,2.638,0.42,5.262,0.076,7.783
			c-1.63,0.396-2.851-0.031-4.699,0.058c0-0.688-0.229-4.444-0.28-5.54c-0.075-1.588,0.023-5.07,0.023-5.07
			s-4.639-0.116-5.869-0.064c-0.206,3.713-0.235,7.23-0.465,10.732c-1.139-0.185-1.708,0.319-4.814,0.057
			c-0.142-1.367,0.01-2.423-0.1-3.825c-0.046-0.611-0.095-5.38-0.111-7.227c-0.015-1.701,0.086-3.316,0.181-5.001
			c0.237-4.257-0.66-9.449-0.06-14.428c1.125-0.65,3.484-0.585,4.756-0.363c-0.059,5.305,0.194,11.766,0.453,15.297
			c2.213,0.007,4.108-0.077,6.506-0.03c-0.246-1.136,0.224-2.384,0.122-3.668c-0.032-0.388-0.118-1.931-0.101-2.364
			c0.051-1.322-0.283-2.712-0.313-4.076c-0.031-1.415,0.092-2.784,0.041-4.184c-0.1-2.78-0.604-4.496-0.055-7.625
			C79.336,13.798,80.599,14.119,82.404,14.337z"/>
		<path fill-rule="evenodd" clip-rule="evenodd" fill="#F99B06" d="M76.016,14.206c0.072,1.676,0.475,3.693-0.073,5.352
			c-4.199-0.349-8.97,0.136-13.541-0.292c-0.471,0.994-0.357,6.564-0.263,8.507c0.087,1.757,0.313,3.462,0.282,5.244
			c-0.102,5.995,0.327,12.333-0.335,18.72c-1.578,0.064-3.412,0.537-5.357,0.082c-0.359-1.482,0.04-6.864,0-8.023
			c-0.04-1.136,0.16-2.426,0.115-3.61c-0.068-1.718-0.138-4.481,0-7.967c0.151-3.837-0.543-8.553-0.058-12.437
			c-6.197,0.218-10.894,0.027-17.308-0.516c-0.318-1.931,1.784-0.389,2.178-2.35c0.983,0.223,1.411-1.563,2.35-1.719
			c1.834-0.306,1.665-1.347,2.178-1.376c1.157-0.067,0.042-0.492,1.261-0.63c0.492-0.056,0.647,0.091,1.24,0.053
			c0.457-0.028,3.257-0.003,4.185,0.042c1.282,0.061,2.531-0.21,3.886-0.178c2.685,0.063,5.506,0.527,8.284,0.571
			C68.85,13.74,71.974,13.479,76.016,14.206z"/>
		<g>
			<path fill="#F99B06" d="M73.746,66.048c-0.349-2.429-0.456-4.596-1.12-6.227c-0.437-1.071-0.428-3.068-2.892-4.683
				c-2.464-1.615-6.861-0.804-9.294,0.43c-3.046,1.546-5.004,3.928-5.327,8.65c-0.364,5.298-0.806,13.276-0.196,17.904
				c0.104,0.785,0.611,1.931,1.05,2.694c1.564,2.713,4.429,4.551,8.216,4.918c1.487,0.145,3.155,0.313,4.51,0.097
				c2.286-0.365,3.65-1.559,4.306-3.626c0.946-2.99,1.485-7.638,1.555-10.131C74.668,72.069,74.231,69.431,73.746,66.048z
				 M69.982,71.952c-0.076,1.821,0.103,3.234-0.043,4.823c-0.352,3.824-1.338,7.132-3.789,7.837
				c-1.47,0.422-3.332-0.161-4.047-1.206c-0.371-0.54-0.709-0.658-0.818-1.335c-0.117-0.727-0.477-1.536-0.56-2.152
				c-0.063-0.461-0.031-2.529-0.087-3.015c-0.237-2.126-0.031-3.378-0.172-5.985c-0.118-2.192-0.467-4.351,0.302-7.706
				c0.167-0.729,0.476-2.149,0.774-2.512c0.147-0.178,0.615-0.992,1.547-1.317c0.385-0.134,1.091-0.234,1.605-0.344
				c0.685-0.149,2.206,0.111,3.152,1.317c0.948,1.206,1.262,2.965,1.619,6.772C69.619,68.756,70.059,70.146,69.982,71.952z"/>
		</g>
		<path fill-rule="evenodd" clip-rule="evenodd" fill="#F99B06" d="M45.707,54.748c0.012,0.561-0.154,2.559-0.174,2.988
			c-0.072,1.544,0.403,3.163,0.364,4.757c-0.039,1.625-0.304,3.227-0.315,4.809c-0.038,5.642,0.081,10.171,0.116,15.575
			c2.961,0.035,5.382-0.429,8.296,0.205c-0.142,1.835,0.083,4.137-0.398,5.986c-4.225-0.583-9.875-0.487-14.183-0.401
			c-0.423-3.99-0.306-7.671-0.204-11.604c0.061-2.376,0.183-4.415,0.03-6.847c-0.083-1.318-0.073-3.067-0.129-4.402
			c-0.161-3.887-0.483-8.51-0.388-12.391c0.861-0.172,1.858,0.051,2.849-0.1c1.046-0.158,2.769-0.348,3.788-0.479
			C45.414,52.854,45.693,54.121,45.707,54.748z"/>
	</g>
</g>
</svg>
