<?xml version="1.0" encoding="utf-8"?>
<!-- Generator: Adobe Illustrator 16.0.0, SVG Export Plug-In . SVG Version: 6.00 Build 0)  -->
<!DOCTYPE svg PUBLIC "-//W3C//DTD SVG 1.1//EN" "http://www.w3.org/Graphics/SVG/1.1/DTD/svg11.dtd">
<svg version="1.1" id="Layer_1" xmlns="http://www.w3.org/2000/svg" xmlns:xlink="http://www.w3.org/1999/xlink" x="0px" y="0px"
	 viewBox="0 0 200 200" enable-background="new 0 0 200 200" xml:space="preserve">
<g>
	<g>
		<path d="M200,100C200,44.771,155.229,0,100,0S0,44.771,0,100c0,52.834,40.978,96.095,92.886,99.744c0-40.108,0-156.424,0-163.412
			c0-12.347,20.955-12.444,20.955,2.691c0,15.717,0,121.326,0,160.018C162.517,192.301,200,150.53,200,100z"/>
		<path fill="#FFFFFF" d="M92.886,36.333c0,6.987,0,123.303,0,163.412C95.236,199.91,97.607,200,100,200
			c4.698,0,9.316-0.332,13.841-0.958c0-38.692,0-144.301,0-160.018C113.841,23.889,92.886,23.986,92.886,36.333z"/>
	</g>
	<g>
		<path d="M173.773,126.498c-0.064,0-0.128-0.009-0.193-0.026L40.686,90.275c-0.331-0.09-0.555-0.398-0.539-0.743l2.942-60.388
			c0.014-0.297,0.208-0.556,0.488-0.655l6.852-2.416c0.079-0.026,0.161-0.041,0.244-0.041c0.123,0,0.246,0.031,0.354,0.091
			l124.205,65.819c0.209,0.116,0.348,0.326,0.374,0.565l0.943,30.255c0.019,0.176-0.026,0.35-0.126,0.495l-2.049,2.925
			C174.233,126.384,174.007,126.498,173.773,126.498z"/>
		<path fill="#FFFFFF" d="M50.672,26.765l122.223,67.684l2.928,28.39l-2.049,2.928l-132.895-36.2l2.941-60.388L50.672,26.765
			 M50.672,25.302c-0.165,0-0.328,0.027-0.486,0.083l-6.853,2.415c-0.562,0.198-0.947,0.714-0.975,1.31l-2.943,60.388
			c-0.033,0.686,0.415,1.303,1.077,1.483l132.895,36.197c0.127,0.035,0.257,0.051,0.385,0.051c0.469,0,0.919-0.227,1.199-0.623
			l2.049-2.928c0.202-0.288,0.292-0.64,0.255-0.988l-0.943-30.256c-0.05-0.477-0.328-0.898-0.747-1.131L51.382,25.485
			C51.162,25.363,50.918,25.302,50.672,25.302L50.672,25.302z"/>
	</g>
	<polygon fill="#FFFFFF" points="50.77,26.643 48.668,84.576 177.058,123.351 175.721,92.053 	"/>
	<g>
		<path d="M55.385,175.177c-0.282-0.006-0.541-0.168-0.667-0.42l-0.561-1.122c-0.056-0.117-0.084-0.248-0.079-0.378l1.314-26.853
			c0.019-0.383,0.319-0.693,0.701-0.723l85.568-6.765c0.02-0.001,0.041-0.001,0.059-0.001c0.216,0,0.421,0.089,0.566,0.251
			l2.523,2.803c0.126,0.141,0.196,0.324,0.196,0.515l-0.33,33.571c-0.001,0.203-0.084,0.396-0.231,0.539
			c-0.143,0.138-0.332,0.214-0.532,0.214C143.909,176.809,55.385,175.177,55.385,175.177z"/>
	</g>
	<g>
		<g>
			<g>
				<path d="M59.837,78.175c-0.87,0-2.57-0.802-2.642-0.836c-1.179-0.561-1.78-0.92-1.922-1.148
					c-0.462-0.746,3.028-31.28,3.732-37.394c0.005-0.045,0.031-0.085,0.07-0.109c0.023-0.014,0.049-0.021,0.076-0.021
					c0.018,0,0.036,0.003,0.053,0.01L63.93,40.5c0.063,0.024,0.102,0.089,0.093,0.156c-0.029,0.219-2.826,21.412-3.524,28.89
					c3.126-4.541,12.273-23.773,12.369-23.974c0.017-0.035,0.046-0.062,0.083-0.075c0.016-0.006,0.033-0.009,0.049-0.009
					c0.022,0,0.043,0.005,0.063,0.014l4.506,2.148c0.036,0.018,0.064,0.049,0.077,0.088c0.012,0.039,0.008,0.081-0.012,0.116
					l-0.076,0.139c-4.941,9.057-16.553,30.127-17.659,30.179L59.837,78.175z"/>
				<path d="M59.151,38.814l4.726,1.823c0,0-2.959,22.397-3.573,29.426C63.12,66.434,73,45.635,73,45.635l4.506,2.148
					c-0.034,0.058-16.425,30.187-17.614,30.243c-0.018,0.001-0.036,0.001-0.055,0.001c-0.807,0-2.438-0.755-2.579-0.822
					c-0.305-0.145-1.67-0.787-1.861-1.092C54.938,75.374,59.151,38.814,59.151,38.814 M59.151,38.521
					c-0.053,0-0.105,0.014-0.152,0.042c-0.078,0.047-0.129,0.127-0.14,0.218c-0.011,0.091-1.065,9.247-2.049,18.374
					c-2.002,18.565-1.781,18.922-1.662,19.114c0.114,0.183,0.436,0.467,1.953,1.188l0.031,0.015
					c0.073,0.035,1.803,0.851,2.705,0.851c0.023,0,0.046,0,0.068-0.001c0.33-0.016,0.882-0.042,8.984-14.387
					c3.692-6.537,7.381-13.275,8.796-15.868l0.075-0.138c0.04-0.071,0.048-0.155,0.023-0.232c-0.025-0.077-0.08-0.141-0.153-0.176
					l-4.505-2.148c-0.04-0.019-0.083-0.028-0.126-0.028c-0.034,0-0.067,0.006-0.099,0.017c-0.073,0.026-0.134,0.08-0.167,0.15
					c-0.092,0.194-8.657,18.203-12.034,23.467c0.779-7.934,3.439-28.087,3.467-28.3c0.018-0.134-0.059-0.263-0.186-0.312
					l-4.726-1.823C59.222,38.528,59.187,38.521,59.151,38.521L59.151,38.521z"/>
			</g>
		</g>
		<g>
			<path d="M131.036,102.948c-0.186-0.025-2.094-0.575-2.433-0.725c-1.044-0.462-0.918-2.631-0.614-7.87
				c0.09-1.557,0.201-3.459,0.296-5.641c-3.654,7.532-6.161,11.352-7.452,11.352c-0.055,0-0.11-0.007-0.161-0.02
				c-0.019-0.005-1.917-0.543-2.186-0.939c-0.522-0.773,1.897-29.289,1.959-29.521c0.012-0.043,0.042-0.079,0.083-0.096
				c0.019-0.008,0.039-0.012,0.059-0.012c0.023,0,0.046,0.006,0.068,0.017l3.811,1.98c0.054,0.028,0.085,0.086,0.079,0.146
				c-0.019,0.175-1.798,16.304-2.424,21.9c1.48-3.643,4.246-10.848,5.961-15.313c1.03-2.683,1.487-3.873,1.529-3.952
				c0.026-0.05,0.077-0.079,0.13-0.079c0.02,0,0.04,0.004,0.06,0.013l3.667,1.623c0.037,0.016,0.065,0.047,0.079,0.084
				c0.013,0.038,0.011,0.08-0.007,0.115c0.003,0.017-1.853,14.397-2.503,19.831c2.074-5.371,6.12-18.023,6.163-18.159
				c0.013-0.041,0.043-0.074,0.083-0.09c0.018-0.008,0.038-0.012,0.057-0.012c0.022,0,0.045,0.005,0.065,0.016l3.272,1.622
				c0.036,0.018,0.063,0.048,0.074,0.086c0.012,0.037,0.009,0.079-0.01,0.113c-0.003,0.009-0.063,0.177-0.167,0.467
				c-5.497,15.306-8.695,23.067-9.507,23.067C131.066,102.95,131.042,102.948,131.036,102.948z"/>
			<path d="M120.587,69.622l3.812,1.98c0,0-2.059,18.678-2.541,22.941c1.933-4.625,7.757-19.983,7.883-20.223l3.667,1.623
				c-0.008,0.017-2.185,16.925-2.647,20.982c1.912-4.594,6.578-19.201,6.578-19.201l3.272,1.623
				c-0.032,0.063-8.322,23.455-9.544,23.455c-0.004,0-0.008,0-0.012,0c-0.161-0.022-2.062-0.567-2.393-0.713
				c-1.285-0.568-0.591-4.539-0.201-14.074c-0.162,0.284-5.551,11.901-7.628,11.901c-0.043,0-0.085-0.005-0.125-0.015
				c-0.327-0.083-1.897-0.581-2.1-0.88C118.12,98.301,120.573,69.678,120.587,69.622 M120.587,69.329
				c-0.04,0-0.08,0.008-0.118,0.025c-0.081,0.036-0.142,0.106-0.166,0.192c-0.026,0.097-0.696,8.067-1.188,14.505
				c-1.115,14.599-0.879,14.948-0.752,15.136c0.312,0.461,2.252,0.995,2.272,1c0.063,0.016,0.129,0.024,0.196,0.024
				c0.496,0,1.979,0,7.273-10.797c-0.088,1.886-0.184,3.545-0.264,4.932c-0.309,5.311-0.436,7.51,0.701,8.013
				c0.359,0.159,2.277,0.709,2.472,0.736c0.013,0.001,0.038,0.003,0.051,0.003c0.397,0,1.326,0,9.646-23.164
				c0.099-0.276,0.158-0.441,0.17-0.473c0.026-0.064,0.029-0.135,0.008-0.202c-0.024-0.075-0.078-0.138-0.148-0.172l-3.272-1.622
				c-0.041-0.021-0.085-0.031-0.13-0.031c-0.039,0-0.078,0.008-0.114,0.023c-0.079,0.034-0.14,0.1-0.165,0.181
				c-0.041,0.127-3.578,11.188-5.731,17.013c0.739-6.044,2.345-18.473,2.369-18.656c0.009-0.049,0.004-0.101-0.013-0.148
				c-0.027-0.076-0.083-0.137-0.157-0.169l-3.667-1.623c-0.038-0.017-0.078-0.025-0.119-0.025c-0.106,0-0.208,0.058-0.26,0.158
				c-0.042,0.082-0.348,0.875-1.536,3.968c-1.57,4.088-4.021,10.472-5.559,14.316c0.707-6.335,2.288-20.669,2.305-20.834
				c0.014-0.121-0.048-0.236-0.156-0.292l-3.811-1.98C120.68,69.339,120.634,69.329,120.587,69.329L120.587,69.329z"/>
		</g>
		<g>
			<g>
				<path d="M76.558,84.706c-0.019,0-0.038-0.004-0.056-0.012l-4.813-1.977c-0.071-0.029-0.107-0.107-0.084-0.18l10.347-32.575
					c0.013-0.041,0.043-0.075,0.083-0.091c0.018-0.007,0.037-0.012,0.057-0.012c0.022,0,0.045,0.005,0.066,0.016l4.834,2.447
					c0.064,0.033,0.096,0.107,0.073,0.176L76.697,84.604c-0.012,0.039-0.041,0.07-0.078,0.088
					C76.6,84.701,76.579,84.706,76.558,84.706z"/>
				<path d="M82.092,50.007l4.834,2.447L76.558,84.559l-4.813-1.977L82.092,50.007 M82.092,49.713c-0.039,0-0.077,0.007-0.114,0.022
					c-0.079,0.034-0.14,0.1-0.167,0.182L71.465,82.493c-0.046,0.146,0.027,0.303,0.168,0.36l4.812,1.977
					c0.036,0.015,0.074,0.021,0.111,0.021c0.042,0,0.084-0.009,0.124-0.027c0.074-0.034,0.13-0.098,0.156-0.176l10.368-32.105
					c0.044-0.137-0.018-0.287-0.147-0.352l-4.834-2.447C82.183,49.724,82.138,49.713,82.092,49.713L82.092,49.713z"/>
			</g>
		</g>
		<g>
			<g>
				<path d="M97.506,91.98c-0.014,0-0.028-0.002-0.041-0.006l-3.509-1.015c-0.059-0.018-0.101-0.069-0.105-0.13l-1.673-22.729
					l-5.331,19.874c-0.01,0.038-0.036,0.071-0.07,0.09c-0.021,0.013-0.047,0.019-0.072,0.019c-0.014,0-0.028-0.002-0.041-0.006
					l-4.147-1.221c-0.077-0.022-0.121-0.103-0.099-0.181l9.113-32.045c0.012-0.042,0.042-0.077,0.083-0.095
					c0.019-0.008,0.038-0.012,0.058-0.012c0.024,0,0.047,0.006,0.068,0.017l3.87,2.02c0.046,0.024,0.076,0.071,0.079,0.124
					l1.009,21.491l4.428-18.484c0.011-0.044,0.041-0.081,0.082-0.1c0.02-0.009,0.041-0.013,0.062-0.013
					c0.023,0,0.046,0.006,0.068,0.017l3.871,2.021c0.06,0.031,0.091,0.101,0.074,0.167L97.648,91.87
					c-0.01,0.039-0.035,0.071-0.069,0.091C97.556,91.974,97.531,91.98,97.506,91.98z"/>
				<path d="M91.67,54.669l3.87,2.02l1.058,22.524l4.669-19.489l3.87,2.021l-7.632,30.089l-3.509-1.015L92.26,67.226l-5.556,20.71
					l-4.147-1.221L91.67,54.669 M91.67,54.376c-0.04,0-0.079,0.008-0.116,0.024c-0.081,0.035-0.142,0.104-0.167,0.189l-9.113,32.046
					c-0.044,0.155,0.045,0.316,0.199,0.361l4.147,1.221c0.027,0.008,0.055,0.012,0.083,0.012c0.05,0,0.1-0.012,0.144-0.037
					c0.069-0.039,0.12-0.103,0.14-0.18l5.106-19.037l1.61,21.866c0.009,0.122,0.093,0.226,0.211,0.26l3.509,1.014
					c0.027,0.008,0.054,0.012,0.082,0.012c0.05,0,0.101-0.013,0.146-0.039c0.069-0.04,0.119-0.105,0.139-0.182l7.632-30.089
					c0.034-0.132-0.028-0.27-0.148-0.333l-3.871-2.021c-0.042-0.022-0.089-0.033-0.135-0.033c-0.042,0-0.083,0.009-0.121,0.026
					c-0.083,0.037-0.144,0.11-0.165,0.199l-4.187,17.479l-0.961-20.459c-0.005-0.104-0.065-0.198-0.157-0.247l-3.871-2.02
					C91.764,54.387,91.717,54.376,91.67,54.376L91.67,54.376z"/>
			</g>
		</g>
		<g>
			<path d="M112.757,96.849c-0.012,0-0.024-0.001-0.036-0.004c-4.031-1.006-7.808-2.289-8.933-2.751
				c-0.94-0.386-1.216-0.967-1.363-1.279c-0.025-0.054-0.046-0.099-0.067-0.134c-0.336-0.545-0.18-1.652,0.063-2.242l6.583-25.458
				c0.092-0.23,0.282-0.337,0.569-0.337c0.688,0,2.066,0.628,4.349,1.669c1.327,0.605,2.98,1.359,4.969,2.204
				c0.067,0.028,0.103,0.102,0.084,0.173l-1.004,3.744c-0.011,0.04-0.038,0.073-0.074,0.092c-0.021,0.011-0.044,0.017-0.068,0.017
				c-0.017,0-0.034-0.003-0.05-0.009c-0.173-0.063-4.044-1.476-5.324-2.249l-2.488,8.296l5.631,2.042
				c0.072,0.026,0.112,0.104,0.091,0.177l-1.012,3.587c-0.01,0.039-0.037,0.072-0.073,0.09c-0.021,0.011-0.045,0.017-0.068,0.017
				c-0.016,0-0.032-0.002-0.048-0.008l-5.451-1.889l-2.421,8.324c0.345,0.105,0.882,0.276,1.516,0.479
				c1.917,0.611,4.813,1.535,5.828,1.719c0.042,0.008,0.079,0.033,0.1,0.07c0.021,0.037,0.027,0.082,0.012,0.122l-1.177,3.438
				C112.875,96.81,112.818,96.849,112.757,96.849z"/>
			<path d="M109.572,64.79c1.044,0,3.907,1.587,9.26,3.861l-1.004,3.744c0,0-4.401-1.603-5.458-2.339l-2.584,8.616l5.762,2.089
				l-1.012,3.587l-5.597-1.939l-2.506,8.612c1.216,0.361,6.096,1.988,7.499,2.244l-1.176,3.438
				c-3.979-0.994-7.737-2.262-8.913-2.745c-1.062-0.436-1.219-1.121-1.361-1.353c-0.309-0.501-0.148-1.571,0.073-2.109l6.59-25.478
				C109.209,64.862,109.349,64.789,109.572,64.79 M109.572,64.496c-0.439,0-0.622,0.223-0.699,0.41
				c-0.005,0.012-0.009,0.025-0.013,0.038l-6.584,25.459c-0.241,0.6-0.418,1.748-0.044,2.355c0.019,0.031,0.037,0.072,0.06,0.119
				c0.156,0.33,0.447,0.945,1.44,1.352c1.13,0.464,4.916,1.75,8.954,2.758c0.023,0.006,0.047,0.009,0.071,0.009
				c0.123,0,0.236-0.077,0.277-0.198l1.176-3.438c0.028-0.081,0.019-0.169-0.024-0.243c-0.043-0.074-0.116-0.125-0.201-0.14
				c-1.004-0.183-3.896-1.104-5.809-1.714c-0.565-0.18-1.039-0.332-1.38-0.437l2.339-8.037l5.305,1.838
				c0.031,0.011,0.064,0.016,0.096,0.016c0.047,0,0.094-0.011,0.136-0.033c0.072-0.038,0.125-0.103,0.147-0.181l1.011-3.587
				c0.042-0.148-0.038-0.303-0.182-0.355l-5.5-1.995l2.395-7.986c1.433,0.797,5.021,2.106,5.186,2.167
				c0.032,0.012,0.066,0.018,0.1,0.018c0.047,0,0.093-0.011,0.136-0.033c0.073-0.038,0.126-0.105,0.148-0.185l1.004-3.744
				c0.038-0.141-0.035-0.289-0.168-0.346c-1.987-0.844-3.639-1.597-4.966-2.203C111.603,65.094,110.292,64.496,109.572,64.496
				L109.572,64.496z"/>
		</g>
		<g>
			<g>
				<path d="M157.056,110.705c-0.307,0-0.633-0.032-0.969-0.096c-0.511-0.097-1.047-0.264-1.639-0.511
					c-3.609-1.497-4.53-2.892-3.943-5.974c0.238-1.244,0.919-5.203,1.972-11.449l0.06-0.355l0.706-3.701
					c0.278-1.453,1.578-2.391,3.313-2.391c0.331,0,0.675,0.034,1.022,0.1c0.666,0.126,2.57,0.992,2.651,1.029
					c2.093,0.967,3.63,2.041,2.829,6.241c-0.42,2.199-1.201,6.549-2.322,12.931c-0.07,0.4-0.112,0.634-0.115,0.652
					C160.063,110.094,158.375,110.705,157.056,110.705L157.056,110.705z M156.891,89.235c-0.27,0-0.604,0.136-0.795,1.193
					c-0.229,1.271-2.2,12.146-2.613,14.31l-0.038,0.193c-0.255,1.311-0.288,1.479,2.119,2.477c0.404,0.167,0.765,0.281,1.069,0.34
					c0.188,0.036,0.328,0.058,0.446,0.058c0.269,0,0.474-0.083,0.679-1.163c0.003-0.016,0.038-0.212,0.097-0.549
					c1.127-6.417,1.915-10.804,2.342-13.041c0.438-2.301,0.221-2.401-1.188-3.053c-0.241-0.112-0.879-0.383-1.567-0.637
					C157.269,89.3,157.069,89.235,156.891,89.235z"/>
				<path d="M156.555,86.385c0.317,0,0.649,0.031,0.992,0.097c0.618,0.117,2.377,0.909,2.616,1.017
					c2.098,0.97,3.521,1.973,2.739,6.07c-0.746,3.906-2.416,13.472-2.437,13.582c-0.513,2.688-1.994,3.397-3.41,3.397
					c-0.321,0-0.638-0.036-0.939-0.094c0,0,0,0-0.001,0c-0.497-0.094-1.022-0.257-1.607-0.501c-3.563-1.477-4.425-2.777-3.849-5.799
					c0.408-2.135,2.012-11.687,2.033-11.807l0.705-3.699C153.667,87.239,154.909,86.385,156.555,86.385 M157.079,107.963
					c0.427,0,0.637-0.259,0.834-1.291c0.02-0.103,1.691-9.675,2.438-13.59c0.461-2.42,0.163-2.56-1.277-3.225
					c-0.27-0.125-0.912-0.396-1.578-0.641c-0.209-0.077-0.415-0.138-0.605-0.138c-0.416,0-0.763,0.289-0.949,1.323
					c-0.23,1.281-2.203,12.156-2.613,14.308c-0.294,1.539-0.464,1.75,2.175,2.844c0.414,0.171,0.784,0.288,1.101,0.35
					C156.788,107.938,156.944,107.963,157.079,107.963 M156.555,86.07c-1.813,0-3.174,0.989-3.466,2.519l-0.706,3.699l-0.061,0.36
					c-1.053,6.246-1.735,10.204-1.972,11.446c-0.605,3.178,0.338,4.614,4.038,6.148c0.602,0.25,1.148,0.421,1.668,0.52
					c0.004,0.001,0.008,0.001,0.012,0.002c0.341,0.065,0.673,0.098,0.987,0.098c1.378,0,3.142-0.634,3.718-3.653
					c0.003-0.017,0.045-0.252,0.115-0.653c1.122-6.381,1.902-10.731,2.322-12.929c0.823-4.312-0.761-5.417-2.917-6.414
					c-0.207-0.094-2.017-0.913-2.689-1.041C157.249,86.105,156.896,86.07,156.555,86.07L156.555,86.07z M157.079,107.649
					c-0.105,0-0.243-0.022-0.417-0.056c-0.294-0.057-0.644-0.168-1.039-0.331c-2.288-0.949-2.268-1.05-2.023-2.301l0.038-0.194
					c0.413-2.165,2.385-13.04,2.613-14.312c0.191-1.064,0.518-1.064,0.64-1.064c0.155,0,0.346,0.063,0.497,0.119
					c0.683,0.251,1.316,0.521,1.554,0.631c1.373,0.635,1.517,0.701,1.101,2.881c-0.427,2.238-1.215,6.626-2.342,13.042
					c-0.058,0.333-0.093,0.528-0.096,0.548C157.407,107.649,157.24,107.649,157.079,107.649L157.079,107.649z"/>
			</g>
		</g>
		<g>
			<g>
				<path d="M145.23,106.981c-0.309,0-0.637-0.033-0.975-0.098c-0.507-0.097-1.063-0.27-1.65-0.514
					c-3.632-1.506-4.56-2.91-3.968-6.01c0.337-1.77,1.616-8.932,2.097-11.628c0.1-0.558,0.161-0.898,0.165-0.919l0.712-3.724
					c0.358-1.695,1.293-2.554,2.782-2.554c0.472,0,0.993,0.082,1.593,0.25c0.996,0.279,2.59,1.002,2.658,1.033
					c2.107,0.975,3.654,2.056,2.847,6.284c-0.428,2.242-1.289,6.86-2.559,13.727l-0.111,0.605
					C148.259,106.365,146.559,106.981,145.23,106.981C145.23,106.981,145.23,106.981,145.23,106.981z M145.331,84.673
					c-0.275,0-0.535,0.07-0.692,0.917c0,0-2.47,13.204-2.883,15.371c-0.024,0.124-0.047,0.239-0.069,0.348
					c-0.246,1.205-0.284,1.39,2.041,2.355c0.411,0.17,0.774,0.286,1.077,0.343c0.178,0.034,0.332,0.064,0.442,0.064
					c0.216,0,0.302-0.089,0.504-1.147c0.004-0.02,0.068-0.365,0.174-0.939c0.466-2.515,1.88-10.167,2.499-13.403
					c0.463-2.423,0.323-2.487-1.009-3.105c-0.052-0.024-0.136-0.064-0.241-0.116c-0.397-0.193-1.224-0.594-1.508-0.648
					C145.532,84.685,145.423,84.673,145.331,84.673z"/>
				<path d="M144.392,81.69c0.473,0,0.994,0.088,1.551,0.244c0.922,0.258,2.395,0.916,2.635,1.025
					c2.11,0.976,3.545,1.987,2.757,6.112c-0.751,3.932-2.649,14.221-2.67,14.333c-0.517,2.708-2.007,3.42-3.435,3.42
					c-0.322,0-0.641-0.037-0.945-0.094c-0.494-0.094-1.038-0.263-1.62-0.505c-3.586-1.487-4.455-2.796-3.874-5.835
					c0.41-2.151,2.24-12.428,2.262-12.548l0.711-3.724C142.136,82.36,143.084,81.69,144.392,81.69 M145.247,104.227
					c0.362,0,0.463-0.252,0.659-1.275c0.02-0.104,1.919-10.402,2.672-14.343c0.465-2.437,0.352-2.604-1.098-3.277
					c-0.27-0.125-1.409-0.705-1.786-0.776c-0.134-0.025-0.255-0.041-0.363-0.041c-0.453,0-0.7,0.257-0.847,1.044
					c0,0-2.469,13.204-2.882,15.37c-0.295,1.55-0.59,1.776,2.066,2.879c0.417,0.172,0.788,0.291,1.108,0.352
					C144.971,104.198,145.124,104.227,145.247,104.227 M144.392,81.376c-1.572,0-2.559,0.9-2.935,2.675l-0.712,3.729
					c-0.004,0.022-0.065,0.363-0.165,0.921c-0.481,2.696-1.761,9.858-2.097,11.627c-0.611,3.195,0.338,4.641,4.062,6.185
					c0.598,0.249,1.163,0.425,1.681,0.523c0.347,0.067,0.686,0.101,1.004,0.101c1.388,0,3.164-0.638,3.743-3.675
					c0.003-0.016,0.043-0.233,0.112-0.606c1.269-6.867,2.13-11.485,2.558-13.727c0.829-4.339-0.765-5.452-2.934-6.456
					c-0.07-0.031-1.675-0.76-2.683-1.042C145.414,81.46,144.879,81.376,144.392,81.376L144.392,81.376z M145.247,103.913
					c-0.095,0-0.242-0.028-0.413-0.061c-0.293-0.056-0.646-0.168-1.047-0.334c-2.205-0.916-2.181-1.035-1.947-2.179
					c0.022-0.109,0.045-0.225,0.069-0.35c0.409-2.142,2.859-15.239,2.883-15.371c0.146-0.788,0.354-0.788,0.538-0.788
					c0.083,0,0.182,0.011,0.304,0.035c0.265,0.05,1.109,0.46,1.47,0.635c0.106,0.051,0.19,0.093,0.243,0.117
					c1.31,0.607,1.361,0.631,0.922,2.934c-0.619,3.236-2.034,10.889-2.499,13.404c-0.105,0.571-0.169,0.914-0.173,0.938
					C145.415,103.842,145.34,103.913,145.247,103.913L145.247,103.913z"/>
			</g>
		</g>
		<g>
			<g>
				<path d="M169.234,114.548c-1.202,0-2.708-0.602-3.807-1.041c-0.385-0.154-0.717-0.287-0.945-0.354l-2.133-0.809
					c-0.07-0.026-0.112-0.1-0.099-0.173l3.568-21.168c0.008-0.046,0.036-0.086,0.077-0.11c0.023-0.014,0.051-0.021,0.078-0.021
					c0.019,0,0.037,0.003,0.056,0.01c0.029,0.011,2.947,1.11,4.958,1.811c2.829,0.987,3.035,1.129,2.694,3.979
					c-0.121,1.018-1.543,10.004-2.226,14.323l-0.323,2.045C170.976,114.041,170.337,114.548,169.234,114.548z M165.325,110.5
					c0.481,0.114,0.979,0.283,1.423,0.434c0.46,0.156,0.895,0.303,1.222,0.361c0.143,0.025,0.273,0.038,0.389,0.038
					c0.524,0,0.672-0.255,0.733-0.64c0.324-2.009,1.761-11.183,1.896-12.323c0.226-1.899,0.245-2.313-0.601-2.65
					c-0.74-0.296-1.834-0.72-2.259-0.885C167.2,99.987,165.534,109.248,165.325,110.5z"/>
				<path d="M165.975,91.029c0,0,2.925,1.102,4.961,1.812c2.75,0.959,2.92,1.045,2.59,3.812c-0.149,1.239-2.234,14.355-2.549,16.361
					c-0.161,1.031-0.855,1.378-1.743,1.378c-1.602,0-3.834-1.128-4.707-1.39l-2.122-0.805L165.975,91.029 M168.358,111.49
					c0.667,0,0.827-0.385,0.889-0.771c0.325-2.018,1.761-11.189,1.896-12.33c0.226-1.898,0.26-2.432-0.699-2.814
					c-0.936-0.374-2.438-0.954-2.438-0.954s-2.831,15.695-2.861,16c1.008,0.217,2.101,0.705,2.795,0.828
					C168.1,111.478,168.237,111.49,168.358,111.49 M165.975,90.715c-0.055,0-0.108,0.014-0.157,0.042
					c-0.081,0.046-0.138,0.127-0.153,0.22l-3.568,21.168c-0.025,0.148,0.058,0.292,0.199,0.346l2.122,0.805
					c0.242,0.074,0.571,0.205,0.953,0.357c1.111,0.444,2.632,1.053,3.865,1.053c1.484,0,1.937-0.894,2.054-1.644
					c0.057-0.362,0.172-1.09,0.323-2.043c0.683-4.32,2.104-13.308,2.227-14.329c0.352-2.944,0.051-3.151-2.799-4.146
					c-2.009-0.7-4.925-1.798-4.954-1.809C166.049,90.722,166.012,90.715,165.975,90.715L165.975,90.715z M165.504,110.383
					c0.283-1.654,1.841-10.317,2.746-15.331c0.502,0.195,1.432,0.556,2.08,0.815c0.691,0.276,0.738,0.508,0.503,2.484
					c-0.135,1.14-1.571,10.309-1.894,12.317c-0.056,0.343-0.156,0.507-0.579,0.507c-0.106,0-0.228-0.012-0.361-0.036
					c-0.315-0.056-0.745-0.201-1.199-0.355C166.395,110.648,165.946,110.497,165.504,110.383L165.504,110.383z"/>
			</g>
		</g>
	</g>
	<g>
		<path d="M49.147,148.03c-0.229,0-0.44-0.129-0.545-0.337l-0.561-1.121c-0.046-0.093-0.067-0.195-0.063-0.301l1.401-30.266
			c0.012-0.295,0.238-0.539,0.53-0.575l111.373-14.535c0.027-0.002,0.053-0.006,0.079-0.006c0.172,0,0.336,0.073,0.453,0.202
			l2.523,2.803c0.087,0.099,0.143,0.224,0.154,0.355l3.316,37.943c0.013,0.165-0.04,0.33-0.15,0.455
			c-0.11,0.124-0.264,0.2-0.431,0.207C167.225,142.856,49.156,148.03,49.147,148.03z"/>
	</g>
	<polygon fill="#FFFFFF" points="51.752,117.444 50.128,144.034 162.983,138.351 160.751,103.035 	"/>
	<g>
		<path fill="#FFFFFF" d="M55.804,171.378l84.225,1.08l-0.428-27.765l0.015-0.002l-0.028-0.836l-0.016-0.998l-38.685,2.27
			l-51.74,2.295c0,0-0.46,1.217,0,1.217c0.018,0,0.037,0,0.055-0.002l7.994-0.34L55.804,171.378z"/>
		<path fill="#FFFFFF" d="M166.94,123.942l-1.024-0.342l1.284,18.646l-22.887,0.992l0.042,1.337l-0.058,32.239l-89.196-1.63
			l-1.362,0.679c0.253,0.508,0.766,0.831,1.333,0.842l89.198,1.632c0.009,0,0.018,0,0.027,0c0.396,0,0.777-0.154,1.063-0.431
			c0.29-0.282,0.456-0.67,0.46-1.078l-0.055-32.431l21.486-0.933c0.334-0.017,0.646-0.165,0.864-0.416
			c0.218-0.25,0.326-0.577,0.299-0.909L166.94,123.942z"/>
	</g>
	<g>
		<g>
			<path d="M94.921,139.1c-0.577,0-0.657-0.035-0.721-0.094c-0.303-0.283-0.168-1.069,0.026-1.989
				c0.042-0.197,0.077-0.364,0.089-0.471l4.61-20.239c0.128-0.8,5.095-1.104,7.225-1.197c0.002,0,0.004,0,0.007,0
				c0.05,0,0.098,0.021,0.131,0.061c0.034,0.04,0.047,0.094,0.036,0.146l-0.656,2.979c-0.016,0.075-0.08,0.129-0.156,0.134
				l-4.108,0.255l-1.691,6.969c0,0,3.815-0.173,3.818-0.173c0.052,0,0.102,0.023,0.133,0.064c0.035,0.043,0.046,0.099,0.031,0.152
				l-0.736,2.681c-0.02,0.073-0.085,0.124-0.161,0.125l-3.57,0.079l-1.924,7.187c1.221,0.023,4.384,0.084,4.384,0.084
				c0.053,0.001,0.102,0.026,0.133,0.068c0.031,0.042,0.042,0.096,0.028,0.147l-0.734,2.701c-0.02,0.073-0.085,0.125-0.161,0.126
				c-1.175,0.03-2.351,0.077-3.38,0.119C96.464,139.062,95.503,139.1,94.921,139.1L94.921,139.1z"/>
			<path d="M106.158,115.281l-0.655,2.98l-4.234,0.262l-1.775,7.313l4.038-0.183l-0.736,2.682l-3.698,0.083l-2.014,7.521
				c1,0.018,4.602,0.088,4.602,0.088l-0.734,2.7c-2.457,0.062-4.921,0.203-6.032,0.203c-0.351,0-0.566-0.014-0.604-0.049
				c-0.339-0.316,0.113-1.858,0.168-2.313l4.607-20.222C99.214,115.585,106.158,115.281,106.158,115.281 M103.532,125.653h0.002
				 M106.158,114.939c-0.005,0-0.01,0-0.015,0c-0.017,0-1.765,0.079-3.505,0.248c-3.477,0.34-3.821,0.716-3.883,1.104l-4.603,20.2
				c-0.002,0.012-0.005,0.023-0.006,0.035c-0.012,0.094-0.047,0.261-0.087,0.455c-0.219,1.041-0.345,1.804,0.025,2.149
				c0.121,0.113,0.285,0.141,0.836,0.141c0.586,0,1.548-0.039,2.662-0.084c1.034-0.042,2.205-0.089,3.378-0.119
				c0.15-0.004,0.281-0.106,0.32-0.252l0.735-2.7c0.028-0.102,0.007-0.21-0.056-0.294c-0.063-0.083-0.162-0.135-0.267-0.137
				c0,0-2.825-0.055-4.167-0.08l1.835-6.853l3.442-0.077c0.15-0.003,0.281-0.105,0.321-0.251l0.729-2.656
				c0.013-0.037,0.02-0.075,0.02-0.116c0-0.188-0.151-0.342-0.34-0.342h-0.002c-0.007,0-0.012,0-0.019,0.001l-3.581,0.162
				l1.608-6.626l3.982-0.247c0.152-0.009,0.28-0.118,0.313-0.268l0.655-2.979c0.023-0.104-0.003-0.212-0.072-0.293
				C106.354,114.984,106.258,114.939,106.158,114.939L106.158,114.939z"/>
		</g>
		<g>
			<g>
				<path d="M68.413,141.159c-1.636-0.019-2.529-0.274-2.988-0.855c-0.433-0.546-0.484-1.368-0.173-2.746
					c0.412-1.827,2.295-10.615,2.305-10.663l0.722-3.201c0.403-1.688,1.042-3.501,2.729-4.166c0.752-0.297,3.506-0.548,3.765-0.548
					c0.824,0.046,1.384,0.163,1.714,0.602c0.426,0.565,0.411,1.586-0.053,3.641c-0.619,2.743-2.394,10.146-3.062,12.932
					c-0.145,0.603-0.232,0.97-0.238,0.995c-0.63,2.796-1.42,3.705-3.38,3.892c-0.376,0.078-0.808,0.118-1.263,0.118H68.413z
					 M73.168,122.051c-0.647,0.019-1.066,0.048-1.258,0.087c-0.75,0.067-0.957,0.672-1.234,1.652l-0.094,0.329
					c-0.209,0.709-1.295,5.731-2.088,9.398c-0.366,1.69-0.67,3.1-0.801,3.683c-0.13,0.578-0.118,0.938,0.04,1.136
					c0.163,0.204,0.515,0.294,1.14,0.294c0.072,0,0.146-0.001,0.224-0.003c0.905-0.027,1.271-0.233,1.52-1.335
					c0.003-0.014,0.1-0.412,0.258-1.063c0.604-2.487,2.208-9.095,2.828-11.778c0.046-0.2,0.095-0.392,0.14-0.574
					c0.189-0.752,0.338-1.346,0.129-1.614c-0.112-0.144-0.345-0.213-0.714-0.213L73.168,122.051z"/>
				<path d="M74.772,119.151c0.006,0,0.011,0,0.016,0c1.711,0.098,2.275,0.507,1.479,4.033c-0.758,3.362-3.281,13.839-3.3,13.928
					c-0.642,2.843-1.415,3.584-3.229,3.758c-0.383,0.078-0.802,0.118-1.247,0.118c-0.025,0-0.05,0-0.076-0.001
					c-2.911-0.033-3.582-0.795-2.997-3.393c0.415-1.837,2.287-10.578,2.306-10.667l0.722-3.197c0.363-1.522,0.962-3.389,2.625-4.044
					C71.77,119.411,74.478,119.151,74.772,119.151 M68.872,138.801c0.074,0,0.149,0,0.229-0.003c0.99-0.029,1.415-0.292,1.681-1.468
					c0.018-0.082,2.308-9.479,3.086-12.84c0.364-1.574,0.834-2.611-0.611-2.611c-0.031,0-0.063,0.001-0.095,0.002
					c-0.22,0.006-0.977,0.028-1.287,0.091c-0.989,0.087-1.149,1.055-1.458,2.099c-0.307,1.045-2.475,11.241-2.893,13.094
					C67.242,138.417,67.576,138.801,68.872,138.801 M74.772,118.81L74.772,118.81c-0.27,0-3.04,0.25-3.827,0.56
					c-1.76,0.694-2.419,2.555-2.833,4.283l-0.722,3.201c-0.013,0.06-1.891,8.831-2.306,10.667c-0.323,1.434-0.262,2.297,0.206,2.889
					c0.494,0.625,1.427,0.9,3.12,0.92h0.081c0.46,0,0.896-0.04,1.297-0.12c2.041-0.201,2.863-1.144,3.512-4.022
					c0.008-0.033,0.095-0.397,0.237-0.992c0.669-2.787,2.444-10.191,3.063-12.936c0.476-2.11,0.482-3.17,0.022-3.781
					c-0.41-0.544-1.122-0.629-1.816-0.668C74.801,118.81,74.779,118.81,74.772,118.81L74.772,118.81z M68.872,138.46
					c-0.554,0-0.883-0.075-1.006-0.23c-0.122-0.152-0.124-0.476-0.008-0.991c0.132-0.585,0.443-2.021,0.802-3.685
					c0.792-3.665,1.877-8.684,2.084-9.387c0.033-0.111,0.065-0.222,0.095-0.331c0.273-0.964,0.444-1.47,1.066-1.525
					c0.013,0,0.026-0.002,0.039-0.005c0.183-0.038,0.591-0.066,1.215-0.084c0.042-0.001,0.07-0.001,0.098-0.001
					c0.303,0,0.503,0.05,0.579,0.147c0.158,0.203,0.003,0.817-0.159,1.467c-0.046,0.183-0.095,0.376-0.141,0.577
					c-0.621,2.683-2.225,9.291-2.829,11.778c-0.212,0.876-0.254,1.049-0.259,1.068c-0.229,1.012-0.51,1.173-1.357,1.197
					C69.016,138.459,68.942,138.46,68.872,138.46L68.872,138.46z"/>
			</g>
		</g>
		<g>
			<g>
				<path d="M143.587,135.66c-2.225,0-4.587-0.027-4.587-0.027c-0.053,0-0.102-0.026-0.134-0.067
					c-0.032-0.042-0.042-0.097-0.028-0.147l6.847-25.449c0.019-0.071,0.082-0.122,0.155-0.126c0.245-0.013,5.995-0.325,6.243-0.331
					l0.109-0.002c0.186-0.004,0.367-0.008,0.542-0.008c0.703,0,1.492,0.049,1.95,0.622c0.524,0.656,0.549,1.869,0.083,3.936
					c-0.553,2.449-1.853,7.861-3.865,16.084c-0.104,0.428-0.166,0.678-0.17,0.697c-0.799,3.55-1.793,4.713-4.089,4.787
					C146,135.649,144.972,135.66,143.587,135.66z M142.906,132.234c0.634,0.043,1.483,0.071,2.528,0.083c0,0,0.093,0,0.093,0
					c0.38,0,0.724-0.031,1.022-0.092c0.716-0.147,0.983-0.202,1.315-1.672c0.02-0.087,3.734-15.694,3.734-15.694
					c0.203-0.849,0.325-1.361,0.172-1.56c-0.159-0.206-0.74-0.234-1.678-0.256l-0.119-0.001c-0.405,0-1.448,0.02-2.092,0.04
					L142.906,132.234z"/>
				<path d="M152.734,109.674c1.678,0,2.769,0.351,1.867,4.349c-0.966,4.283-4.009,16.668-4.034,16.782
					c-0.816,3.624-1.824,4.587-3.928,4.654c-0.729,0.023-1.872,0.031-3.052,0.031c-2.223,0-4.584-0.027-4.584-0.027l6.846-25.448
					c0,0,5.988-0.324,6.237-0.33C152.31,109.679,152.526,109.674,152.734,109.674 M145.527,132.489c0.394,0,0.749-0.032,1.057-0.095
					c0.811-0.167,1.109-0.301,1.448-1.802c0.023-0.102,2.69-11.309,3.709-15.589c0.476-2.001,0.533-2.078-1.644-2.129
					c-0.03,0-0.071-0.001-0.123-0.001c-0.44,0-1.61,0.024-2.225,0.044l-5.059,19.474c0.503,0.04,1.349,0.083,2.742,0.099
					C145.464,132.489,145.496,132.489,145.527,132.489 M152.734,109.333c-0.176,0-0.359,0.003-0.546,0.007l-0.109,0.002
					c-0.251,0.005-6.003,0.316-6.248,0.33c-0.148,0.008-0.273,0.11-0.311,0.252l-6.847,25.449c-0.028,0.102-0.006,0.21,0.057,0.294
					c0.064,0.083,0.163,0.134,0.269,0.135c0.024,0,2.388,0.028,4.589,0.028c1.386,0,2.416-0.011,3.062-0.031
					c2.366-0.076,3.438-1.317,4.25-4.92c0.005-0.023,0.066-0.271,0.169-0.694c2.012-8.225,3.312-13.637,3.865-16.087
					c0.479-2.122,0.443-3.38-0.116-4.08C154.312,109.386,153.477,109.333,152.734,109.333L152.734,109.333z M148.015,113.25
					c0.646-0.019,1.581-0.036,1.959-0.036c0.048,0,0.087,0,0.115,0.001c0.635,0.015,1.426,0.034,1.547,0.19
					c0.104,0.134-0.038,0.729-0.203,1.416l-0.024,0.103l-0.627,2.637c-1.22,5.125-3.063,12.868-3.083,12.956
					c-0.308,1.362-0.511,1.405-1.183,1.543c-0.288,0.059-0.621,0.088-0.989,0.088l-0.091-0.001
					c-1.084-0.012-1.823-0.041-2.313-0.069L148.015,113.25L148.015,113.25z"/>
			</g>
		</g>
		<g>
			<g>
				<path d="M77.886,140.254c-1.061-0.011-1.761-0.251-2.145-0.732c-0.529-0.665-0.32-1.619-0.137-2.461
					c0.033-0.149,0.065-0.295,0.091-0.435c0.356-1.877,3.743-17.782,3.776-17.942c0.017-0.076,0.083-0.131,0.16-0.135
					c0,0,2.38-0.097,2.383-0.097c0.051,0,0.1,0.022,0.132,0.062c0.034,0.042,0.046,0.097,0.034,0.148
					c-0.034,0.141-3.402,14.11-3.772,16.186c-0.055,0.306-0.134,0.601-0.211,0.884c-0.168,0.62-0.312,1.154-0.087,1.451
					c0.171,0.226,0.567,0.339,1.21,0.347l0.259,0.002c0.539,0,0.839-0.023,1.059-0.04l0.185-0.013
					c0.544-0.028,0.785-1.131,0.998-2.105c0.046-0.215,0.093-0.426,0.142-0.623c0.113-0.46,0.477-2.214,0.938-4.434
					c0.875-4.223,2.075-10.006,2.705-12.484c0.018-0.072,0.08-0.124,0.154-0.128c0,0,2.307-0.149,2.311-0.149
					c0.048,0,0.095,0.02,0.127,0.057c0.035,0.039,0.05,0.093,0.041,0.144c-0.655,3.622-3.838,18.414-4.209,19.811
					c-0.406,1.53-1.347,2.479-2.582,2.603c-0.713,0.071-2.681,0.087-3.314,0.087L77.886,140.254z"/>
				<path d="M88.07,117.725c-0.669,3.698-3.86,18.494-4.206,19.797c-0.346,1.302-1.152,2.348-2.434,2.477
					c-0.673,0.066-2.525,0.085-3.297,0.085c-0.104,0-0.188,0-0.247-0.001c-3.074-0.035-2.287-2.041-2.023-3.427
					c0.36-1.896,3.776-17.938,3.776-17.938l2.376-0.097c0,0-3.399,14.091-3.774,16.196c-0.269,1.509-1.199,2.856,1.078,2.883
					c0.093,0.001,0.18,0.002,0.262,0.002c0.715,0,1.023-0.041,1.252-0.053c0.811-0.042,1.009-1.695,1.296-2.859
					c0.326-1.325,2.675-13.111,3.642-16.917L88.07,117.725 M82.016,118.622h0.002 M88.07,117.383c-0.007,0-0.015,0-0.022,0
					l-2.299,0.149c-0.148,0.009-0.272,0.113-0.309,0.257c-0.631,2.482-1.831,8.268-2.707,12.492c-0.46,2.219-0.823,3.97-0.936,4.428
					c-0.049,0.198-0.096,0.412-0.143,0.628c-0.169,0.775-0.425,1.949-0.84,1.971c-0.057,0.003-0.118,0.008-0.189,0.013
					c-0.217,0.017-0.513,0.039-1.045,0.039c-0.081,0-0.166,0-0.257-0.001c-0.571-0.007-0.944-0.104-1.077-0.28
					c-0.174-0.231-0.033-0.751,0.116-1.303c0.078-0.288,0.158-0.585,0.214-0.899c0.361-2.029,3.599-15.467,3.764-16.15
					c0.01-0.034,0.017-0.069,0.017-0.106c0-0.188-0.151-0.341-0.341-0.341h-0.002c-0.006,0-0.011,0-0.017,0l-2.374,0.097
					c-0.156,0.006-0.288,0.118-0.32,0.27c-0.035,0.161-3.421,16.068-3.778,17.946c-0.026,0.138-0.058,0.282-0.09,0.43
					c-0.183,0.836-0.41,1.876,0.17,2.604c0.417,0.524,1.161,0.785,2.275,0.798c0.061,0.001,0.146,0.001,0.25,0.001
					c0.635,0,2.611-0.017,3.331-0.088c1.309-0.131,2.304-1.126,2.729-2.729c0.372-1.398,3.557-16.2,4.212-19.824
					c0.019-0.103-0.011-0.21-0.081-0.288C88.26,117.424,88.167,117.383,88.07,117.383L88.07,117.383z"/>
			</g>
		</g>
		<g>
			<g>
				<path d="M54.185,141.327c-0.052,0-0.1-0.023-0.133-0.063c-0.032-0.04-0.045-0.093-0.035-0.144l4.446-20.874
					c0.015-0.073,0.077-0.127,0.151-0.135c0.042-0.004,4.235-0.39,5.956-0.39c0.313,0,0.528,0.012,0.656,0.038
					c0.3,0.06,0.462,0.431,0.494,1.135c0.097,2.147-1.122,7.842-2.412,8.833c1.607,1.888-1.514,9.98-1.547,10.064
					c-0.462,1.155-2.042,1.416-2.943,1.469C57.977,141.309,54.34,141.326,54.185,141.327
					C54.185,141.327,54.185,141.327,54.185,141.327z M56.795,138.521c0.447,0.04,0.951,0.063,1.411,0.063
					c1.058,0,1.448-0.115,1.507-0.176c0.345-0.581,1.843-6.167,1.394-6.731c-0.305-0.006-1.659-0.029-2.672-0.032L56.795,138.521z
					 M58.98,129.035c0.433,0.059,1.008,0.118,1.557,0.118c0.542,0,0.959-0.057,1.241-0.168c0.315-0.479,1.563-5.763,1.578-6.637
					c-0.05-0.004-0.11-0.005-0.178-0.005c-0.423,0-1.137,0.077-1.962,0.167c-0.323,0.035-0.666,0.072-1.022,0.109L58.98,129.035z"/>
				<path d="M64.57,119.892c0.284,0,0.501,0.01,0.623,0.035c1.156,0.231-0.693,9.327-2.171,9.765
					c1.651,1.222-0.733,8.318-1.419,10.037c-0.43,1.075-1.95,1.312-2.795,1.362c-0.845,0.049-4.623,0.066-4.623,0.066l4.445-20.875
					C58.63,120.282,62.837,119.892,64.57,119.892 M60.538,129.323c0.524,0,1.003-0.053,1.337-0.194
					c0.304-0.128,1.825-6.675,1.634-6.934c-0.079-0.019-0.19-0.026-0.33-0.026c-0.616,0-1.783,0.157-3.129,0.291l-1.271,6.718
					C59.329,129.26,59.96,129.323,60.538,129.323 M58.206,138.754c0.813,0,1.527-0.07,1.646-0.248c0.198-0.297,2.059-6.502,1.32-7
					c0,0-1.717-0.033-2.873-0.033l-1.717,7.198C57.068,138.723,57.659,138.754,58.206,138.754 M64.57,119.55L64.57,119.55
					c-1.729,0-5.799,0.376-5.972,0.392c-0.148,0.014-0.271,0.123-0.302,0.268l-4.445,20.875c-0.021,0.102,0.004,0.207,0.069,0.287
					c0.065,0.08,0.162,0.126,0.265,0.126c0,0,0,0,0.001,0c0.155,0,3.796-0.017,4.641-0.067c0.941-0.055,2.595-0.333,3.092-1.576
					c0.033-0.083,3.082-7.893,1.616-10.106c1.358-1.349,2.442-6.945,2.355-8.863c-0.023-0.506-0.113-1.191-0.631-1.294
					C65.118,119.563,64.899,119.55,64.57,119.55L64.57,119.55z M60.338,122.775c0.312-0.032,0.612-0.065,0.896-0.096
					c0.817-0.089,1.523-0.167,1.938-0.167c-0.128,1.169-1.192,5.66-1.514,6.334c-0.199,0.068-0.542,0.136-1.12,0.136
					c-0.468,0-0.956-0.044-1.356-0.093L60.338,122.775L60.338,122.775z M57.007,138.367l1.563-6.552
					c0.889,0.004,1.992,0.022,2.417,0.029c0.25,0.888-1.049,5.665-1.406,6.441c-0.124,0.05-0.525,0.126-1.375,0.126
					C57.816,138.413,57.396,138.396,57.007,138.367L57.007,138.367z"/>
			</g>
		</g>
		<g>
			<g>
				<path d="M88.371,139.629c-0.5,0-1.002-0.006-1.478-0.021c-0.186-0.006-0.341-0.084-0.447-0.227
					c-0.367-0.494-0.093-1.667,0.193-2.729l4.362-19.344c0.017-0.074,0.08-0.127,0.155-0.133c0,0,2.469-0.179,2.474-0.179
					c0.049,0,0.097,0.022,0.13,0.06c0.035,0.041,0.048,0.098,0.036,0.15c-0.04,0.168-4.021,16.919-4.39,18.337l-0.273,1.049
					c0,0,3.416-0.068,3.417-0.068c0.05,0,0.098,0.022,0.13,0.061c0.033,0.039,0.046,0.091,0.037,0.142l-0.509,2.681
					c-0.015,0.077-0.081,0.135-0.16,0.139C92.03,139.549,90.218,139.629,88.371,139.629z"/>
				<path d="M93.63,117.168h0.002 M93.63,117.168c0,0-4.017,16.902-4.39,18.334c-0.177,0.679-0.33,1.268-0.33,1.268l3.639-0.072
					l-0.509,2.68c0,0-1.805,0.082-3.669,0.082c-0.498,0-1-0.007-1.473-0.021c-0.799-0.025-0.359-1.753-0.094-2.74l4.364-19.351
					L93.63,117.168 M93.632,116.827H93.63c-0.01,0-0.02,0-0.029,0.001l-2.457,0.178c-0.15,0.011-0.275,0.119-0.308,0.266
					l-4.364,19.351c-0.363,1.351-0.532,2.362-0.162,2.862c0.139,0.186,0.338,0.288,0.579,0.295c0.441,0.014,0.94,0.021,1.483,0.021
					c1.851,0,3.667-0.081,3.685-0.081c0.159-0.008,0.291-0.123,0.32-0.278l0.509-2.681c0.019-0.102-0.008-0.206-0.075-0.284
					c-0.065-0.077-0.16-0.121-0.261-0.121c-0.002,0-0.004,0-0.007,0l-3.188,0.064l0.216-0.832c0.363-1.393,4.206-17.56,4.385-18.315
					c0.011-0.033,0.017-0.068,0.017-0.105C93.972,116.979,93.82,116.827,93.632,116.827L93.632,116.827z"/>
			</g>
		</g>
		<g>
			<g>
				<path d="M106.831,138.471c-0.43,0-1.231-0.02-1.56-0.034c-0.047-0.002-0.128-0.045-0.159-0.082
					c-0.418-0.502,0.386-8.173,2.39-22.797c0.045-0.331,0.071-0.523,0.074-0.546c-0.002-0.091,0.066-0.147,0.157-0.154
					c0,0,2.882-0.22,2.885-0.22c0.046,0,0.091,0.019,0.124,0.053c0.036,0.037,0.052,0.088,0.046,0.139
					c-0.467,3.786-1.063,7.459-1.588,10.7c-0.411,2.539-0.776,4.786-1.019,6.696c1.563-3.499,4.908-12.243,6.421-16.201
					c0.76-1.983,0.76-1.983,0.883-1.983l2.964-0.425c0.009-0.002,0.017-0.002,0.024-0.002c0.08,0,0.15,0.056,0.167,0.136
					c0.012,0.052-0.004,0.105-0.036,0.145c-0.231,0.409-3.139,7.578-5.478,13.346c-1.991,4.909-3.871,9.548-4.147,10.14
					c-0.106,0.229-0.551,0.979-1.831,1.08C107.144,138.463,107.092,138.471,106.831,138.471z"/>
				<path d="M118.476,113.784h0.001 M118.476,113.784L118.476,113.784C118.475,113.784,118.475,113.784,118.476,113.784
					 M118.475,113.784c-0.149,0.041-9.022,22.181-9.648,23.525c-0.121,0.261-0.552,0.893-1.689,0.981
					c-0.029,0.007-0.145,0.01-0.306,0.01c-0.445,0-1.242-0.02-1.552-0.034c-0.783-0.036,2.469-23.189,2.467-23.237l2.873-0.22
					c-0.896,7.243-2.246,14.005-2.732,18.445c1.592-3.14,7.57-19.043,7.599-19.043l0,0L118.475,113.784 M110.62,114.809h0.001
					 M118.477,113.443h-0.001c-0.02,0-0.037,0.001-0.055,0.004l-2.96,0.423c-0.214,0.003-0.233,0.052-0.491,0.722
					c-0.125,0.324-0.304,0.793-0.526,1.373c-1.37,3.582-4.24,11.083-5.928,15.061c0.23-1.623,0.527-3.455,0.853-5.469
					c0.524-3.234,1.118-6.898,1.585-10.678c0.004-0.022,0.007-0.045,0.007-0.069c0-0.188-0.152-0.342-0.341-0.342h-0.001l0,0
					c0,0-0.001,0-0.002,0l0,0c-0.001,0-0.001,0-0.001,0c-0.009,0-0.018,0-0.027,0l-2.869,0.22c-0.167,0.013-0.298,0.145-0.314,0.308
					c-0.005,0.038-0.03,0.227-0.073,0.539c-3.03,22.114-2.555,22.685-2.352,22.928c0.073,0.088,0.173,0.138,0.282,0.144
					c0.331,0.015,1.135,0.034,1.567,0.034c0.223,0,0.303-0.005,0.349-0.011c1.36-0.112,1.841-0.929,1.956-1.177
					c0.278-0.596,2.072-5.022,4.151-10.147c2.308-5.691,5.172-12.756,5.46-13.313c0.044-0.057,0.071-0.13,0.071-0.208
					C118.818,113.596,118.666,113.443,118.477,113.443L118.477,113.443z"/>
			</g>
		</g>
		<g>
			<g>
				<path d="M111.737,137.898c-0.058,0-0.111-0.029-0.143-0.077c-0.033-0.049-0.037-0.111-0.013-0.165l11.145-24.416
					c0.025-0.056,0.077-0.093,0.137-0.099c0,0,2.385-0.254,2.392-0.254c0.043,0,0.085,0.016,0.117,0.046
					c0.037,0.035,0.056,0.083,0.053,0.133l-1.296,23.791c-0.005,0.09-0.078,0.16-0.167,0.162c0,0-2.824,0.062-2.826,0.062
					c-0.045,0-0.089-0.019-0.121-0.051c-0.033-0.033-0.051-0.079-0.049-0.126l0.268-7.203l-2.808,0.037l-3.687,8
					c-0.028,0.059-0.086,0.098-0.151,0.099C114.587,137.835,111.738,137.898,111.737,137.898z M119.098,127.083l2.841-0.038
					l0.508-7.262L119.098,127.083z"/>
			</g>
			<g>
				<path d="M125.255,113.057l-1.297,23.792l-2.822,0.062l0.274-7.384l-3.095,0.041l-3.732,8.098l-2.847,0.062l11.145-24.417
					L125.255,113.057 M118.83,127.258l3.269-0.043l0.583-8.354L118.83,127.258 M125.255,112.716c-0.012,0-0.024,0-0.037,0.001
					l-2.374,0.254c-0.12,0.013-0.224,0.087-0.274,0.198l-11.145,24.416c-0.049,0.107-0.039,0.231,0.026,0.33
					c0.063,0.096,0.17,0.154,0.285,0.154c0.002,0,0.004,0,0.007,0l2.847-0.063c0.13-0.003,0.248-0.08,0.303-0.198l3.642-7.901
					l2.521-0.034l-0.261,7.025c-0.003,0.094,0.032,0.185,0.098,0.252c0.064,0.065,0.152,0.102,0.243,0.102c0.002,0,0.005,0,0.008,0
					l2.822-0.062c0.178-0.003,0.324-0.144,0.333-0.322l1.296-23.792c0.006-0.1-0.033-0.197-0.105-0.266
					C125.426,112.749,125.343,112.716,125.255,112.716L125.255,112.716z M119.366,126.909l2.845-6.201l-0.431,6.168L119.366,126.909
					L119.366,126.909z"/>
			</g>
		</g>
		<g>
			<g>
				<path d="M126.19,136.535c-0.052,0-0.102-0.024-0.134-0.065c-0.033-0.042-0.044-0.097-0.031-0.149l6.702-25.142
					c0.019-0.067,0.076-0.117,0.145-0.125c0.604-0.075,1.178-0.148,1.723-0.217c1.922-0.246,3.44-0.44,4.55-0.44
					c1.052,0,1.655,0.176,1.956,0.57c0.223,0.293,0.261,0.688,0.117,1.21c-0.145,0.527-3.031,10.816-3.209,11.419
					c-0.4,1.359-1.271,1.644-1.931,1.644c-0.063,0-0.121-0.003-0.171-0.006l0.575,10.469c0.002,0.045-0.014,0.09-0.044,0.124
					c-0.03,0.033-0.073,0.054-0.119,0.056c0,0-2.975,0.138-2.978,0.138c-0.043,0-0.085-0.017-0.118-0.046
					c-0.034-0.031-0.053-0.076-0.054-0.122l-0.185-10.326c-0.158,0.006-0.37,0.018-0.582,0.031c-0.248,0.014-0.497,0.029-0.65,0.034
					l-2.648,10.753c-0.019,0.076-0.084,0.128-0.162,0.13C128.941,136.474,126.191,136.535,126.19,136.535z M132.747,122.267
					c0.702,0,1.844-0.035,2.577-0.1c0.383-0.034,0.602-0.187,0.804-0.969c0.279-1.08,0.881-3.217,1.32-4.776
					c0.233-0.827,0.427-1.514,0.516-1.844c0.038-0.142,0.052-0.41-0.066-0.566c-0.071-0.093-0.187-0.139-0.352-0.139
					c-0.038,0-0.079,0.002-0.123,0.008c-0.325,0.039-0.721,0.059-1.14,0.08c-0.514,0.026-1.044,0.052-1.492,0.116l-2.313,8.186
					C132.554,122.266,132.644,122.267,132.747,122.267z"/>
			</g>
			<g>
				<path d="M139.144,110.566c1.541,0,2.233,0.385,1.909,1.563c-0.155,0.563-3.034,10.826-3.208,11.417
					c-0.396,1.344-1.27,1.521-1.767,1.521c-0.177,0-0.307-0.022-0.35-0.022c-0.001,0-0.002,0-0.003,0l0.585,10.666l-2.969,0.138
					l-0.188-10.498c-0.008,0-0.02,0-0.032,0c-0.249,0-1.21,0.071-1.46,0.071c-0.018,0-0.031,0-0.041-0.001l-2.68,10.882
					l-2.748,0.061l6.702-25.142C135.603,110.89,137.73,110.566,139.144,110.566 M132.747,122.437c0.674,0,1.838-0.033,2.592-0.1
					c0.484-0.042,0.74-0.271,0.954-1.096c0.424-1.641,1.574-5.654,1.836-6.617c0.063-0.232,0.107-0.92-0.583-0.92
					c-0.044,0-0.092,0.003-0.144,0.009c-0.747,0.089-1.909,0.079-2.746,0.213l-2.4,8.499
					C132.331,122.434,132.508,122.437,132.747,122.437 M139.144,110.225L139.144,110.225c-1.12,0-2.643,0.196-4.571,0.442
					c-0.544,0.069-1.119,0.144-1.722,0.217c-0.139,0.017-0.252,0.116-0.289,0.25l-6.702,25.141c-0.028,0.104-0.005,0.215,0.062,0.3
					c0.065,0.083,0.164,0.13,0.268,0.13c0.003,0,0.005,0,0.008,0l2.748-0.061c0.155-0.003,0.288-0.11,0.325-0.26l2.618-10.629
					c0.147-0.007,0.333-0.017,0.525-0.029c0.14-0.008,0.282-0.016,0.404-0.023l0.182,10.151c0.001,0.092,0.041,0.18,0.108,0.243
					c0.064,0.06,0.147,0.092,0.233,0.092c0.005,0,0.011,0,0.016,0l2.97-0.139c0.091-0.004,0.177-0.044,0.238-0.112
					s0.092-0.157,0.087-0.248l-0.565-10.283c0.59-0.003,1.635-0.237,2.085-1.767c0.178-0.603,3.064-10.895,3.209-11.422
					c0.159-0.577,0.111-1.021-0.146-1.358C140.899,110.422,140.255,110.225,139.144,110.225L139.144,110.225L139.144,110.225z
					 M134.924,114.233c0.417-0.052,0.899-0.077,1.367-0.1c0.422-0.021,0.821-0.042,1.152-0.081c0.037-0.004,0.07-0.006,0.103-0.006
					l0,0c0.161,0,0.203,0.054,0.216,0.071c0.073,0.094,0.068,0.303,0.038,0.417c-0.09,0.33-0.283,1.016-0.516,1.842
					c-0.44,1.561-1.042,3.697-1.322,4.78c-0.208,0.802-0.404,0.819-0.653,0.841c-0.728,0.064-1.863,0.099-2.562,0.099
					c-0.015,0-0.029,0-0.043,0L134.924,114.233L134.924,114.233z"/>
			</g>
		</g>
	</g>
	<g>
		<g>
			<g>
				<path d="M72.26,168.915c-0.057,0-0.11-0.029-0.142-0.077c-0.031-0.048-0.036-0.109-0.012-0.162l9.418-20.897
					c0.027-0.061,0.088-0.099,0.154-0.099c0.002,0,2.504,0.077,2.504,0.077c0.045,0.001,0.088,0.021,0.119,0.054
					c0.031,0.033,0.047,0.077,0.045,0.122l-0.855,20.799c-0.004,0.091-0.079,0.163-0.169,0.163l-2.464-0.006
					c-0.046,0-0.089-0.019-0.121-0.051s-0.049-0.078-0.047-0.123l0.178-6.366l-2.806-0.032l-3.004,6.494
					c-0.028,0.06-0.087,0.098-0.153,0.098C74.904,168.908,72.26,168.915,72.26,168.915z M81.281,159.782l0.163-6.036l-2.594,6.008
					L81.281,159.782z"/>
			</g>
			<g>
				<path d="M81.679,147.849l2.499,0.076l-0.855,20.8l-2.463-0.006l0.183-6.539l-3.087-0.035l-3.05,6.592l-2.644,0.008
					L81.679,147.849 M81.445,159.952l0.19-7.078l-3.042,7.046L81.445,159.952 M81.679,147.511c-0.132,0-0.253,0.079-0.308,0.199
					l-9.418,20.896c-0.047,0.105-0.038,0.227,0.024,0.323c0.063,0.097,0.169,0.155,0.284,0.155c0,0,0,0,0.001,0l2.644-0.008
					c0.131,0,0.25-0.078,0.306-0.195l2.958-6.395l2.525,0.028l-0.173,6.195c-0.002,0.091,0.032,0.179,0.095,0.245
					c0.063,0.064,0.151,0.102,0.241,0.102l2.463,0.006c0,0,0,0,0.001,0c0.182,0,0.331-0.142,0.338-0.324l0.855-20.799
					c0.004-0.09-0.029-0.178-0.09-0.244c-0.061-0.067-0.146-0.105-0.237-0.108l-2.499-0.077
					C81.686,147.511,81.682,147.511,81.679,147.511L81.679,147.511z M79.105,159.588l2.146-4.969l-0.134,4.992L79.105,159.588
					L79.105,159.588z"/>
			</g>
		</g>
		<g>
			<g>
				<path d="M91.761,168.968c-1.624-0.018-6.573-0.11-6.573-0.11c-0.052,0-0.101-0.026-0.132-0.067
					c-0.031-0.041-0.041-0.096-0.028-0.145l5.665-20.761c0.02-0.073,0.086-0.124,0.162-0.125c0,0,3.932-0.042,5.115-0.042
					c0.191,0,0.313,0.001,0.341,0.004c0.996,0.082,1.825,0.148,2.281,0.785c0.428,0.598,0.438,1.632,0.031,3.253
					c-0.492,1.958-1.556,6.116-3.161,12.359l-0.141,0.548c-0.685,2.724-1.479,4.301-3.515,4.301
					C91.806,168.968,91.762,168.968,91.761,168.968z M88.444,166.13c0.549,0.034,1.835,0.078,2.494,0.078
					c0.307,0,0.381-0.01,0.397-0.012c0.582-0.105,0.778-0.14,1.068-1.299l0.083-0.311c1.574-5.875,2.715-10.203,3.212-12.188
					c0.167-0.662,0.317-1.366,0.167-1.567c-0.083-0.113-0.328-0.124-0.666-0.141c-0.126-0.005-0.265-0.011-0.417-0.024
					c-0.05-0.004-0.265-0.01-1.123-0.01l-0.766,0.001L88.444,166.13z"/>
				<path d="M95.97,147.887c0.183,0,0.3,0.001,0.327,0.003c1.757,0.144,3.068,0.225,2.163,3.828
					c-0.863,3.435-3.28,12.816-3.302,12.908c-0.724,2.883-1.523,4.173-3.351,4.173c-0.015,0-0.029,0-0.043,0
					c-1.624-0.018-6.572-0.11-6.572-0.11l5.665-20.761C90.856,147.928,94.787,147.887,95.97,147.887 M90.938,166.376
					c0.214,0,0.37-0.004,0.427-0.015c0.657-0.118,0.9-0.22,1.202-1.424c0.021-0.083,2.432-9.055,3.296-12.499
					c0.536-2.128,0.141-1.842-1.065-1.942c-0.116-0.009-0.647-0.011-1.137-0.011c-0.465,0-0.893,0.002-0.893,0.002l-4.544,15.796
					C88.543,166.316,90.143,166.376,90.938,166.376 M95.97,147.549c-1.171,0-5.078,0.041-5.117,0.041
					c-0.151,0.002-0.283,0.104-0.322,0.25l-5.665,20.761c-0.028,0.101-0.007,0.208,0.056,0.292c0.063,0.083,0.16,0.133,0.264,0.134
					c0.05,0.001,4.968,0.092,6.575,0.11h0.047c2.147,0,2.975-1.624,3.679-4.429c0.003-0.015,0.054-0.211,0.141-0.546
					c1.605-6.243,2.669-10.402,3.162-12.361c0.426-1.696,0.408-2.742-0.057-3.392c-0.502-0.699-1.409-0.774-2.369-0.852
					l-0.037-0.003C96.305,147.552,96.273,147.549,95.97,147.549L95.97,147.549z M93.023,150.825
					c0.166-0.001,0.397-0.001,0.638-0.001c0.883,0,1.071,0.007,1.111,0.009c0.151,0.012,0.292,0.019,0.42,0.025
					c0.188,0.009,0.501,0.023,0.538,0.072c0.046,0.062,0.081,0.328-0.195,1.425c-0.498,1.983-1.638,6.312-3.212,12.187
					c-0.052,0.192-0.081,0.301-0.083,0.311c-0.265,1.055-0.407,1.081-0.935,1.175c-0.005,0.001-0.073,0.01-0.367,0.01
					c-0.615,0-1.672-0.036-2.272-0.066L93.023,150.825L93.023,150.825z"/>
			</g>
		</g>
		<g>
			<g>
				<path d="M96.7,168.993c-0.052,0-0.101-0.025-0.132-0.066c-0.032-0.042-0.042-0.096-0.029-0.145l5.564-21.079
					c0.02-0.075,0.086-0.126,0.163-0.126c0,0,2.746,0.03,2.746,0.03c0.051,0,0.1,0.025,0.131,0.065
					c0.032,0.041,0.043,0.095,0.03,0.145l-5.269,21.082c-0.019,0.076-0.086,0.128-0.164,0.128L96.7,168.993z"/>
				<path d="M102.266,147.746l2.744,0.03l-5.27,21.082l-3.038-0.033L102.266,147.746 M102.266,147.408
					c-0.153,0-0.287,0.103-0.327,0.252l-5.564,21.078c-0.027,0.102-0.005,0.209,0.058,0.291c0.063,0.083,0.161,0.132,0.266,0.134
					l3.038,0.033c0.001,0,0.002,0,0.004,0c0.155,0,0.29-0.105,0.328-0.256l5.27-21.082c0.024-0.101,0.002-0.207-0.061-0.289
					c-0.063-0.082-0.161-0.129-0.264-0.131l-2.744-0.03C102.269,147.408,102.268,147.408,102.266,147.408L102.266,147.408z"/>
			</g>
		</g>
		<g>
			<g>
				<path d="M108.151,169.192c-0.553,0-1.289-0.043-1.832-0.106c-1.499-0.174-2.182-0.422-2.522-0.914
					c-0.408-0.592-0.223-1.493,0.104-2.799c0.449-1.787,3.233-14.374,3.261-14.501l0.054-0.208c0.381-1.459,0.855-3.275,3.256-3.345
					c0.654-0.019,2.571-0.032,3.551-0.032c0.345,0,0.585,0.002,0.635,0.005c0.946,0.063,1.479,0.268,1.781,0.683
					c0.524,0.72,0.242,2.047-0.286,4.147c-0.393,1.565-1.107,4.578-1.798,7.49c-0.768,3.24-1.494,6.299-1.703,7.053
					c-0.576,2.075-1.851,2.492-3.72,2.492l-0.148,0C108.681,169.179,108.456,169.192,108.151,169.192z M108.216,166.132
					c1.05,0,2.05-0.109,2.249-0.904l0.017-0.073c0.427-1.821,2.597-11.06,3.37-14.067c0.112-0.437,0.104-0.729-0.024-0.897
					c-0.209-0.275-0.786-0.285-1.516-0.299c-0.195-0.004-0.402-0.007-0.617-0.016c-0.051-0.003-0.102-0.004-0.151-0.004
					c-1.243,0-1.949,0.65-2.224,2.044c-0.191,0.97-2.326,10.614-2.798,12.498c-0.186,0.737-0.185,1.154,0.002,1.395
					c0.168,0.216,0.53,0.321,1.106,0.321h0.092L108.216,166.132z"/>
				<path d="M114.025,147.456c0.339,0,0.574,0.002,0.624,0.004c2.28,0.152,2.214,1.151,1.343,4.621
					c-0.831,3.309-3.104,13.112-3.5,14.539c-0.546,1.969-1.738,2.368-3.557,2.368c-0.048,0-0.097,0-0.146-0.001
					c-0.135,0.024-0.364,0.036-0.639,0.036c-0.547,0-1.277-0.043-1.812-0.105c-2.862-0.333-2.916-0.948-2.273-3.504
					c0.454-1.81,3.262-14.506,3.262-14.506c0.396-1.496,0.769-3.351,3.15-3.42C111.125,147.469,113.025,147.456,114.025,147.456
					 M107.632,166.299c0.009,0,0.018,0,0.028,0c0.021,0,0.042,0,0.063,0c0.152,0,0.318,0.002,0.492,0.002
					c0.964,0,2.172-0.074,2.413-1.033c0.019-0.081,2.537-10.832,3.387-14.139c0.406-1.581-0.72-1.355-2.313-1.422
					c-0.054-0.002-0.107-0.003-0.159-0.003c-1.479,0-2.138,0.905-2.389,2.181c-0.208,1.058-2.34,10.666-2.797,12.489
					C106.032,165.668,106.188,166.299,107.632,166.299 M114.025,147.118c-0.982,0-2.901,0.012-3.556,0.031
					c-2.528,0.074-3.041,2.038-3.415,3.473l-0.053,0.2c-0.031,0.14-2.815,12.726-3.263,14.509c-0.339,1.352-0.528,2.287-0.08,2.938
					c0.424,0.613,1.325,0.833,2.642,0.985c0.548,0.064,1.292,0.107,1.851,0.107c0.292,0,0.516-0.011,0.666-0.035l0.119,0.001
					c1.895,0,3.28-0.445,3.882-2.616c0.21-0.758,0.936-3.818,1.704-7.06c0.69-2.912,1.405-5.923,1.797-7.488
					c0.54-2.147,0.826-3.508,0.259-4.288c-0.334-0.459-0.905-0.685-1.907-0.751C114.648,147.122,114.587,147.118,114.025,147.118
					L114.025,147.118z M107.632,165.961c-0.514,0-0.841-0.085-0.974-0.255c-0.148-0.19-0.139-0.586,0.027-1.25
					c0.473-1.884,2.61-11.536,2.801-12.506c0.256-1.302,0.91-1.908,2.058-1.908c0.047,0,0.095,0.002,0.145,0.004
					c0.216,0.008,0.424,0.012,0.62,0.016c0.63,0.011,1.225,0.022,1.385,0.231c0.092,0.122,0.09,0.381-0.005,0.753
					c-0.774,3.009-2.944,12.249-3.372,14.072l-0.017,0.074c-0.171,0.678-1.103,0.772-2.084,0.772l-0.261-0.002l-0.231-0.001h-0.065
					H107.632L107.632,165.961z"/>
			</g>
		</g>
		<g>
			<g>
				<path d="M68.287,168.972c-0.092-0.002-0.165-0.077-0.166-0.168l-0.058-8.424c-0.136,0.003-0.303,0.012-0.469,0.02
					c-0.185,0.008-0.368,0.017-0.489,0.021l-2.187,8.277c-0.02,0.074-0.086,0.126-0.163,0.126c-0.001,0-2.506-0.063-2.506-0.063
					c-0.053,0-0.102-0.027-0.133-0.068c-0.031-0.043-0.04-0.097-0.025-0.148l5.894-19.951c0.019-0.065,0.076-0.113,0.143-0.121
					c1.837-0.205,3.102-0.295,4.104-0.295c1.562,0,2.467,0.236,2.849,0.744c0.216,0.287,0.261,0.657,0.134,1.1
					c-0.136,0.472-2.535,8.409-2.684,8.896c-0.323,1.055-1.104,1.277-1.701,1.277c-0.12,0-0.226-0.009-0.311-0.019l0.436,8.672
					c0.002,0.047-0.015,0.093-0.047,0.126c-0.032,0.033-0.076,0.051-0.122,0.051C70.784,169.023,68.287,168.972,68.287,168.972z
					 M67.746,157.646c0.101,0.003,0.238,0.005,0.417,0.005c0.551,0,1.343-0.019,1.873-0.06c0.415-0.031,0.701-0.158,0.846-0.694
					c0.237-0.877,0.747-2.61,1.119-3.877c0.2-0.684,0.368-1.252,0.444-1.525c0.014-0.047,0.074-0.29-0.043-0.446
					c-0.082-0.109-0.244-0.164-0.48-0.164c-0.03,0-0.062,0.001-0.095,0.002c-0.163,0.01-0.349,0.017-0.547,0.025
					c-0.519,0.021-1.103,0.045-1.582,0.108L67.746,157.646z"/>
			</g>
			<g>
				<path d="M72.231,148.345c2.089,0,3.168,0.418,2.82,1.627c-0.132,0.459-2.535,8.412-2.683,8.895
					c-0.304,0.99-1.041,1.157-1.54,1.157c-0.253,0-0.445-0.043-0.489-0.043c0,0,0,0-0.001,0l0.446,8.875l-2.495-0.053l-0.058-8.594
					c-0.011-0.001-0.026-0.001-0.045-0.001c-0.226,0-0.957,0.045-1.168,0.045c-0.019,0-0.033,0-0.043-0.001l-2.219,8.403
					l-2.502-0.063l5.894-19.951C69.749,148.461,71.13,148.345,72.231,148.345 M68.163,157.82c0.56,0,1.35-0.018,1.886-0.06
					c0.397-0.029,0.814-0.144,0.997-0.817c0.362-1.34,1.34-4.614,1.563-5.401c0.055-0.193,0.147-0.824-0.687-0.824
					c-0.033,0-0.068,0.001-0.104,0.002c-0.615,0.035-1.564,0.048-2.25,0.149l-2.042,6.935
					C67.608,157.814,67.849,157.82,68.163,157.82 M72.231,148.007v0.338V148.007c-1.007,0-2.278,0.091-4.122,0.297
					c-0.135,0.015-0.248,0.109-0.287,0.24l-5.894,19.952c-0.03,0.102-0.011,0.21,0.051,0.294c0.062,0.085,0.16,0.136,0.265,0.14
					l2.502,0.063c0.002,0,0.006,0,0.008,0c0.153,0,0.288-0.103,0.327-0.252l2.154-8.155c0.107-0.004,0.236-0.01,0.366-0.016
					c0.1-0.005,0.202-0.01,0.293-0.014l0.056,8.251c0,0.183,0.148,0.332,0.331,0.335l2.496,0.053c0.002,0,0.005,0,0.007,0
					c0.091,0,0.179-0.037,0.243-0.103c0.065-0.067,0.1-0.158,0.095-0.252l-0.426-8.48c0.042,0.002,0.086,0.003,0.132,0.003
					c0.925,0,1.587-0.495,1.863-1.396c0.149-0.488,2.549-8.427,2.685-8.9c0.143-0.496,0.088-0.917-0.162-1.248
					C74.793,148.257,73.873,148.007,72.231,148.007L72.231,148.007z M69.828,151.175c0.45-0.052,0.981-0.074,1.457-0.093
					c0.2-0.009,0.387-0.017,0.55-0.026c0.03-0.002,0.059-0.003,0.085-0.003l0,0c0.173,0,0.298,0.036,0.345,0.097
					c0.05,0.067,0.043,0.202,0.016,0.299c-0.077,0.272-0.244,0.841-0.444,1.523c-0.372,1.268-0.881,3.002-1.119,3.882
					c-0.121,0.445-0.329,0.541-0.696,0.569c-0.525,0.041-1.313,0.059-1.86,0.059c-0.071,0-0.135,0-0.192-0.001L69.828,151.175
					L69.828,151.175z"/>
			</g>
		</g>
	</g>
</g>
</svg>
