<?xml version="1.0" encoding="utf-8"?>
<!-- Generator: Adobe Illustrator 16.0.0, SVG Export Plug-In . SVG Version: 6.00 Build 0)  -->
<!DOCTYPE svg PUBLIC "-//W3C//DTD SVG 1.1//EN" "http://www.w3.org/Graphics/SVG/1.1/DTD/svg11.dtd">
<svg version="1.1" id="Layer_1" xmlns="http://www.w3.org/2000/svg" xmlns:xlink="http://www.w3.org/1999/xlink" x="0px" y="0px"
	 viewBox="0 0 179.78 186.777" enable-background="new 0 0 179.78 186.777"
	 xml:space="preserve">
<g>
	<path fill="#0E4957" d="M31.855,118.814H0.226c3.532,12.511,9.607,23.956,17.628,33.74c2.192-2.035,8.692-7.689,18.988-13.426
		C34.834,133.064,33.098,126.296,31.855,118.814z"/>
	<path fill="#0E4957" d="M36.99,47.544c-10.25-5.693-16.768-11.32-19.048-13.429C10.037,43.729,4.018,54.954,0.444,67.221h31.642
		C33.341,60.027,35.04,53.462,36.99,47.544z"/>
	<path fill="#0E4957" d="M38.212,143.052c-9.725,5.503-15.854,10.902-17.688,12.613c5.143,5.744,10.981,10.849,17.394,15.176
		c1.562-1.683,4.758-4.864,9.507-8.355C44.318,157.269,41.065,150.802,38.212,143.052z"/>
	<path fill="#0E4957" d="M69.186,182.061l-2.199,1.83c7.396,1.884,15.144,2.888,23.126,2.888c0.062,0,0.121-0.002,0.179-0.002
		l-0.021-11.835C80.262,175.496,73.075,179.344,69.186,182.061z"/>
	<path fill="#0E4957" d="M49.604,165.997c-3.881,2.876-6.634,5.505-8.176,7.099c6.732,4.121,14.031,7.411,21.749,9.733
		C60.332,180.19,55.359,174.928,49.604,165.997z"/>
	<path fill="#0E4957" d="M132.088,166.587c-4.697,7.14-9.252,12.226-12.529,15.448c6.802-2.259,13.256-5.275,19.26-8.954
		C137.691,171.786,135.418,169.354,132.088,166.587z"/>
	<path fill="#0E4957" d="M47.413,24.096c-4.636-3.41-7.792-6.523-9.389-8.232c-6.413,4.317-12.259,9.411-17.408,15.145
		c1.958,1.809,8.117,7.182,17.735,12.608C41.165,35.905,44.357,29.396,47.413,24.096z"/>
	<path fill="#0E4957" d="M113.167,181.835c-3.186-2.828-9.045-6.453-18.433-6.913l0.022,11.74
		c6.913-0.338,13.626-1.433,20.067-3.194C114.382,182.983,113.833,182.427,113.167,181.835z"/>
	<path fill="#0E4957" d="M144.213,44.958c9.402-5.061,15.27-10.085,17.214-11.864c-5.579-6.589-12.048-12.397-19.228-17.232
		c-1.178,1.386-3.823,4.295-7.884,7.613C137.653,29.182,141.177,36.352,144.213,44.958z"/>
	<path fill="#0E4957" d="M145.543,48.927c1.766,5.552,3.301,11.653,4.459,18.293h29.778c-3.307-11.356-8.714-21.816-15.771-30.936
		c-2.307,2.108-8.382,7.236-18.001,12.397C145.856,48.764,145.698,48.845,145.543,48.927z"/>
	<path fill="#0E4957" d="M138.715,13.628c-5.548-3.387-11.473-6.207-17.702-8.389c3.133,3.432,7.092,8.307,11.146,14.706
		C135.354,17.283,137.561,14.94,138.715,13.628z"/>
	<path fill="#0E4957" d="M89.959,11.627L89.94,0c-7.829,0.015-15.426,0.992-22.691,2.823l1.279,1.224
		C72.208,6.737,79.552,10.974,89.959,11.627z"/>
	<path fill="#0E4957" d="M49.527,20.567c5.029-8.099,9.341-13.209,12.194-16.169c-7.139,2.276-13.907,5.382-20.185,9.215
		C43.093,15.213,45.785,17.778,49.527,20.567z"/>
	<path fill="#0E4957" d="M113.743,4.223c0.354-0.337,0.665-0.657,0.939-0.953c-6.506-1.77-13.292-2.855-20.278-3.171l0.021,11.581
		C104.6,11.259,110.683,7.136,113.743,4.223z"/>
	<path fill="#0E4957" d="M90.226,151.828c-15.885,0.39-28.391,6.033-36.952,11.617c5.116,7.906,10.145,13.287,13.341,16.319
		c4.126-3.031,12.158-7.593,23.648-8.177L90.226,151.828z"/>
	<path fill="#0E4957" d="M141.499,50.96C130.5,56.2,114.511,61.53,94.52,61.923l0.011,5.297h50.935
		C144.409,61.354,143.051,55.931,141.499,50.96z"/>
	<path fill="#0E4957" d="M127.196,162.891c-6.947-4.763-18.083-10.386-32.505-11.024l0.038,19.703
		c10.661,0.48,17.321,4.724,20.929,8.016c3.147-3.01,7.966-8.206,12.892-15.742C128.109,163.526,127.659,163.208,127.196,162.891z"
		/>
	<path fill="#0E4957" d="M94.468,34.733c14.531-0.593,25.747-6.247,32.728-11.034c0.487-0.333,0.961-0.668,1.422-1.002
		c-4.687-7.449-9.29-12.807-12.497-16.124c-3.515,3.367-10.378,8.025-21.689,8.458L94.468,34.733z"/>
	<path fill="#0E4957" d="M129.643,26.983c-7.482,5.154-19.525,11.246-35.166,11.843l0.035,19.003
		c19.026-0.385,34.42-5.366,45.688-10.82c-2.893-8.327-6.26-15.262-9.461-20.798C130.381,26.47,130.017,26.727,129.643,26.983z"/>
	<path fill="#0E4957" d="M150.225,118.814c-1.149,6.915-2.718,13.227-4.533,18.928c0.105,0.056,0.212,0.11,0.315,0.166
		c9.745,5.227,15.848,10.419,18.087,12.474c7.17-9.294,12.631-19.969,15.905-31.567H150.225L150.225,118.814z"/>
	<path fill="#0E4957" d="M130.725,160.368c3.258-5.443,6.699-12.35,9.633-20.746c-6.725-3.26-15.497-6.597-26.042-8.704v-4.168
		c11.028,2.122,20.237,5.558,27.337,8.952c1.602-5.126,2.993-10.754,4.046-16.89H94.628v0.056h-4.465v-0.056H36.387
		c1.141,6.656,2.681,12.722,4.453,18.188c9.701-4.91,19.4-8.359,29.715-10.344v4.231c-11.406,2.337-20.971,6.191-28.229,9.898
		c0.006,0.017,0.012,0.029,0.017,0.046c-0.052,0.026-0.108,0.053-0.159,0.08c2.752,7.603,5.909,13.932,8.922,19.025
		c0.043-0.03,0.085-0.057,0.128-0.086c8.273-5.36,21.655-11.715,38.984-12.121l-0.008-5.042h4.465l0.009,5.08
		c15.54,0.645,27.512,6.703,34.96,11.837C130.012,159.862,130.371,160.116,130.725,160.368z M77.392,125.571v-2.538h11.704v1.662
		v0.92h-8.81v3.479h2.526h0.718h3.859v2.601h-7.104v6.874h-2.895v-8.799v-0.053V125.571L77.392,125.571z M94.665,137.795h-0.818
		v-14.961h0.789h9.743c0.534,0,0.982,0.052,1.366,0.161c0.432,0.127,0.77,0.322,1.041,0.598c0.265,0.275,0.454,0.602,0.585,1.002
		c0.097,0.312,0.155,0.667,0.193,1.064c0.006,0.07,0.019,0.134,0.023,0.209c0.011,0.238,0.023,0.516,0.028,0.839
		c0.006,0.308,0.018,0.615,0.028,0.921c0.016,0.351,0.021,0.719,0.021,1.103v1.071v7.995h-2.843v-8.354v-0.755
		c0-0.363-0.005-0.723-0.02-1.075c-0.013-0.315-0.024-0.646-0.029-1.004c-0.008-0.323-0.022-0.62-0.047-0.875
		c-0.01-0.094-0.034-0.22-0.1-0.29c-0.001,0-0.067-0.046-0.287-0.046h-2.171v3.78v8.618h-2.844v-8.824v-3.574h-2.633v3.442v8.956
		h-2.028V137.795z"/>
	<path fill="#0E4957" d="M53.591,23.386c7.75,5,20.253,10.918,36.415,11.369l-0.038-19.769C78.137,14.312,70.01,9.424,66.094,6.438
		c-3.272,3.37-8.057,8.909-12.899,16.69C53.328,23.215,53.457,23.301,53.591,23.386z"/>
	<path fill="#0E4957" d="M36.615,67.221h53.452l-0.011-5.295c-20.672-0.388-37.541-6.451-49.063-12.262
		C39.274,54.985,37.763,60.84,36.615,67.221z"/>
	<path fill="#0E4957" d="M134.296,163.098c4.189,3.42,6.881,6.412,8.004,7.749c7.18-4.849,13.644-10.669,19.214-17.271
		c-1.84-1.7-7.716-6.802-17.146-11.9C141.287,150.346,137.691,157.481,134.296,163.098z"/>
	<path fill="#0E4957" d="M51.095,26.647c-2.963,5.179-6.055,11.545-8.77,19.104c11.082,5.662,27.513,11.688,47.724,12.083
		l-0.038-18.983c-17.23-0.452-30.538-6.775-38.779-12.113C51.187,26.707,51.144,26.677,51.095,26.647z"/>
	<path fill="#0E4957" d="M0.957,110.159c0.348,1.045,0.821,1.877,1.422,2.496c0.599,0.619,1.335,1.054,2.205,1.306
		c0.871,0.251,1.866,0.376,2.988,0.376c1.004,0,1.925-0.232,2.756-0.695c0.83-0.464,1.595-1.046,2.291-1.74
		c0.659,0.695,1.393,1.276,2.205,1.74c0.813,0.463,1.761,0.695,2.844,0.695c2.204,0,3.915-0.568,5.134-1.71
		c1.218-1.142,1.944-3.259,2.177-6.354c0.039-0.58,0.067-1.285,0.086-2.118c0.02-0.831,0.039-1.712,0.059-2.64
		c0.019-0.929,0.028-1.849,0.028-2.755c0-0.909,0-1.732,0-2.467v-2.437V73.78H20.22v21.933c0,0.695,0,1.528,0,2.494
		c0,0.969-0.01,1.955-0.029,2.958c-0.02,1.008-0.048,1.972-0.087,2.901c-0.039,0.929-0.078,1.703-0.116,2.32
		c-0.231,2.593-1.005,3.889-2.319,3.889c-1.433,0-2.227-1.296-2.38-3.889c-0.079-0.695-0.126-1.623-0.146-2.784
		c-0.019-1.161-0.039-2.33-0.057-3.51c-0.021-1.179-0.029-2.292-0.029-3.336s0-1.799,0-2.264V73.78h-4.932v20.075
		c0,1.779-0.021,3.443-0.059,4.989c-0.04,1.355-0.067,2.727-0.087,4.12c-0.019,1.394-0.068,2.534-0.144,3.422
		c-0.155,2.593-0.908,3.889-2.263,3.889c-1.315,0-2.089-1.296-2.321-3.889c-0.077-0.889-0.125-2.03-0.145-3.422
		c-0.02-1.393-0.048-2.765-0.088-4.12c-0.039-1.546-0.056-3.21-0.056-4.989V73.78H0.03v20.075c-0.04,1.74-0.04,3.385,0,4.932
		c0,1.354,0.019,2.718,0.058,4.09c0.038,1.374,0.096,2.505,0.173,3.395C0.379,107.82,0.611,109.116,0.957,110.159z"/>
	<path fill="#0E4957" d="M30.201,98.207c0,1.2,0.019,2.437,0.057,3.714c0.039,1.276,0.096,2.342,0.174,3.191
		c0.194,3.172,0.9,5.502,2.119,6.991c1.217,1.491,2.95,2.233,5.191,2.233c2.205,0,3.917-0.744,5.137-2.233
		c1.217-1.489,1.921-3.819,2.116-6.991c0.079-0.851,0.115-1.916,0.115-3.191c0-1.277,0.02-2.514,0.059-3.714
		c0-1.393,0.02-2.844,0.058-4.352c-0.038-1.508-0.058-2.959-0.058-4.351c-0.039-1.2-0.059-2.438-0.059-3.714
		c0-1.277-0.038-2.359-0.115-3.25c-0.194-3.172-0.898-5.493-2.116-6.963c-1.22-1.47-2.932-2.204-5.137-2.204
		c-2.243,0-3.974,0.735-5.191,2.204c-1.219,1.469-1.925,3.792-2.119,6.963c-0.078,0.891-0.136,1.973-0.174,3.25
		c-0.039,1.276-0.057,2.514-0.057,3.714c-0.04,1.392-0.04,2.843,0,4.351C30.161,95.364,30.161,96.813,30.201,98.207z M35.134,89.04
		c0.038-1.315,0.066-2.669,0.086-4.062c0.02-1.394,0.067-2.533,0.146-3.424c0.076-1.353,0.319-2.407,0.726-3.162
		c0.407-0.754,0.957-1.13,1.654-1.13c0.658,0,1.199,0.376,1.625,1.13c0.423,0.754,0.676,1.81,0.754,3.162
		c0.039,0.658,0.076,1.442,0.115,2.349c0.039,0.91,0.068,1.849,0.087,2.814c0.02,0.967,0.029,1.926,0.029,2.872
		c0,0.948,0,1.77,0,2.466v1.798v1.857c0,0.695,0,1.517,0,2.464c0,0.95-0.008,1.906-0.029,2.874c-0.02,0.967-0.049,1.915-0.087,2.843
		c-0.039,0.929-0.078,1.702-0.115,2.321c-0.079,1.354-0.33,2.397-0.754,3.132c-0.426,0.736-0.967,1.104-1.625,1.104
		c-0.698,0-1.247-0.367-1.654-1.104c-0.405-0.734-0.649-1.777-0.726-3.132c-0.079-0.89-0.126-2.021-0.146-3.396
		c-0.019-1.373-0.048-2.735-0.086-4.09c-0.039-1.546-0.058-3.172-0.058-4.874C35.075,92.192,35.095,90.586,35.134,89.04z"/>
	<path fill="#0E4957" d="M65.711,113.874v-11.721c0-0.426-0.01-1.063-0.029-1.917c-0.019-0.849-0.086-1.719-0.203-2.609
		c-0.116-1.083-0.494-2.061-1.131-2.931c-0.639-0.871-1.268-1.516-1.886-1.944c0.618-0.425,1.19-0.966,1.712-1.624
		s0.841-1.546,0.957-2.669c0.076-0.656,0.115-1.189,0.115-1.595c0-0.405,0.019-0.762,0.059-1.073c0-0.31,0.018-0.582,0.057-0.813
		c-0.039-0.425-0.057-0.89-0.057-1.394c-0.04-0.425-0.059-0.909-0.059-1.45c0-0.542-0.039-1.102-0.115-1.683
		c-0.116-1.122-0.397-2.097-0.841-2.93c-0.445-0.831-1.006-1.508-1.683-2.031c-0.677-0.522-1.433-0.918-2.262-1.19
		c-0.833-0.27-1.675-0.425-2.526-0.465c-0.271,0-0.579-0.018-0.928-0.058c-0.309,0-0.686-0.009-1.132-0.028
		c-0.444-0.019-0.996-0.029-1.653-0.029c-1.121,0-1.981,0.01-2.58,0.029c-0.601,0.02-0.998,0.05-1.19,0.086v40.036h4.932v-18.8
		h2.612c0.658,0,1.236,0.244,1.741,0.726c0.501,0.485,0.811,1.229,0.928,2.235c0.076,0.657,0.115,1.276,0.115,1.854
		c0,0.581,0.019,1.103,0.056,1.568c0,0.541,0.02,1.043,0.059,1.506v10.908h4.932V113.874z M60.431,84.92
		c0,0.194-0.01,0.531-0.03,1.015c-0.019,0.484-0.086,1.17-0.203,2.059c-0.231,1.974-1.024,2.96-2.38,2.96h-2.551V78.015h1.507
		c1.121,0,1.944,0.223,2.467,0.668c0.521,0.445,0.841,1.189,0.956,2.233c0.117,1.24,0.184,2.157,0.203,2.758
		c0.02,0.599,0.03,0.937,0.03,1.014L60.431,84.92L60.431,84.92z"/>
	<polygon fill="#0E4957" points="70.817,73.837 70.817,113.874 83.291,113.874 83.291,109.81 75.747,109.81 75.747,73.837 	"/>
	<path fill="#0E4957" d="M86.366,73.837v40.036c0.233,0.037,0.687,0.076,1.364,0.114c0.677,0.039,1.597,0.059,2.756,0.059
		c0.658,0,1.208,0,1.654,0c0.443,0,0.82-0.02,1.131-0.059c0.347,0,0.658-0.019,0.929-0.058c0.85-0.039,1.691-0.241,2.524-0.609
		c0.831-0.367,1.585-0.929,2.263-1.682c0.677-0.754,1.247-1.691,1.712-2.815c0.463-1.12,0.754-2.475,0.87-4.061
		c0.038-0.502,0.067-1.121,0.087-1.856c0.019-0.734,0.038-1.508,0.057-2.321c0.021-0.813,0.03-1.614,0.03-2.408
		c0-0.791,0-1.518,0-2.176v-2.146v-2.147c0-0.619,0-1.335,0-2.146c0-0.813-0.011-1.625-0.03-2.436
		c-0.019-0.813-0.038-1.596-0.057-2.351c-0.02-0.754-0.051-1.383-0.087-1.886c-0.116-1.546-0.407-2.891-0.87-4.032
		c-0.465-1.142-1.035-2.08-1.712-2.814c-0.677-0.734-1.432-1.286-2.263-1.654c-0.833-0.366-1.674-0.569-2.524-0.608
		c-0.271,0-0.581-0.02-0.929-0.058c-0.31,0-0.688-0.009-1.131-0.028c-0.446-0.02-0.997-0.029-1.654-0.029
		c-1.16,0-2.079,0.019-2.756,0.058C87.052,73.761,86.598,73.801,86.366,73.837z M91.299,78.015h1.973
		c1.083,0,1.865,0.33,2.351,0.986c0.482,0.659,0.782,1.665,0.897,3.018c0.078,0.891,0.127,1.993,0.147,3.307
		c0.019,1.316,0.047,2.611,0.085,3.888c0.039,1.508,0.059,3.056,0.059,4.641c0,1.625-0.02,3.19-0.059,4.701
		c-0.038,1.276-0.067,2.591-0.085,3.946c-0.019,1.354-0.068,2.456-0.147,3.307c-0.115,1.354-0.426,2.359-0.927,3.017
		c-0.504,0.658-1.277,0.986-2.322,0.986h-1.973V78.015z"/>
	<path fill="#0E4957" d="M106.441,73.78v20.075c-0.039,1.74-0.039,3.385,0,4.932c0,1.354,0.02,2.718,0.06,4.09
		c0.037,1.374,0.096,2.505,0.172,3.395c0.116,1.547,0.349,2.844,0.696,3.887c0.35,1.045,0.821,1.877,1.423,2.496
		c0.598,0.619,1.335,1.054,2.203,1.306c0.871,0.251,1.866,0.376,2.989,0.376c1.006,0,1.924-0.232,2.756-0.695
		c0.833-0.464,1.596-1.046,2.292-1.74c0.658,0.695,1.393,1.276,2.205,1.74c0.812,0.463,1.761,0.695,2.843,0.695
		c2.205,0,3.917-0.568,5.137-1.71c1.218-1.142,1.943-3.259,2.176-6.354c0.038-0.58,0.067-1.285,0.088-2.118
		c0.019-0.831,0.037-1.712,0.058-2.64c0.018-0.929,0.028-1.849,0.028-2.755c0-0.909,0-1.732,0-2.467v-2.437V73.78h-4.931v21.933
		c0,0.695,0,1.528,0,2.494c0,0.969-0.01,1.955-0.03,2.958c-0.019,1.008-0.049,1.972-0.086,2.901
		c-0.039,0.929-0.078,1.703-0.117,2.32c-0.23,2.593-1.005,3.889-2.32,3.889c-1.431,0-2.226-1.296-2.379-3.889
		c-0.077-0.695-0.125-1.623-0.145-2.784c-0.021-1.161-0.039-2.33-0.058-3.51c-0.02-1.179-0.028-2.292-0.028-3.336s0-1.799,0-2.264
		V73.78h-4.933v20.075c0,1.779-0.02,3.443-0.059,4.989c-0.038,1.355-0.067,2.727-0.086,4.12c-0.021,1.394-0.068,2.534-0.146,3.422
		c-0.155,2.593-0.91,3.889-2.263,3.889c-1.316,0-2.088-1.296-2.32-3.889c-0.078-0.889-0.126-2.03-0.146-3.422
		c-0.019-1.393-0.048-2.765-0.087-4.12c-0.038-1.546-0.057-3.21-0.057-4.989V73.78H106.441z"/>
	<rect x="136.786" y="73.837" fill="#0E4957" width="4.933" height="40.036"/>
	<path fill="#0E4957" d="M162.142,82.89c-0.115-1.546-0.404-2.891-0.869-4.032c-0.465-1.142-1.036-2.08-1.712-2.815
		c-0.678-0.733-1.432-1.285-2.263-1.653c-0.831-0.367-1.674-0.57-2.524-0.609c-0.27,0-0.579-0.019-0.928-0.058
		c-0.31,0-0.687-0.009-1.132-0.028c-0.445-0.02-0.995-0.029-1.653-0.029c-1.159,0-2.079,0.019-2.755,0.058
		c-0.678,0.04-1.132,0.079-1.364,0.116v40.035c0.232,0.039,0.687,0.078,1.364,0.116c0.676,0.037,1.596,0.057,2.755,0.057
		c0.658,0,1.208,0,1.653,0s0.821-0.02,1.132-0.057c0.349,0,0.658-0.02,0.928-0.059c0.852-0.039,1.693-0.241,2.524-0.609
		c0.831-0.366,1.585-0.929,2.263-1.682c0.676-0.755,1.247-1.692,1.712-2.814c0.465-1.121,0.754-2.475,0.869-4.062
		c0.038-0.502,0.068-1.122,0.088-1.856c0.019-0.734,0.038-1.508,0.057-2.32c0.02-0.813,0.03-1.614,0.03-2.409
		c0-0.792,0-1.517,0-2.176v-2.147v-2.147c0-0.619,0-1.335,0-2.147s-0.011-1.624-0.03-2.436c-0.019-0.814-0.038-1.596-0.057-2.351
		C162.21,84.02,162.179,83.392,162.142,82.89z M157.326,98.555c-0.038,1.276-0.067,2.592-0.086,3.946
		c-0.021,1.355-0.068,2.457-0.146,3.309c-0.116,1.354-0.426,2.358-0.929,3.015c-0.503,0.66-1.277,0.986-2.321,0.986h-1.973V78.015
		h1.973c1.083,0,1.866,0.33,2.35,0.986c0.483,0.659,0.783,1.665,0.899,3.018c0.076,0.891,0.124,1.993,0.146,3.307
		c0.019,1.316,0.048,2.611,0.086,3.888c0.039,1.508,0.059,3.056,0.059,4.641C157.385,95.48,157.365,97.046,157.326,98.555z"/>
	<polygon fill="#0E4957" points="179.549,78.015 179.549,73.837 167.075,73.837 167.075,113.874 179.549,113.874 179.549,109.81 
		172.007,109.81 172.007,94.842 178.911,94.842 178.911,90.78 172.007,90.78 172.007,78.015 	"/>
</g>
</svg>
